{
.appVersion = "1286";
copyright = "Copyright 2011 The Montserrat Project Authors (https://github.com/JulietaUla/Montserrat)";
customParameters = (
{
name = vendorID;
value = "ULA ";
},
{
name = panose;
value = (
0,
0,
9,
0,
0,
0,
0,
0,
0,
0
);
},
{
name = unicodeRanges;
value = (
0,
1,
2,
3,
9,
29,
32,
33
);
},
{
name = fsType;
value = (
);
}
);
date = "2017-10-17 18:36:54 +0000";
designer = "Julieta Ulanovsky";
designerURL = "http://www.zkysky.com.ar/";
disablesAutomaticAlignment = 1;
familyName = "Montserrat FFS";
featurePrefixes = (
{

glyphs = (
{
glyphname = A;
layers = (
{
layerId = "F251586D-48D7-42AD-80B6-8A992ABEF986";
paths = (
{
closed = 1;
nodes = (
"594 0 LINE",
"800 0 LINE",
"490 700 LINE",
"295 700 LINE",
"-14 0 LINE",
"188 0 LINE",
"243 136 LINE",
"539 136 LINE",
"539 136 LINE"
);
},
{
closed = 1;
nodes = (
"301 282 LINE",
"391 506 LINE",
"481 282 LINE",
"481 282 LINE"
);
}
);
userData = {
assembly = "NPUSHB[ ]	/* 40 values pushed */\0129 1 4 2 1 74 5 1 4 0 0 1 4 0 102 0 2 2 66 75 3 1 1 1 67 1 76 8 8 8 10 8 10 17 17 17 16 6 10 24 \012CALL[ ]	/* CallFunction */";
};
width = 786;
}
);
leftKerningGroup = A;
note = A;
rightKerningGroup = A;
unicode = 0041;
},
{
glyphname = AE;
layers = (
{
layerId = "F251586D-48D7-42AD-80B6-8A992ABEF986";
paths = (
{
closed = 1;
nodes = (
"693 153 LINE",
"693 281 LINE",
"1004 281 LINE",
"1004 429 LINE",
"693 429 LINE",
"693 547 LINE",
"1046 547 LINE",
"1046 700 LINE",
"368 700 LINE",
"-14 0 LINE",
"188 0 LINE",
"259 136 LINE",
"497 136 LINE",
"497 0 LINE",
"1059 0 LINE",
"1059 153 LINE",
"1059 153 LINE"
);
},
{
closed = 1;
nodes = (
"336 282 LINE",
"474 547 LINE",
"497 547 LINE",
"497 282 LINE",
"497 282 LINE"
);
}
);
userData = {
assembly = "NPUSHB[ ]	/* 65 values pushed */\0120 5 0 6 7 5 6 101 11 1 9 0 1 0 9 1 101 8 1 4 4 3 93 0 3 3 66 75 10 1 7 7 0 93 2 1 0 0 67 0 76 16 16 0 0 16 19 16 19 18 17 0 15 0 15 17 17 17 17 17 17 17 12 10 27 \012CALL[ ]	/* CallFunction */";
};
width = 1099;
}
);
leftKerningGroup = A;
note = AE;
rightKerningGroup = AE;
unicode = 00C6;
},
{
glyphname = B;
layers = (
{
layerId = "F251586D-48D7-42AD-80B6-8A992ABEF986";
paths = (
{
closed = 1;
nodes = (
"653 388 OFFCURVE",
"702 467 OFFCURVE",
"702 517 QCURVE SMOOTH",
"702 601 OFFCURVE",
"562 700 OFFCURVE",
"428 700 QCURVE SMOOTH",
"70 700 LINE",
"70 0 LINE",
"448 0 LINE SMOOTH",
"588 0 OFFCURVE",
"736 100 OFFCURVE",
"736 192 QCURVE SMOOTH",
"736 255 OFFCURVE",
"668 344 OFFCURVE",
"608 365 QCURVE",
"608 365 LINE"
);
},
{
closed = 1;
nodes = (
"402 557 LINE SMOOTH",
"502 557 OFFCURVE",
"502 490 QCURVE SMOOTH",
"502 422 OFFCURVE",
"402 422 QCURVE SMOOTH",
"266 422 LINE",
"266 557 LINE",
"266 557 LINE"
);
},
{
closed = 1;
nodes = (
"266 143 LINE",
"266 285 LINE",
"432 285 LINE SMOOTH",
"536 285 OFFCURVE",
"536 214 QCURVE SMOOTH",
"536 143 OFFCURVE",
"432 143 QCURVE",
"432 143 LINE"
);
}
);
userData = {
assembly = "NPUSHB[ ]	/* 57 values pushed */\01214 1 4 2 1 74 0 2 0 4 5 2 4 101 6 1 3 3 1 93 0 1 1 66 75 7 1 5 5 0 93 0 0 0 67 0 76 22 22 15 15 22 28 22 27 26 24 15 21 15 20 39 33 36 8 10 23 \012CALL[ ]	/* CallFunction */";
};
width = 769;
}
);
leftKerningGroup = B;
note = B;
rightKerningGroup = B;
unicode = 0042;
},
{
glyphname = C;
layers = (
{
layerId = "F251586D-48D7-42AD-80B6-8A992ABEF986";
paths = (
{
closed = 1;
nodes = (
"515 -14 OFFCURVE",
"669 54 OFFCURVE",
"720 118 QCURVE",
"594 232 LINE",
"526 150 OFFCURVE",
"429 150 QCURVE SMOOTH",
"372 150 OFFCURVE",
"283 200 OFFCURVE",
"234 291 OFFCURVE",
"234 350 QCURVE SMOOTH",
"234 409 OFFCURVE",
"283 500 OFFCURVE",
"372 550 OFFCURVE",
"429 550 QCURVE SMOOTH",
"526 550 OFFCURVE",
"594 468 QCURVE",
"720 582 LINE",
"669 646 OFFCURVE",
"515 714 OFFCURVE",
"419 714 QCURVE SMOOTH",
"309 714 OFFCURVE",
"134 621 OFFCURVE",
"34 455 OFFCURVE",
"34 350 QCURVE SMOOTH",
"34 245 OFFCURVE",
"134 79 OFFCURVE",
"309 -14 OFFCURVE",
"419 -14 QCURVE",
"419 -14 LINE"
);
}
);
userData = {
assembly = "NPUSHB[ ]	/* 49 values pushed */\01210 1 1 0 23 11 2 2 1 24 1 3 2 3 74 0 1 1 0 95 0 0 0 72 75 0 2 2 3 95 4 1 3 3 73 3 76 0 0 0 27 0 26 38 36 38 5 10 23 \012CALL[ ]	/* CallFunction */";
};
width = 738;
}
);
leftKerningGroup = C;
note = C;
rightKerningGroup = C;
unicode = 0043;
},
{
glyphname = D;
layers = (
{
layerId = "F251586D-48D7-42AD-80B6-8A992ABEF986";
paths = (
{
closed = 1;
nodes = (
"70 0 LINE",
"401 0 LINE SMOOTH",
"516 0 OFFCURVE",
"694 86 OFFCURVE",
"792 244 OFFCURVE",
"792 350 QCURVE SMOOTH",
"792 456 OFFCURVE",
"694 614 OFFCURVE",
"516 700 OFFCURVE",
"401 700 QCURVE SMOOTH",
"70 700 LINE",
"70 700 LINE"
);
},
{
closed = 1;
nodes = (
"268 158 LINE",
"268 542 LINE",
"393 542 LINE SMOOTH",
"483 542 OFFCURVE",
"592 440 OFFCURVE",
"592 350 QCURVE SMOOTH",
"592 260 OFFCURVE",
"483 158 OFFCURVE",
"393 158 QCURVE",
"393 158 LINE"
);
}
);
userData = {
assembly = "NPUSHB[ ]	/* 35 values pushed */\0120 3 3 0 93 0 0 0 66 75 4 1 2 2 1 93 0 1 1 67 1 76 12 11 18 16 11 19 12 19 38 32 5 10 22 \012CALL[ ]	/* CallFunction */";
};
width = 826;
}
);
leftKerningGroup = B;
note = D;
rightKerningGroup = D;
unicode = 0044;
},
{
glyphname = E;
layers = (
{
layerId = "F251586D-48D7-42AD-80B6-8A992ABEF986";
paths = (
{
closed = 1;
nodes = (
"266 153 LINE",
"266 281 LINE",
"577 281 LINE",
"577 429 LINE",
"266 429 LINE",
"266 547 LINE",
"619 547 LINE",
"619 700 LINE",
"70 700 LINE",
"70 0 LINE",
"632 0 LINE",
"632 153 LINE",
"632 153 LINE"
);
}
);
userData = {
assembly = "NPUSHB[ ]	/* 44 values pushed */\0120 3 0 4 5 3 4 101 0 2 2 1 93 0 1 1 66 75 6 1 5 5 0 93 0 0 0 67 0 76 0 0 0 11 0 11 17 17 17 17 17 7 10 25 \012CALL[ ]	/* CallFunction */";
};
width = 672;
}
);
leftKerningGroup = B;
note = E;
rightKerningGroup = AE;
unicode = 0045;
},
{
glyphname = F;
layers = (
{
layerId = "F251586D-48D7-42AD-80B6-8A992ABEF986";
paths = (
{
closed = 1;
nodes = (
"619 547 LINE",
"619 700 LINE",
"70 700 LINE",
"70 0 LINE",
"268 0 LINE",
"268 240 LINE",
"577 240 LINE",
"577 393 LINE",
"268 393 LINE",
"268 547 LINE",
"268 547 LINE"
);
}
);
userData = {
assembly = "NPUSHB[ ]	/* 38 values pushed */\0120 0 0 1 2 0 1 101 5 1 4 4 3 93 0 3 3 66 75 0 2 2 67 2 76 0 0 0 9 0 9 17 17 17 17 6 10 24 \012CALL[ ]	/* CallFunction */";
};
width = 642;
}
);
leftKerningGroup = B;
note = F;
rightKerningGroup = F;
unicode = 0046;
},
{
glyphname = G;
layers = (
{
layerId = "F251586D-48D7-42AD-80B6-8A992ABEF986";
paths = (
{
closed = 1;
nodes = (
"539 173 LINE",
"489 150 OFFCURVE",
"432 150 QCURVE SMOOTH",
"374 150 OFFCURVE",
"284 201 OFFCURVE",
"234 292 OFFCURVE",
"234 350 QCURVE SMOOTH",
"234 441 OFFCURVE",
"344 550 OFFCURVE",
"434 550 QCURVE SMOOTH",
"533 550 OFFCURVE",
"604 472 QCURVE",
"730 586 LINE",
"678 648 OFFCURVE",
"522 714 OFFCURVE",
"424 714 QCURVE SMOOTH",
"312 714 OFFCURVE",
"134 621 OFFCURVE",
"34 455 OFFCURVE",
"34 350 QCURVE SMOOTH",
"34 245 OFFCURVE",
"134 79 OFFCURVE",
"310 -14 OFFCURVE",
"420 -14 QCURVE SMOOTH",
"498 -14 OFFCURVE",
"654 32 OFFCURVE",
"714 75 QCURVE",
"714 365 LINE",
"539 365 LINE",
"539 365 LINE"
);
}
);
userData = {
assembly = "NPUSHB[ ]	/* 55 values pushed */\01216 1 3 2 17 1 0 3 28 1 4 0 2 1 1 4 4 74 0 0 3 4 3 0 4 126 0 3 3 2 95 0 2 2 72 75 0 4 4 1 95 0 1 1 73 1 76 37 36 38 35 16 5 10 25 \012CALL[ ]	/* CallFunction */";
};
width = 770;
}
);
leftKerningGroup = C;
note = G;
rightKerningGroup = G;
unicode = 0047;
},
{
glyphname = H;
layers = (
{
layerId = "F251586D-48D7-42AD-80B6-8A992ABEF986";
paths = (
{
closed = 1;
nodes = (
"538 700 LINE",
"538 437 LINE",
"268 437 LINE",
"268 700 LINE",
"70 700 LINE",
"70 0 LINE",
"268 0 LINE",
"268 273 LINE",
"538 273 LINE",
"538 0 LINE",
"736 0 LINE",
"736 700 LINE",
"736 700 LINE"
);
}
);
userData = {
assembly = "NPUSHB[ ]	/* 36 values pushed */\0120 4 0 1 0 4 1 101 6 5 2 3 3 66 75 2 1 0 0 67 0 76 0 0 0 11 0 11 17 17 17 17 17 7 10 25 \012CALL[ ]	/* CallFunction */";
};
width = 806;
}
);
leftKerningGroup = B;
note = H;
rightKerningGroup = H;
unicode = 0048;
},
{
glyphname = I;
layers = (
{
layerId = "F251586D-48D7-42AD-80B6-8A992ABEF986";
paths = (
{
closed = 1;
nodes = (
"70 0 LINE",
"268 0 LINE",
"268 700 LINE",
"70 700 LINE",
"70 700 LINE"
);
}
);
userData = {
assembly = "NPUSHB[ ]	/* 16 values pushed */\0120 0 0 66 75 0 1 1 67 1 76 17 16 2 10 22 \012CALL[ ]	/* CallFunction */";
};
width = 339;
}
);
leftKerningGroup = B;
note = I;
rightKerningGroup = H;
unicode = 0049;
},
{
glyphname = IJ;
layers = (
{
layerId = "F251586D-48D7-42AD-80B6-8A992ABEF986";
paths = (
{
closed = 1;
nodes = (
"429 -14 OFFCURVE",
"580 63 OFFCURVE",
"662 213 OFFCURVE",
"662 320 QCURVE SMOOTH",
"662 700 LINE",
"464 700 LINE",
"464 309 LINE SMOOTH",
"464 226 OFFCURVE",
"393 147 OFFCURVE",
"321 147 QCURVE SMOOTH",
"272 147 OFFCURVE",
"166 180 OFFCURVE",
"119 211 QCURVE",
"47 67 LINE",
"100 29 OFFCURVE",
"245 -14 OFFCURVE",
"328 -14 QCURVE",
"328 -14 LINE"
);
},
{
closed = 1;
nodes = (
"64 329 LINE",
"262 329 LINE",
"262 700 LINE",
"64 700 LINE",
"64 700 LINE"
);
}
);
userData = {
assembly = "NPUSHB[ ]	/* 48 values pushed */\0123 1 0 4 2 1 2 0 2 74 0 4 4 1 93 3 1 1 1 66 75 0 0 0 2 95 5 1 2 2 73 2 76 0 0 20 19 18 17 0 16 0 15 19 37 6 10 22 \012CALL[ ]	/* CallFunction */";
};
width = 727;
}
);
leftKerningGroup = B;
note = IJ;
rightKerningGroup = IJ;
unicode = 0132;
},
{
glyphname = J;
layers = (
{
layerId = "F251586D-48D7-42AD-80B6-8A992ABEF986";
paths = (
{
closed = 1;
nodes = (
"356 -14 OFFCURVE",
"493 122 OFFCURVE",
"493 258 QCURVE SMOOTH",
"493 700 LINE",
"55 700 LINE",
"55 547 LINE",
"297 547 LINE",
"297 246 LINE SMOOTH",
"297 196 OFFCURVE",
"252 144 OFFCURVE",
"209 144 QCURVE SMOOTH",
"144 144 OFFCURVE",
"88 217 QCURVE",
"-20 89 LINE",
"20 39 OFFCURVE",
"146 -14 OFFCURVE",
"223 -14 QCURVE",
"223 -14 LINE"
);
}
);
userData = {
assembly = "NPUSHB[ ]	/* 44 values pushed */\0123 1 0 1 2 1 3 0 2 74 0 1 1 2 93 0 2 2 66 75 0 0 0 3 95 4 1 3 3 73 3 76 0 0 0 16 0 15 17 19 36 5 10 23 \012CALL[ ]	/* CallFunction */";
};
width = 557;
}
);
leftKerningGroup = J;
note = J;
rightKerningGroup = IJ;
unicode = 004A;
},
{
glyphname = K;
layers = (
{
layerId = "F251586D-48D7-42AD-80B6-8A992ABEF986";
paths = (
{
closed = 1;
nodes = (
"540 0 LINE",
"770 0 LINE",
"469 390 LINE",
"755 700 LINE",
"537 700 LINE",
"266 409 LINE",
"266 700 LINE",
"70 700 LINE",
"70 0 LINE",
"266 0 LINE",
"266 175 LINE",
"340 254 LINE",
"340 254 LINE"
);
}
);
userData = {
assembly = "NPUSHB[ ]	/* 28 values pushed */\0129 6 1 3 0 1 1 74 2 1 1 1 66 75 3 1 0 0 67 0 76 18 18 17 18 4 10 24 \012CALL[ ]	/* CallFunction */";
};
width = 752;
}
);
leftKerningGroup = B;
note = K;
rightKerningGroup = K;
unicode = 004B;
},
{
glyphname = L;
layers = (
{
layerId = "F251586D-48D7-42AD-80B6-8A992ABEF986";
paths = (
{
closed = 1;
nodes = (
"70 0 LINE",
"602 0 LINE",
"602 157 LINE",
"268 157 LINE",
"268 700 LINE",
"70 700 LINE",
"70 700 LINE"
);
}
);
userData = {
assembly = "NPUSHB[ ]	/* 22 values pushed */\0120 0 0 66 75 0 1 1 2 94 0 2 2 67 2 76 17 17 16 3 10 23 \012CALL[ ]	/* CallFunction */";
};
width = 610;
}
);
leftKerningGroup = B;
note = L;
rightKerningGroup = L;
unicode = 004C;
},
{
glyphname = M;
layers = (
{
layerId = "F251586D-48D7-42AD-80B6-8A992ABEF986";
paths = (
{
closed = 1;
nodes = (
"884 0 LINE",
"882 700 LINE",
"719 700 LINE",
"479 296 LINE",
"233 700 LINE",
"70 700 LINE",
"70 0 LINE",
"253 0 LINE",
"253 361 LINE",
"432 69 LINE",
"520 69 LINE",
"700 371 LINE",
"702 0 LINE",
"702 0 LINE"
);
}
);
userData = {
assembly = "NPUSHB[ ]	/* 43 values pushed */\0129 4 1 3 0 2 1 74 0 0 2 1 2 0 1 126 3 1 2 2 66 75 5 4 2 1 1 67 1 76 0 0 0 12 0 12 18 17 18 18 6 10 24 \012CALL[ ]	/* CallFunction */";
};
width = 954;
}
);
leftKerningGroup = B;
note = M;
rightKerningGroup = H;
unicode = 004D;
},
{
glyphname = N;
layers = (
{
layerId = "F251586D-48D7-42AD-80B6-8A992ABEF986";
paths = (
{
closed = 1;
nodes = (
"542 700 LINE",
"542 327 LINE",
"233 700 LINE",
"70 700 LINE",
"70 0 LINE",
"264 0 LINE",
"264 373 LINE",
"573 0 LINE",
"736 0 LINE",
"736 700 LINE",
"736 700 LINE"
);
}
);
userData = {
assembly = "NPUSHB[ ]	/* 33 values pushed */\0128 3 2 0 2 1 74 4 3 2 2 2 66 75 1 1 0 0 67 0 76 0 0 0 9 0 9 17 18 17 5 10 23 \012CALL[ ]	/* CallFunction */";
};
width = 806;
}
);
leftKerningGroup = B;
note = N;
rightKerningGroup = H;
unicode = 004E;
},
{
glyphname = Eng;
layers = (
{
layerId = "F251586D-48D7-42AD-80B6-8A992ABEF986";
paths = (
{
closed = 1;
nodes = (
"542 700 LINE",
"542 327 LINE",
"233 700 LINE",
"70 700 LINE",
"70 0 LINE",
"264 0 LINE",
"264 373 LINE",
"541 38 LINE",
"533 -45 OFFCURVE",
"455 -45 QCURVE SMOOTH",
"409 -45 OFFCURVE",
"368 -10 QCURVE",
"277 -144 LINE",
"352 -203 OFFCURVE",
"469 -203 QCURVE SMOOTH",
"602 -203 OFFCURVE",
"736 -61 OFFCURVE",
"736 86 QCURVE SMOOTH",
"736 700 LINE",
"736 700 LINE"
);
}
);
userData = {
assembly = "NPUSHB[ ]	/* 51 values pushed */\01217 12 2 2 3 7 1 1 2 6 1 0 1 3 74 5 4 2 3 3 66 75 0 2 2 67 75 0 1 1 0 96 0 0 0 77 0 76 0 0 0 18 0 18 17 19 35 35 6 10 24 \012CALL[ ]	/* CallFunction */";
};
width = 806;
}
);
leftKerningGroup = B;
note = Eng;
rightKerningGroup = H;
unicode = 014A;
},
{
glyphname = O;
layers = (
{
layerId = "F251586D-48D7-42AD-80B6-8A992ABEF986";
paths = (
{
closed = 1;
nodes = (
"534 -14 OFFCURVE",
"711 80 OFFCURVE",
"812 246 OFFCURVE",
"812 350 QCURVE SMOOTH",
"812 454 OFFCURVE",
"711 620 OFFCURVE",
"534 714 OFFCURVE",
"423 714 QCURVE SMOOTH",
"312 714 OFFCURVE",
"135 620 OFFCURVE",
"34 454 OFFCURVE",
"34 350 QCURVE SMOOTH",
"34 246 OFFCURVE",
"135 80 OFFCURVE",
"312 -14 OFFCURVE",
"423 -14 QCURVE",
"423 -14 LINE"
);
},
{
closed = 1;
nodes = (
"370 150 OFFCURVE",
"284 200 OFFCURVE",
"234 291 OFFCURVE",
"234 350 QCURVE SMOOTH",
"234 409 OFFCURVE",
"284 500 OFFCURVE",
"370 550 OFFCURVE",
"423 550 QCURVE SMOOTH",
"476 550 OFFCURVE",
"562 500 OFFCURVE",
"612 409 OFFCURVE",
"612 350 QCURVE SMOOTH",
"612 291 OFFCURVE",
"562 200 OFFCURVE",
"476 150 OFFCURVE",
"423 150 QCURVE",
"423 150 LINE"
);
}
);
userData = {
assembly = "NPUSHB[ ]	/* 41 values pushed */\0120 2 2 0 95 0 0 0 72 75 5 1 3 3 1 95 4 1 1 1 73 1 76 16 16 0 0 16 31 16 30 24 22 0 15 0 14 38 6 10 21 \012CALL[ ]	/* CallFunction */";
};
width = 846;
}
);
leftKerningGroup = C;
note = O;
rightKerningGroup = D;
unicode = 004F;
},
{
glyphname = Ohorn;
layers = (
{
layerId = "F251586D-48D7-42AD-80B6-8A992ABEF986";
paths = (
{
closed = 1;
nodes = (
"753 623 OFFCURVE",
"809 699 OFFCURVE",
"809 755 QCURVE SMOOTH",
"809 813 OFFCURVE",
"774 860 QCURVE",
"665 821 LINE",
"685 794 OFFCURVE",
"685 763 QCURVE SMOOTH",
"685 733 OFFCURVE",
"645 701 OFFCURVE",
"610 701 QCURVE SMOOTH",
"585 701 OFFCURVE",
"542 706 QCURVE SMOOTH",
"478 714 OFFCURVE",
"431 714 QCURVE SMOOTH",
"317 714 OFFCURVE",
"136 620 OFFCURVE",
"34 454 OFFCURVE",
"34 350 QCURVE SMOOTH",
"34 246 OFFCURVE",
"135 80 OFFCURVE",
"312 -14 OFFCURVE",
"423 -14 QCURVE SMOOTH",
"534 -14 OFFCURVE",
"711 80 OFFCURVE",
"812 246 OFFCURVE",
"812 350 QCURVE SMOOTH",
"812 427 OFFCURVE",
"754 558 OFFCURVE",
"703 605 QCURVE",
"703 605 LINE"
);
},
{
closed = 1;
nodes = (
"370 150 OFFCURVE",
"284 200 OFFCURVE",
"234 291 OFFCURVE",
"234 350 QCURVE SMOOTH",
"234 409 OFFCURVE",
"284 500 OFFCURVE",
"370 550 OFFCURVE",
"423 550 QCURVE SMOOTH",
"476 550 OFFCURVE",
"562 500 OFFCURVE",
"612 409 OFFCURVE",
"612 350 QCURVE SMOOTH",
"612 291 OFFCURVE",
"562 200 OFFCURVE",
"476 150 OFFCURVE",
"423 150 QCURVE",
"423 150 LINE"
);
}
);
userData = {
assembly = "MPPEM[ ]	/* MeasurePixelPerEm */\012PUSHB[ ]	/* 1 value pushed */\01219 \012LT[ ]	/* LessThan */\012IF[ ]	/* If */\012NPUSHB[ ]	/* 11 values pushed */\01229 1 3 1 1 74 24 23 2 1 72 \012ELSE[ ]	/* Else */\012NPUSHB[ ]	/* 11 values pushed */\01229 1 3 2 1 74 24 23 2 1 72 \012EIF[ ]	/* EndIf */\012MPPEM[ ]	/* MeasurePixelPerEm */\012PUSHB[ ]	/* 1 value pushed */\01219 \012LT[ ]	/* LessThan */\012IF[ ]	/* If */\012NPUSHB[ ]	/* 23 values pushed */\0120 3 3 1 95 2 1 1 1 72 75 5 1 4 4 0 95 0 0 0 73 0 76 \012ELSE[ ]	/* Else */\012NPUSHB[ ]	/* 27 values pushed */\0120 2 2 66 75 0 3 3 1 95 0 1 1 72 75 5 1 4 4 0 95 0 0 0 73 0 76 \012EIF[ ]	/* EndIf */\012NPUSHB[ ]	/* 14 values pushed */\01230 30 30 45 30 44 38 36 34 38 37 6 10 23 \012CALL[ ]	/* CallFunction */";
};
width = 846;
}
);
leftKerningGroup = C;
note = Ohorn;
rightKerningGroup = D;
unicode = 01A0;
},
{
glyphname = Oogonek;
layers = (
{
layerId = "F251586D-48D7-42AD-80B6-8A992ABEF986";
paths = (
{
closed = 1;
nodes = (
"628 28 OFFCURVE",
"745 125 OFFCURVE",
"812 265 OFFCURVE",
"812 350 QCURVE SMOOTH",
"812 454 OFFCURVE",
"711 620 OFFCURVE",
"534 714 OFFCURVE",
"423 714 QCURVE SMOOTH",
"312 714 OFFCURVE",
"135 620 OFFCURVE",
"34 454 OFFCURVE",
"34 350 QCURVE SMOOTH",
"34 257 OFFCURVE",
"117 103 OFFCURVE",
"264 3 OFFCURVE",
"359 -10 QCURVE",
"303 -57 OFFCURVE",
"303 -119 QCURVE SMOOTH",
"303 -172 OFFCURVE",
"381 -236 OFFCURVE",
"451 -236 QCURVE SMOOTH",
"480 -236 OFFCURVE",
"539 -223 OFFCURVE",
"557 -213 QCURVE",
"533 -131 LINE",
"503 -146 OFFCURVE",
"473 -146 QCURVE SMOOTH",
"447 -146 OFFCURVE",
"418 -122 OFFCURVE",
"418 -102 QCURVE SMOOTH",
"418 -38 OFFCURVE",
"553 5 QCURVE",
"553 5 LINE"
);
},
{
closed = 1;
nodes = (
"234 409 OFFCURVE",
"284 500 OFFCURVE",
"370 550 OFFCURVE",
"423 550 QCURVE SMOOTH",
"476 550 OFFCURVE",
"562 500 OFFCURVE",
"612 409 OFFCURVE",
"612 350 QCURVE SMOOTH",
"612 291 OFFCURVE",
"562 200 OFFCURVE",
"476 150 OFFCURVE",
"423 150 QCURVE SMOOTH",
"370 150 OFFCURVE",
"284 200 OFFCURVE",
"234 291 OFFCURVE",
"234 350 QCURVE",
"234 350 LINE"
);
}
);
userData = {
assembly = "NPUSHB[ ]	/* 45 values pushed */\01215 6 2 0 3 7 1 1 0 2 74 0 3 4 0 4 3 0 126 0 0 0 1 0 1 100 0 4 4 2 95 0 2 2 72 4 76 38 42 43 36 35 5 10 25 \012CALL[ ]	/* CallFunction */";
};
width = 846;
}
);
leftKerningGroup = C;
note = uni01EA;
rightKerningGroup = D;
unicode = 01EA;
},
{
glyphname = OE;
layers = (
{
layerId = "F251586D-48D7-42AD-80B6-8A992ABEF986";
paths = (
{
closed = 1;
nodes = (
"736 153 LINE",
"736 281 LINE",
"1047 281 LINE",
"1047 429 LINE",
"736 429 LINE",
"736 547 LINE",
"1089 547 LINE",
"1089 700 LINE",
"425 700 LINE SMOOTH",
"310 700 OFFCURVE",
"132 614 OFFCURVE",
"34 456 OFFCURVE",
"34 350 QCURVE SMOOTH",
"34 244 OFFCURVE",
"132 86 OFFCURVE",
"310 0 OFFCURVE",
"425 0 QCURVE SMOOTH",
"1102 0 LINE",
"1102 153 LINE",
"1102 153 LINE"
);
},
{
closed = 1;
nodes = (
"433 158 LINE SMOOTH",
"343 158 OFFCURVE",
"234 260 OFFCURVE",
"234 350 QCURVE SMOOTH",
"234 440 OFFCURVE",
"343 542 OFFCURVE",
"433 542 QCURVE SMOOTH",
"541 542 LINE",
"541 158 LINE",
"541 158 LINE"
);
}
);
userData = {
assembly = "MPPEM[ ]	/* MeasurePixelPerEm */\012PUSHB[ ]	/* 1 value pushed */\01247 \012LT[ ]	/* LessThan */\012IF[ ]	/* If */\012NPUSHB[ ]	/* 33 values pushed */\0120 3 0 4 5 3 4 101 6 1 2 2 1 93 0 1 1 66 75 9 7 8 3 5 5 0 93 0 0 0 67 0 76 \012ELSE[ ]	/* Else */\012NPUSHB[ ]	/* 45 values pushed */\0120 6 2 3 2 6 112 9 1 7 4 5 5 7 112 0 3 0 4 7 3 4 101 0 2 2 1 93 0 1 1 66 75 8 1 5 5 0 94 0 0 0 67 0 76 \012EIF[ ]	/* EndIf */\012NPUSHB[ ]	/* 22 values pushed */\01219 19 0 0 19 27 19 26 22 20 0 18 0 18 17 17 17 38 33 10 10 25 \012CALL[ ]	/* CallFunction */";
};
width = 1142;
}
);
leftKerningGroup = C;
note = OE;
rightKerningGroup = AE;
unicode = 0152;
},
{
glyphname = P;
layers = (
{
layerId = "F251586D-48D7-42AD-80B6-8A992ABEF986";
paths = (
{
closed = 1;
nodes = (
"70 700 LINE",
"70 0 LINE",
"268 0 LINE",
"268 183 LINE",
"390 183 LINE SMOOTH",
"485 183 OFFCURVE",
"625 246 OFFCURVE",
"701 362 OFFCURVE",
"701 441 QCURVE SMOOTH",
"701 520 OFFCURVE",
"625 637 OFFCURVE",
"485 700 OFFCURVE",
"390 700 QCURVE",
"390 700 LINE"
);
},
{
closed = 1;
nodes = (
"268 339 LINE",
"268 544 LINE",
"378 544 LINE SMOOTH",
"439 544 OFFCURVE",
"501 490 OFFCURVE",
"501 441 QCURVE SMOOTH",
"501 392 OFFCURVE",
"439 339 OFFCURVE",
"378 339 QCURVE",
"378 339 LINE"
);
}
);
userData = {
assembly = "NPUSHB[ ]	/* 45 values pushed */\0126 1 4 0 0 1 4 0 101 0 3 3 2 93 5 1 2 2 66 75 0 1 1 67 1 76 13 13 0 0 13 21 13 20 19 17 0 12 0 11 17 38 7 10 22 \012CALL[ ]	/* CallFunction */";
};
width = 737;
}
);
leftKerningGroup = B;
note = P;
rightKerningGroup = P;
unicode = 0050;
},
{
glyphname = Thorn;
layers = (
{
layerId = "F251586D-48D7-42AD-80B6-8A992ABEF986";
paths = (
{
closed = 1;
nodes = (
"268 628 LINE",
"268 701 LINE",
"70 701 LINE",
"70 0 LINE",
"268 0 LINE",
"268 110 LINE",
"390 110 LINE SMOOTH",
"485 110 OFFCURVE",
"625 173 OFFCURVE",
"701 290 OFFCURVE",
"701 369 QCURVE SMOOTH",
"701 448 OFFCURVE",
"625 565 OFFCURVE",
"485 628 OFFCURVE",
"390 628 QCURVE",
"390 628 LINE"
);
},
{
closed = 1;
nodes = (
"268 267 LINE",
"268 471 LINE",
"378 471 LINE SMOOTH",
"439 471 OFFCURVE",
"501 418 OFFCURVE",
"501 369 QCURVE SMOOTH",
"501 320 OFFCURVE",
"439 267 OFFCURVE",
"378 267 QCURVE",
"378 267 LINE"
);
}
);
userData = {
assembly = "NPUSHB[ ]	/* 49 values pushed */\0126 1 3 0 4 5 3 4 101 7 1 5 0 0 1 5 0 101 0 2 2 66 75 0 1 1 67 1 76 15 15 0 0 15 23 15 22 21 19 0 14 0 13 17 17 38 8 10 23 \012CALL[ ]	/* CallFunction */";
};
width = 737;
}
);
leftKerningGroup = B;
note = Thorn;
rightKerningGroup = Thorn;
unicode = 00DE;
},
{
glyphname = Q;
layers = (
{
layerId = "F251586D-48D7-42AD-80B6-8A992ABEF986";
paths = (
{
closed = 1;
nodes = (
"762 21 LINE",
"715 -28 OFFCURVE",
"656 -28 QCURVE SMOOTH",
"633 -28 OFFCURVE",
"594 -10 OFFCURVE",
"574 12 QCURVE",
"683 51 OFFCURVE",
"812 232 OFFCURVE",
"812 350 QCURVE SMOOTH",
"812 454 OFFCURVE",
"711 620 OFFCURVE",
"534 714 OFFCURVE",
"423 714 QCURVE SMOOTH",
"312 714 OFFCURVE",
"135 620 OFFCURVE",
"34 454 OFFCURVE",
"34 350 QCURVE SMOOTH",
"34 259 OFFCURVE",
"113 107 OFFCURVE",
"255 7 OFFCURVE",
"346 -8 QCURVE",
"405 -70 OFFCURVE",
"500 -139 OFFCURVE",
"594 -169 OFFCURVE",
"652 -169 QCURVE SMOOTH",
"712 -169 OFFCURVE",
"813 -124 OFFCURVE",
"848 -81 QCURVE",
"848 -81 LINE"
);
},
{
closed = 1;
nodes = (
"234 409 OFFCURVE",
"284 500 OFFCURVE",
"370 550 OFFCURVE",
"423 550 QCURVE SMOOTH",
"476 550 OFFCURVE",
"562 500 OFFCURVE",
"612 409 OFFCURVE",
"612 350 QCURVE SMOOTH",
"612 291 OFFCURVE",
"562 200 OFFCURVE",
"476 150 OFFCURVE",
"423 150 QCURVE SMOOTH",
"370 150 OFFCURVE",
"284 200 OFFCURVE",
"234 291 OFFCURVE",
"234 350 QCURVE",
"234 350 LINE"
);
}
);
userData = {
assembly = "NPUSHB[ ]	/* 41 values pushed */\01227 22 2 2 3 1 74 0 3 4 2 4 3 2 126 0 2 0 0 2 0 99 0 4 4 1 95 0 1 1 72 4 76 38 36 40 42 34 5 10 25 \012CALL[ ]	/* CallFunction */";
};
width = 846;
}
);
leftKerningGroup = C;
note = Q;
rightKerningGroup = D;
unicode = 0051;
},
{
glyphname = R;
layers = (
{
layerId = "F251586D-48D7-42AD-80B6-8A992ABEF986";
paths = (
{
closed = 1;
nodes = (
"503 0 LINE",
"715 0 LINE",
"564 220 LINE",
"630 252 OFFCURVE",
"701 365 OFFCURVE",
"701 441 QCURVE SMOOTH",
"701 520 OFFCURVE",
"625 637 OFFCURVE",
"485 700 OFFCURVE",
"390 700 QCURVE SMOOTH",
"70 700 LINE",
"70 0 LINE",
"268 0 LINE",
"268 186 LINE",
"376 186 LINE",
"376 186 LINE"
);
},
{
closed = 1;
nodes = (
"501 392 OFFCURVE",
"439 339 OFFCURVE",
"378 339 QCURVE SMOOTH",
"268 339 LINE",
"268 544 LINE",
"378 544 LINE SMOOTH",
"439 544 OFFCURVE",
"501 490 OFFCURVE",
"501 441 QCURVE",
"501 441 LINE"
);
}
);
userData = {
assembly = "NPUSHB[ ]	/* 40 values pushed */\01212 1 0 5 1 74 0 5 0 0 1 5 0 101 0 4 4 2 93 0 2 2 66 75 3 1 1 1 67 1 76 33 34 23 33 17 16 6 10 26 \012CALL[ ]	/* CallFunction */";
};
width = 740;
}
);
leftKerningGroup = B;
note = R;
rightKerningGroup = R;
unicode = 0052;
},
{
glyphname = S;
layers = (
{
layerId = "F251586D-48D7-42AD-80B6-8A992ABEF986";
paths = (
{
closed = 1;
nodes = (
"416 -14 OFFCURVE",
"556 47 OFFCURVE",
"626 149 OFFCURVE",
"626 212 QCURVE SMOOTH",
"626 285 OFFCURVE",
"549 370 OFFCURVE",
"444 409 OFFCURVE",
"364 426 QCURVE SMOOTH",
"293 441 OFFCURVE",
"229 469 OFFCURVE",
"229 497 QCURVE SMOOTH",
"229 525 OFFCURVE",
"283 560 OFFCURVE",
"342 560 QCURVE SMOOTH",
"436 560 OFFCURVE",
"536 506 QCURVE",
"597 653 LINE",
"546 683 OFFCURVE",
"412 714 OFFCURVE",
"343 714 QCURVE SMOOTH",
"242 714 OFFCURVE",
"103 654 OFFCURVE",
"33 551 OFFCURVE",
"33 487 QCURVE SMOOTH",
"33 414 OFFCURVE",
"109 328 OFFCURVE",
"215 289 OFFCURVE",
"294 272 QCURVE SMOOTH",
"366 256 OFFCURVE",
"431 227 OFFCURVE",
"431 197 QCURVE SMOOTH",
"431 140 OFFCURVE",
"317 140 QCURVE SMOOTH",
"257 140 OFFCURVE",
"133 178 OFFCURVE",
"86 209 QCURVE",
"21 63 LINE",
"71 28 OFFCURVE",
"231 -14 OFFCURVE",
"316 -14 QCURVE",
"316 -14 LINE"
);
}
);
userData = {
assembly = "NPUSHB[ ]	/* 49 values pushed */\01222 1 2 1 23 3 2 0 2 2 1 3 0 3 74 0 2 2 1 95 0 1 1 72 75 0 0 0 3 95 4 1 3 3 73 3 76 0 0 0 39 0 38 36 43 37 5 10 23 \012CALL[ ]	/* CallFunction */";
};
width = 647;
}
);
leftKerningGroup = S;
note = S;
rightKerningGroup = S;
unicode = 0053;
},
{
glyphname = Saltillo;
layers = (
{
layerId = "F251586D-48D7-42AD-80B6-8A992ABEF986";
paths = (
{
closed = 1;
nodes = (
"62 296 LINE",
"232 296 LINE",
"257 701 LINE",
"62 701 LINE",
"62 701 LINE"
);
}
);
userData = {
assembly = "NPUSHB[ ]	/* 16 values pushed */\0120 1 1 0 93 0 0 0 66 1 76 17 16 2 10 22 \012CALL[ ]	/* CallFunction */";
};
width = 319;
}
);
note = uniA78B;
unicode = A78B;
},
{
glyphname = Germandbls;
layers = (
{
layerId = "F251586D-48D7-42AD-80B6-8A992ABEF986";
paths = (
{
closed = 1;
nodes = (
"684 532 LINE",
"684 648 LINE",
"637 679 OFFCURVE",
"494 714 OFFCURVE",
"425 714 QCURVE SMOOTH",
"311 714 OFFCURVE",
"149 635 OFFCURVE",
"64 487 OFFCURVE",
"64 386 QCURVE SMOOTH",
"64 0 LINE",
"262 0 LINE",
"262 381 LINE SMOOTH",
"262 467 OFFCURVE",
"347 560 OFFCURVE",
"428 560 QCURVE SMOOTH",
"472 560 OFFCURVE",
"514 549 QCURVE",
"355 365 LINE",
"389 283 LINE",
"421 293 OFFCURVE",
"457 293 QCURVE SMOOTH",
"505 293 OFFCURVE",
"555 254 OFFCURVE",
"555 217 QCURVE SMOOTH",
"555 179 OFFCURVE",
"505 140 OFFCURVE",
"456 140 QCURVE SMOOTH",
"432 140 OFFCURVE",
"381 151 OFFCURVE",
"362 161 QCURVE",
"334 10 LINE",
"396 -14 OFFCURVE",
"488 -14 QCURVE SMOOTH",
"563 -14 OFFCURVE",
"685 39 OFFCURVE",
"756 140 OFFCURVE",
"756 209 QCURVE SMOOTH",
"756 288 OFFCURVE",
"662 398 OFFCURVE",
"586 419 QCURVE",
"586 419 LINE"
);
}
);
userData = {
assembly = "MPPEM[ ]	/* MeasurePixelPerEm */\012PUSHB[ ]	/* 1 value pushed */\01218 \012LT[ ]	/* LessThan */\012IF[ ]	/* If */\012NPUSHB[ ]	/* 22 values pushed */\01237 1 3 5 39 38 22 21 4 2 3 20 9 2 1 2 8 1 0 1 4 74 \012ELSE[ ]	/* Else */\012NPUSHB[ ]	/* 22 values pushed */\01237 1 3 5 39 38 22 21 4 2 3 20 9 2 1 2 8 1 4 1 4 74 \012EIF[ ]	/* EndIf */\012MPPEM[ ]	/* MeasurePixelPerEm */\012PUSHB[ ]	/* 1 value pushed */\01218 \012LT[ ]	/* LessThan */\012IF[ ]	/* If */\012NPUSHB[ ]	/* 30 values pushed */\0120 2 3 1 3 2 1 126 0 3 3 5 95 0 5 5 72 75 0 1 1 0 95 4 1 0 0 73 0 76 \012ELSE[ ]	/* Else */\012NPUSHB[ ]	/* 34 values pushed */\0120 2 3 1 3 2 1 126 0 3 3 5 95 0 5 5 72 75 0 4 4 67 75 0 1 1 0 95 0 0 0 73 0 76 \012EIF[ ]	/* EndIf */\012NPUSHB[ ]	/* 9 values pushed */\01236 19 36 36 36 37 6 10 26 \012CALL[ ]	/* CallFunction */";
};
width = 788;
}
);
leftKerningGroup = Germandbls;
note = uni1E9E;
rightKerningGroup = B;
unicode = 1E9E;
},
{
glyphname = Schwa;
layers = (
{
layerId = "F251586D-48D7-42AD-80B6-8A992ABEF986";
paths = (
{
closed = 1;
nodes = (
"303 714 OFFCURVE",
"135 646 OFFCURVE",
"84 592 QCURVE",
"201 468 LINE",
"235 506 OFFCURVE",
"342 550 OFFCURVE",
"392 550 QCURVE SMOOTH",
"466 550 OFFCURVE",
"570 464 OFFCURVE",
"581 394 QCURVE",
"34 394 LINE",
"34 358 LINE SMOOTH",
"34 249 OFFCURVE",
"129 79 OFFCURVE",
"300 -14 OFFCURVE",
"409 -14 QCURVE SMOOTH",
"516 -14 OFFCURVE",
"686 79 OFFCURVE",
"783 245 OFFCURVE",
"783 350 QCURVE SMOOTH",
"783 455 OFFCURVE",
"684 621 OFFCURVE",
"507 714 OFFCURVE",
"394 714 QCURVE",
"394 714 LINE"
);
},
{
closed = 1;
nodes = (
"339 136 OFFCURVE",
"250 210 OFFCURVE",
"238 275 QCURVE",
"580 275 LINE",
"569 210 OFFCURVE",
"479 136 OFFCURVE",
"409 136 QCURVE",
"409 136 LINE"
);
}
);
userData = {
assembly = "NPUSHB[ ]	/* 61 values pushed */\01220 1 2 3 19 1 1 2 2 74 0 1 0 4 5 1 4 101 0 2 2 3 95 6 1 3 3 72 75 7 1 5 5 0 95 0 0 0 73 0 76 24 24 0 0 24 30 24 29 27 26 0 23 0 22 34 20 38 8 10 23 \012CALL[ ]	/* CallFunction */";
};
width = 818;
}
);
leftKerningGroup = C;
note = uni018F;
rightKerningGroup = D;
unicode = 018F;
},
{
glyphname = T;
layers = (
{
layerId = "F251586D-48D7-42AD-80B6-8A992ABEF986";
paths = (
{
closed = 1;
nodes = (
"219 0 LINE",
"417 0 LINE",
"417 543 LINE",
"631 543 LINE",
"631 700 LINE",
"4 700 LINE",
"4 543 LINE",
"219 543 LINE",
"219 543 LINE"
);
}
);
userData = {
assembly = "NPUSHB[ ]	/* 24 values pushed */\0122 1 0 0 1 93 0 1 1 66 75 0 3 3 67 3 76 17 17 17 16 4 10 24 \012CALL[ ]	/* CallFunction */";
};
width = 635;
}
);
leftKerningGroup = T;
note = T;
rightKerningGroup = T;
unicode = 0054;
},
{
glyphname = U;
layers = (
{
layerId = "F251586D-48D7-42AD-80B6-8A992ABEF986";
paths = (
{
closed = 1;
nodes = (
"549 -14 OFFCURVE",
"722 156 OFFCURVE",
"722 312 QCURVE SMOOTH",
"722 700 LINE",
"527 700 LINE",
"527 318 LINE SMOOTH",
"527 150 OFFCURVE",
"395 150 QCURVE SMOOTH",
"262 150 OFFCURVE",
"262 318 QCURVE SMOOTH",
"262 700 LINE",
"64 700 LINE",
"64 312 LINE SMOOTH",
"64 156 OFFCURVE",
"237 -14 OFFCURVE",
"393 -14 QCURVE",
"393 -14 LINE"
);
}
);
userData = {
assembly = "NPUSHB[ ]	/* 30 values pushed */\0122 1 0 0 66 75 0 1 1 3 96 4 1 3 3 73 3 76 0 0 0 15 0 14 18 34 19 5 10 23 \012CALL[ ]	/* CallFunction */";
};
width = 786;
}
);
leftKerningGroup = U;
note = U;
rightKerningGroup = IJ;
unicode = 0055;
},
{
glyphname = Uogonek;
layers = (
{
layerId = "F251586D-48D7-42AD-80B6-8A992ABEF986";
paths = (
{
closed = 1;
nodes = (
"527 700 LINE",
"527 318 LINE SMOOTH",
"527 150 OFFCURVE",
"395 150 QCURVE SMOOTH",
"262 150 OFFCURVE",
"262 318 QCURVE SMOOTH",
"262 700 LINE",
"64 700 LINE",
"64 312 LINE SMOOTH",
"64 172 OFFCURVE",
"205 5 OFFCURVE",
"333 -10 QCURVE",
"278 -57 OFFCURVE",
"278 -119 QCURVE SMOOTH",
"278 -172 OFFCURVE",
"356 -236 OFFCURVE",
"426 -236 QCURVE SMOOTH",
"455 -236 OFFCURVE",
"514 -223 OFFCURVE",
"532 -213 QCURVE",
"507 -131 LINE",
"479 -146 OFFCURVE",
"448 -146 QCURVE SMOOTH",
"421 -146 OFFCURVE",
"393 -122 OFFCURVE",
"393 -102 QCURVE SMOOTH",
"393 -75 OFFCURVE",
"455 -22 OFFCURVE",
"532 7 QCURVE SMOOTH",
"622 42 OFFCURVE",
"722 192 OFFCURVE",
"722 312 QCURVE SMOOTH",
"722 700 LINE",
"722 700 LINE"
);
}
);
userData = {
assembly = "NPUSHB[ ]	/* 47 values pushed */\01221 12 2 0 3 13 1 1 0 2 74 0 3 2 0 2 3 0 126 0 0 0 1 0 1 100 5 4 2 2 2 66 2 76 0 0 0 32 0 32 34 24 36 41 6 10 24 \012CALL[ ]	/* CallFunction */";
};
width = 786;
}
);
leftKerningGroup = U;
note = Uogonek;
rightKerningGroup = IJ;
unicode = 0172;
},
{
glyphname = V;
layers = (
{
layerId = "F251586D-48D7-42AD-80B6-8A992ABEF986";
paths = (
{
closed = 1;
nodes = (
"584 700 LINE",
"390 244 LINE",
"200 700 LINE",
"-14 700 LINE",
"285 0 LINE",
"480 0 LINE",
"780 700 LINE",
"780 700 LINE"
);
}
);
userData = {
assembly = "NPUSHB[ ]	/* 30 values pushed */\0125 1 0 1 1 74 3 2 2 1 1 66 75 0 0 0 67 0 76 0 0 0 6 0 6 17 17 4 10 22 \012CALL[ ]	/* CallFunction */";
};
width = 766;
}
);
leftKerningGroup = V;
note = V;
rightKerningGroup = V;
unicode = 0056;
},
{
glyphname = W;
layers = (
{
layerId = "F251586D-48D7-42AD-80B6-8A992ABEF986";
paths = (
{
closed = 1;
nodes = (
"979 700 LINE",
"832 249 LINE",
"691 700 LINE",
"509 700 LINE",
"361 253 LINE",
"220 700 LINE",
"16 700 LINE",
"243 0 LINE",
"455 0 LINE",
"595 426 LINE",
"729 0 LINE",
"941 0 LINE",
"1168 700 LINE",
"1168 700 LINE"
);
}
);
userData = {
assembly = "NPUSHB[ ]	/* 36 values pushed */\01211 8 3 3 0 2 1 74 5 4 3 3 2 2 66 75 1 1 0 0 67 0 76 0 0 0 12 0 12 18 17 18 17 6 10 24 \012CALL[ ]	/* CallFunction */";
};
width = 1184;
}
);
leftKerningGroup = V;
note = W;
rightKerningGroup = V;
unicode = 0057;
},
{
glyphname = X;
layers = (
{
layerId = "F251586D-48D7-42AD-80B6-8A992ABEF986";
paths = (
{
closed = 1;
nodes = (
"740 0 LINE",
"480 362 LINE",
"724 700 LINE",
"510 700 LINE",
"372 498 LINE",
"232 700 LINE",
"9 700 LINE",
"253 354 LINE",
"-2 0 LINE",
"224 0 LINE",
"367 217 LINE",
"512 0 LINE",
"512 0 LINE"
);
}
);
userData = {
assembly = "NPUSHB[ ]	/* 35 values pushed */\01210 7 4 1 4 0 1 1 74 2 1 1 1 66 75 4 3 2 0 0 67 0 76 0 0 0 11 0 11 18 18 18 5 10 23 \012CALL[ ]	/* CallFunction */";
};
width = 737;
}
);
leftKerningGroup = X;
note = X;
rightKerningGroup = X;
unicode = 0058;
},
{
glyphname = Y;
layers = (
{
layerId = "F251586D-48D7-42AD-80B6-8A992ABEF986";
paths = (
{
closed = 1;
nodes = (
"713 700 LINE",
"521 700 LINE",
"355 422 LINE",
"189 700 LINE",
"-20 700 LINE",
"247 254 LINE",
"247 0 LINE",
"445 0 LINE",
"445 251 LINE",
"445 251 LINE"
);
}
);
userData = {
assembly = "NPUSHB[ ]	/* 26 values pushed */\0126 3 0 3 0 1 1 74 2 1 1 1 66 75 0 0 0 67 0 76 18 18 17 3 10 23 \012CALL[ ]	/* CallFunction */";
};
width = 693;
}
);
leftKerningGroup = Y;
note = Y;
rightKerningGroup = Y;
unicode = 0059;
},
{
glyphname = Z;
layers = (
{
layerId = "F251586D-48D7-42AD-80B6-8A992ABEF986";
paths = (
{
closed = 1;
nodes = (
"294 157 LINE",
"647 576 LINE",
"647 700 LINE",
"44 700 LINE",
"44 543 LINE",
"388 543 LINE",
"35 124 LINE",
"35 0 LINE",
"662 0 LINE",
"662 157 LINE",
"662 157 LINE"
);
}
);
userData = {
assembly = "NPUSHB[ ]	/* 44 values pushed */\0128 1 1 2 3 1 0 3 2 74 0 1 1 2 93 0 2 2 66 75 4 1 3 3 0 93 0 0 0 67 0 76 0 0 0 9 0 9 17 18 17 5 10 23 \012CALL[ ]	/* CallFunction */";
};
width = 679;
}
);
leftKerningGroup = Z;
note = Z;
rightKerningGroup = DZcaron;
unicode = 005A;
},
{
glyphname = Iacute_J.loclNLD;
layers = (
{
layerId = "F251586D-48D7-42AD-80B6-8A992ABEF986";
paths = (
{
closed = 1;
nodes = (
"74 757 LINE",
"203 757 LINE",
"392 909 LINE",
"207 909 LINE",
"207 909 LINE"
);
},
{
closed = 1;
nodes = (
"473 757 LINE",
"602 757 LINE",
"791 909 LINE",
"606 909 LINE",
"606 909 LINE"
);
},
{
closed = 1;
nodes = (
"429 -9 OFFCURVE",
"580 69 OFFCURVE",
"662 219 OFFCURVE",
"662 325 QCURVE SMOOTH",
"662 700 LINE",
"464 700 LINE",
"464 314 LINE SMOOTH",
"464 231 OFFCURVE",
"393 152 OFFCURVE",
"319 152 QCURVE SMOOTH",
"272 152 OFFCURVE",
"166 185 OFFCURVE",
"119 216 QCURVE",
"47 73 LINE",
"100 35 OFFCURVE",
"245 -9 OFFCURVE",
"328 -9 QCURVE",
"328 -9 LINE"
);
},
{
closed = 1;
nodes = (
"64 329 LINE",
"262 329 LINE",
"262 700 LINE",
"64 700 LINE",
"64 700 LINE"
);
}
);
userData = {
assembly = "NPUSHB[ ]	/* 64 values pushed */\01211 1 4 8 10 1 6 4 2 74 2 1 0 1 0 131 3 1 1 5 1 131 0 8 8 5 93 7 1 5 5 66 75 0 4 4 6 95 9 1 6 6 76 6 76 8 8 28 27 26 25 8 24 8 23 19 38 17 17 17 16 10 10 26 \012CALL[ ]	/* CallFunction */";
};
width = 727;
}
);
leftKerningGroup = B;
note = Iacute_J.loclNLD;
rightKerningGroup = IJ;
},
{
glyphname = A.ss01;
layers = (
{
layerId = "F251586D-48D7-42AD-80B6-8A992ABEF986";
paths = (
{
closed = 1;
nodes = (
"298 714 OFFCURVE",
"147 635 OFFCURVE",
"64 484 OFFCURVE",
"64 378 QCURVE SMOOTH",
"64 0 LINE",
"259 0 LINE",
"259 155 LINE",
"532 155 LINE",
"532 0 LINE",
"730 0 LINE",
"730 378 LINE SMOOTH",
"730 484 OFFCURVE",
"647 635 OFFCURVE",
"496 714 OFFCURVE",
"397 714 QCURVE",
"397 714 LINE"
);
},
{
closed = 1;
nodes = (
"259 308 LINE",
"259 395 LINE SMOOTH",
"259 472 OFFCURVE",
"333 550 OFFCURVE",
"396 550 QCURVE SMOOTH",
"458 550 OFFCURVE",
"532 472 OFFCURVE",
"532 395 QCURVE SMOOTH",
"532 308 LINE",
"532 308 LINE"
);
}
);
userData = {
assembly = "NPUSHB[ ]	/* 47 values pushed */\0127 1 5 0 1 0 5 1 101 0 4 4 3 95 6 1 3 3 37 75 2 1 0 0 33 0 76 15 15 0 0 15 23 15 23 20 18 0 14 0 13 17 17 20 8 7 23 \012CALL[ ]	/* CallFunction */";
};
width = 794;
}
);
leftKerningGroup = A.ss01;
note = A.ss01;
rightKerningGroup = A.ss01;
},
{
glyphname = AE.ss01;
layers = (
{
layerId = "F251586D-48D7-42AD-80B6-8A992ABEF986";
paths = (
{
closed = 1;
nodes = (
"690 153 LINE",
"690 282 LINE",
"1002 282 LINE",
"1002 428 LINE",
"690 428 LINE",
"690 547 LINE",
"1043 547 LINE",
"1043 700 LINE",
"385 700 LINE SMOOTH",
"227 700 OFFCURVE",
"58 535 OFFCURVE",
"58 381 QCURVE SMOOTH",
"58 0 LINE",
"257 0 LINE",
"257 163 LINE",
"495 163 LINE",
"495 0 LINE",
"1057 0 LINE",
"1057 153 LINE",
"1057 153 LINE"
);
},
{
closed = 1;
nodes = (
"257 315 LINE",
"257 376 LINE SMOOTH",
"257 459 OFFCURVE",
"327 536 OFFCURVE",
"403 536 QCURVE SMOOTH",
"495 536 LINE",
"495 315 LINE",
"495 315 LINE"
);
}
);
userData = {
assembly = "MPPEM[ ]	/* MeasurePixelPerEm */\012PUSHB[ ]	/* 1 value pushed */\01221 \012LT[ ]	/* LessThan */\012IF[ ]	/* If */\012NPUSHB[ ]	/* 41 values pushed */\0120 5 0 6 1 5 6 101 11 1 9 0 1 7 9 1 101 8 1 4 4 3 93 0 3 3 32 75 10 1 7 7 0 93 2 1 0 0 33 0 76 \012ELSE[ ]	/* Else */\012NPUSHB[ ]	/* 47 values pushed */\0120 8 4 5 4 8 112 0 5 0 6 1 5 6 101 11 1 9 0 1 7 9 1 101 0 4 4 3 93 0 3 3 32 75 10 1 7 7 0 93 2 1 0 0 33 0 76 \012EIF[ ]	/* EndIf */\012NPUSHB[ ]	/* 24 values pushed */\01219 19 0 0 19 25 19 25 22 20 0 18 0 18 17 17 17 35 17 17 17 12 7 27 \012CALL[ ]	/* CallFunction */";
};
width = 1092;
}
);
leftKerningGroup = A;
note = AE.ss01;
rightKerningGroup = AE;
},
{
glyphname = E.ss01;
layers = (
{
layerId = "F251586D-48D7-42AD-80B6-8A992ABEF986";
paths = (
{
closed = 1;
nodes = (
"612 199 LINE",
"567 172 OFFCURVE",
"446 141 OFFCURVE",
"389 141 QCURVE SMOOTH",
"309 141 OFFCURVE",
"233 179 OFFCURVE",
"233 213 QCURVE SMOOTH",
"233 245 OFFCURVE",
"285 278 OFFCURVE",
"336 278 QCURVE SMOOTH",
"547 278 LINE",
"547 429 LINE",
"349 429 LINE SMOOTH",
"262 429 OFFCURVE",
"262 489 QCURVE SMOOTH",
"262 522 OFFCURVE",
"332 559 OFFCURVE",
"403 559 QCURVE SMOOTH",
"502 559 OFFCURVE",
"595 518 QCURVE",
"649 666 LINE",
"598 688 OFFCURVE",
"464 714 OFFCURVE",
"395 714 QCURVE SMOOTH",
"285 714 OFFCURVE",
"135 656 OFFCURVE",
"62 560 OFFCURVE",
"62 502 QCURVE SMOOTH",
"62 457 OFFCURVE",
"105 382 OFFCURVE",
"146 361 QCURVE",
"93 338 OFFCURVE",
"33 254 OFFCURVE",
"33 199 QCURVE SMOOTH",
"33 136 OFFCURVE",
"112 40 OFFCURVE",
"269 -14 OFFCURVE",
"381 -14 QCURVE SMOOTH",
"464 -14 OFFCURVE",
"618 22 OFFCURVE",
"672 53 QCURVE",
"672 53 LINE"
);
}
);
userData = {
assembly = "NPUSHB[ ]	/* 56 values pushed */\01220 1 2 1 21 1 3 2 10 1 4 3 40 1 5 4 4 74 0 3 0 4 5 3 4 101 0 2 2 1 95 0 1 1 37 75 0 5 5 0 95 0 0 0 38 0 76 36 33 35 36 44 34 6 7 26 \012CALL[ ]	/* CallFunction */";
};
width = 681;
}
);
leftKerningGroup = E.ss01;
note = E.ss01;
rightKerningGroup = E.ss01;
},
{
glyphname = Eogonek.ss01;
layers = (
{
layerId = "F251586D-48D7-42AD-80B6-8A992ABEF986";
paths = (
{
closed = 1;
nodes = (
"543 -146 OFFCURVE",
"515 -121 OFFCURVE",
"515 -99 QCURVE SMOOTH",
"515 -67 OFFCURVE",
"591 12 OFFCURVE",
"672 53 QCURVE",
"612 199 LINE",
"567 172 OFFCURVE",
"446 141 OFFCURVE",
"389 141 QCURVE SMOOTH",
"309 141 OFFCURVE",
"233 179 OFFCURVE",
"233 213 QCURVE SMOOTH",
"233 245 OFFCURVE",
"285 278 OFFCURVE",
"336 278 QCURVE SMOOTH",
"547 278 LINE",
"547 429 LINE",
"349 429 LINE SMOOTH",
"262 429 OFFCURVE",
"262 489 QCURVE SMOOTH",
"262 522 OFFCURVE",
"332 559 OFFCURVE",
"403 559 QCURVE SMOOTH",
"502 559 OFFCURVE",
"595 518 QCURVE",
"649 666 LINE",
"598 688 OFFCURVE",
"464 714 OFFCURVE",
"395 714 QCURVE SMOOTH",
"285 714 OFFCURVE",
"135 656 OFFCURVE",
"62 560 OFFCURVE",
"62 502 QCURVE SMOOTH",
"62 457 OFFCURVE",
"105 382 OFFCURVE",
"146 361 QCURVE",
"93 338 OFFCURVE",
"33 254 OFFCURVE",
"33 199 QCURVE SMOOTH",
"33 136 OFFCURVE",
"112 40 OFFCURVE",
"269 -14 OFFCURVE",
"381 -14 QCURVE SMOOTH",
"404 -14 OFFCURVE",
"450 -10 QCURVE",
"400 -57 OFFCURVE",
"400 -119 QCURVE SMOOTH",
"400 -172 OFFCURVE",
"479 -236 OFFCURVE",
"548 -236 QCURVE SMOOTH",
"577 -236 OFFCURVE",
"636 -223 OFFCURVE",
"655 -213 QCURVE",
"630 -131 LINE",
"602 -146 OFFCURVE",
"570 -146 QCURVE",
"570 -146 LINE"
);
}
);
userData = {
assembly = "NPUSHB[ ]	/* 84 values pushed */\01229 1 3 2 30 1 4 3 19 1 5 4 49 1 6 5 50 10 2 1 6 1 1 7 1 2 1 0 7 7 74 0 4 0 5 6 4 5 101 8 1 7 0 0 7 0 99 0 3 3 2 95 0 2 2 37 75 0 6 6 1 95 0 1 1 38 1 76 0 0 0 56 0 55 36 33 35 36 44 37 36 9 7 27 \012CALL[ ]	/* CallFunction */";
};
width = 681;
}
);
leftKerningGroup = E.ss01;
note = Eogonek.ss01;
rightKerningGroup = E.ss01;
},
{
glyphname = F.ss01;
layers = (
{
layerId = "F251586D-48D7-42AD-80B6-8A992ABEF986";
paths = (
{
closed = 1;
nodes = (
"493 550 OFFCURVE",
"551 516 QCURVE",
"609 668 LINE",
"571 690 OFFCURVE",
"464 714 OFFCURVE",
"403 714 QCURVE SMOOTH",
"242 714 OFFCURVE",
"64 557 OFFCURVE",
"64 414 QCURVE SMOOTH",
"64 0 LINE",
"262 0 LINE",
"262 240 LINE",
"531 240 LINE",
"531 393 LINE",
"262 393 LINE",
"262 417 LINE SMOOTH",
"262 484 OFFCURVE",
"342 550 OFFCURVE",
"418 550 QCURVE",
"418 550 LINE"
);
}
);
userData = {
assembly = "NPUSHB[ ]	/* 48 values pushed */\01215 1 4 3 16 1 0 4 2 74 0 0 0 1 2 0 1 101 5 1 4 4 3 95 0 3 3 37 75 0 2 2 33 2 76 0 0 0 18 0 17 35 17 17 19 6 7 24 \012CALL[ ]	/* CallFunction */";
};
width = 620;
}
);
leftKerningGroup = A.ss01;
note = F.ss01;
rightKerningGroup = F.ss01;
},
{
glyphname = G.ss01;
layers = (
{
layerId = "F251586D-48D7-42AD-80B6-8A992ABEF986";
paths = (
{
closed = 1;
nodes = (
"539 186 LINE",
"489 146 OFFCURVE",
"414 146 QCURVE SMOOTH",
"336 146 OFFCURVE",
"234 248 OFFCURVE",
"234 344 QCURVE SMOOTH",
"234 439 OFFCURVE",
"343 550 OFFCURVE",
"434 550 QCURVE SMOOTH",
"533 550 OFFCURVE",
"604 472 QCURVE",
"730 586 LINE",
"678 648 OFFCURVE",
"522 714 OFFCURVE",
"424 714 QCURVE SMOOTH",
"312 714 OFFCURVE",
"134 620 OFFCURVE",
"34 451 OFFCURVE",
"34 343 QCURVE SMOOTH",
"34 231 OFFCURVE",
"129 70 OFFCURVE",
"291 -14 OFFCURVE",
"389 -14 QCURVE SMOOTH",
"506 -14 OFFCURVE",
"577 43 QCURVE",
"577 0 LINE",
"714 0 LINE",
"714 365 LINE",
"539 365 LINE",
"539 365 LINE"
);
}
);
userData = {
assembly = "NPUSHB[ ]	/* 18 values pushed */\01217 1 4 3 18 1 0 4 28 1 5 0 4 1 1 5 4 74 \012MPPEM[ ]	/* MeasurePixelPerEm */\012PUSHB[ ]	/* 1 value pushed */\01218 \012LT[ ]	/* LessThan */\012IF[ ]	/* If */\012NPUSHB[ ]	/* 33 values pushed */\0120 4 4 3 95 0 3 3 37 75 0 0 0 1 95 2 1 1 1 33 75 0 5 5 1 95 2 1 1 1 33 1 76 \012ELSE[ ]	/* Else */\012NPUSHB[ ]	/* 31 values pushed */\0120 4 4 3 95 0 3 3 37 75 0 0 0 1 93 0 1 1 33 75 0 5 5 2 95 0 2 2 38 2 76 \012EIF[ ]	/* EndIf */\012NPUSHB[ ]	/* 9 values pushed */\01236 36 38 34 17 16 6 7 26 \012CALL[ ]	/* CallFunction */";
};
width = 770;
}
);
leftKerningGroup = C;
note = G.ss01;
rightKerningGroup = G;
},
{
glyphname = I.ss01;
layers = (
{
layerId = "F251586D-48D7-42AD-80B6-8A992ABEF986";
paths = (
{
closed = 1;
nodes = (
"462 547 LINE",
"462 700 LINE",
"37 700 LINE",
"37 547 LINE",
"151 547 LINE",
"151 153 LINE",
"37 153 LINE",
"37 0 LINE",
"462 0 LINE",
"462 153 LINE",
"349 153 LINE",
"349 547 LINE",
"349 547 LINE"
);
}
);
userData = {
assembly = "NPUSHB[ ]	/* 38 values pushed */\0126 5 2 3 3 4 93 0 4 4 32 75 2 1 0 0 1 93 0 1 1 33 1 76 0 0 0 11 0 11 17 17 17 17 17 7 7 25 \012CALL[ ]	/* CallFunction */";
};
width = 499;
}
);
leftKerningGroup = I.ss01;
note = I.ss01;
rightKerningGroup = I.ss01;
},
{
glyphname = IJ.ss01;
layers = (
{
layerId = "F251586D-48D7-42AD-80B6-8A992ABEF986";
paths = (
{
closed = 1;
nodes = (
"429 -110 OFFCURVE",
"580 -32 OFFCURVE",
"662 118 OFFCURVE",
"662 224 QCURVE SMOOTH",
"662 700 LINE",
"464 700 LINE",
"464 211 LINE SMOOTH",
"464 128 OFFCURVE",
"393 50 OFFCURVE",
"321 50 QCURVE SMOOTH",
"272 50 OFFCURVE",
"166 83 OFFCURVE",
"119 115 QCURVE",
"47 -29 LINE",
"100 -67 OFFCURVE",
"245 -110 OFFCURVE",
"328 -110 QCURVE",
"328 -110 LINE"
);
},
{
closed = 1;
nodes = (
"64 229 LINE",
"262 229 LINE",
"262 700 LINE",
"64 700 LINE",
"64 700 LINE"
);
}
);
userData = {
assembly = "NPUSHB[ ]	/* 45 values pushed */\0123 1 0 4 2 1 2 0 2 74 0 0 5 1 2 0 2 99 0 4 4 1 93 3 1 1 1 32 4 76 0 0 20 19 18 17 0 16 0 15 19 37 6 7 22 \012CALL[ ]	/* CallFunction */";
};
width = 727;
}
);
leftKerningGroup = B;
note = IJ.ss01;
rightKerningGroup = IJ.ss01;
},
{
glyphname = Iacute_J.loclNLD.ss01;
layers = (
{
layerId = "F251586D-48D7-42AD-80B6-8A992ABEF986";
paths = (
{
closed = 1;
nodes = (
"74 757 LINE",
"203 757 LINE",
"392 909 LINE",
"207 909 LINE",
"207 909 LINE"
);
},
{
closed = 1;
nodes = (
"473 757 LINE",
"602 757 LINE",
"791 909 LINE",
"606 909 LINE",
"606 909 LINE"
);
},
{
closed = 1;
nodes = (
"429 -109 OFFCURVE",
"580 -31 OFFCURVE",
"662 119 OFFCURVE",
"662 225 QCURVE SMOOTH",
"662 700 LINE",
"464 700 LINE",
"464 214 LINE SMOOTH",
"464 131 OFFCURVE",
"393 52 OFFCURVE",
"319 52 QCURVE SMOOTH",
"272 52 OFFCURVE",
"166 85 OFFCURVE",
"119 116 QCURVE",
"47 -27 LINE",
"100 -65 OFFCURVE",
"245 -109 OFFCURVE",
"328 -109 QCURVE",
"328 -109 LINE"
);
},
{
closed = 1;
nodes = (
"64 229 LINE",
"262 229 LINE",
"262 700 LINE",
"64 700 LINE",
"64 700 LINE"
);
}
);
userData = {
assembly = "NPUSHB[ ]	/* 61 values pushed */\01211 1 4 8 10 1 6 4 2 74 2 1 0 1 0 131 3 1 1 5 1 131 0 4 9 1 6 4 6 99 0 8 8 5 93 7 1 5 5 32 8 76 8 8 28 27 26 25 8 24 8 23 19 38 17 17 17 16 10 7 26 \012CALL[ ]	/* CallFunction */";
};
width = 727;
}
);
leftKerningGroup = I.ss01;
note = Iacute_J.loclNLD.ss01;
},
{
glyphname = J.ss01;
layers = (
{
layerId = "F251586D-48D7-42AD-80B6-8A992ABEF986";
paths = (
{
closed = 1;
nodes = (
"355 -114 OFFCURVE",
"492 22 OFFCURVE",
"492 158 QCURVE SMOOTH",
"492 700 LINE",
"54 700 LINE",
"54 547 LINE",
"296 547 LINE",
"296 146 LINE SMOOTH",
"296 96 OFFCURVE",
"251 44 OFFCURVE",
"207 44 QCURVE SMOOTH",
"143 44 OFFCURVE",
"87 117 QCURVE",
"-20 -11 LINE",
"20 -61 OFFCURVE",
"145 -114 OFFCURVE",
"222 -114 QCURVE",
"222 -114 LINE"
);
}
);
userData = {
assembly = "NPUSHB[ ]	/* 41 values pushed */\0123 1 0 1 2 1 3 0 2 74 0 0 4 1 3 0 3 99 0 1 1 2 93 0 2 2 32 1 76 0 0 0 16 0 15 17 19 36 5 7 23 \012CALL[ ]	/* CallFunction */";
};
width = 556;
}
);
leftKerningGroup = J.ss01;
note = J.ss01;
rightKerningGroup = IJ.ss01;
},
{
glyphname = M.ss01;
layers = (
{
layerId = "F251586D-48D7-42AD-80B6-8A992ABEF986";
paths = (
{
closed = 1;
nodes = (
"818 714 OFFCURVE",
"702 664 OFFCURVE",
"666 616 QCURVE",
"634 664 OFFCURVE",
"531 714 OFFCURVE",
"462 714 QCURVE SMOOTH",
"395 714 OFFCURVE",
"294 667 OFFCURVE",
"262 622 QCURVE",
"262 700 LINE",
"70 700 LINE",
"70 0 LINE",
"268 0 LINE",
"268 412 LINE SMOOTH",
"268 481 OFFCURVE",
"336 550 OFFCURVE",
"393 550 QCURVE SMOOTH",
"446 550 OFFCURVE",
"507 485 OFFCURVE",
"507 422 QCURVE SMOOTH",
"507 0 LINE",
"705 0 LINE",
"705 412 LINE SMOOTH",
"705 481 OFFCURVE",
"774 550 OFFCURVE",
"833 550 QCURVE SMOOTH",
"888 550 OFFCURVE",
"954 485 OFFCURVE",
"954 422 QCURVE SMOOTH",
"954 0 LINE",
"1152 0 LINE",
"1152 428 LINE SMOOTH",
"1152 567 OFFCURVE",
"1013 714 OFFCURVE",
"889 714 QCURVE",
"889 714 LINE"
);
}
);
userData = {
assembly = "PUSHB[ ]	/* 7 values pushed */\01231 25 2 1 5 1 74 \012MPPEM[ ]	/* MeasurePixelPerEm */\012PUSHB[ ]	/* 1 value pushed */\01218 \012LT[ ]	/* LessThan */\012IF[ ]	/* If */\012NPUSHB[ ]	/* 22 values pushed */\0123 1 1 1 5 95 8 7 6 3 5 5 32 75 4 2 2 0 0 33 0 76 \012ELSE[ ]	/* Else */\012NPUSHB[ ]	/* 26 values pushed */\0120 5 5 32 75 3 1 1 1 6 95 8 7 2 6 6 37 75 4 2 2 0 0 33 0 76 \012EIF[ ]	/* EndIf */\012NPUSHB[ ]	/* 16 values pushed */\0120 0 0 34 0 33 35 17 19 35 19 35 19 9 7 27 \012CALL[ ]	/* CallFunction */";
};
width = 1217;
}
);
leftKerningGroup = B;
note = M.ss01;
rightKerningGroup = M.ss01;
},
{
glyphname = N.ss01;
layers = (
{
layerId = "F251586D-48D7-42AD-80B6-8A992ABEF986";
paths = (
{
closed = 1;
nodes = (
"333 714 OFFCURVE",
"262 620 QCURVE",
"262 700 LINE",
"70 700 LINE",
"70 0 LINE",
"268 0 LINE",
"268 392 LINE SMOOTH",
"268 471 OFFCURVE",
"344 550 OFFCURVE",
"406 550 QCURVE SMOOTH",
"466 550 OFFCURVE",
"533 476 OFFCURVE",
"533 402 QCURVE SMOOTH",
"533 0 LINE",
"731 0 LINE",
"731 408 LINE SMOOTH",
"731 555 OFFCURVE",
"593 714 OFFCURVE",
"468 714 QCURVE",
"468 714 LINE"
);
}
);
userData = {
assembly = "PUSHB[ ]	/* 6 values pushed */\01216 1 1 3 1 74 \012MPPEM[ ]	/* MeasurePixelPerEm */\012PUSHB[ ]	/* 1 value pushed */\01218 \012LT[ ]	/* LessThan */\012IF[ ]	/* If */\012NPUSHB[ ]	/* 19 values pushed */\0120 1 1 3 95 5 4 2 3 3 32 75 2 1 0 0 33 0 76 \012ELSE[ ]	/* Else */\012NPUSHB[ ]	/* 23 values pushed */\0120 3 3 32 75 0 1 1 4 95 5 1 4 4 37 75 2 1 0 0 33 0 76 \012EIF[ ]	/* EndIf */\012NPUSHB[ ]	/* 13 values pushed */\0120 0 0 18 0 17 17 19 35 19 6 7 24 \012CALL[ ]	/* CallFunction */";
};
width = 795;
}
);
leftKerningGroup = B;
note = N.ss01;
rightKerningGroup = M.ss01;
},
{
glyphname = Eng.ss01;
layers = (
{
layerId = "F251586D-48D7-42AD-80B6-8A992ABEF986";
paths = (
{
closed = 1;
nodes = (
"333 714 OFFCURVE",
"262 620 QCURVE",
"262 700 LINE",
"70 700 LINE",
"70 0 LINE",
"268 0 LINE",
"268 392 LINE SMOOTH",
"268 471 OFFCURVE",
"344 550 OFFCURVE",
"406 550 QCURVE SMOOTH",
"466 550 OFFCURVE",
"533 476 OFFCURVE",
"533 402 QCURVE SMOOTH",
"533 61 LINE SMOOTH",
"533 11 OFFCURVE",
"488 -40 OFFCURVE",
"445 -40 QCURVE SMOOTH",
"398 -40 OFFCURVE",
"358 -5 QCURVE",
"267 -144 LINE",
"342 -203 OFFCURVE",
"460 -203 QCURVE SMOOTH",
"592 -203 OFFCURVE",
"731 -66 OFFCURVE",
"731 69 QCURVE SMOOTH",
"731 408 LINE SMOOTH",
"731 555 OFFCURVE",
"593 714 OFFCURVE",
"468 714 QCURVE",
"468 714 LINE"
);
}
);
userData = {
assembly = "NPUSHB[ ]	/* 14 values pushed */\01226 1 2 4 9 1 1 3 8 1 0 1 3 74 \012MPPEM[ ]	/* MeasurePixelPerEm */\012PUSHB[ ]	/* 1 value pushed */\01218 \012LT[ ]	/* LessThan */\012IF[ ]	/* If */\012NPUSHB[ ]	/* 28 values pushed */\0120 2 2 4 95 6 5 2 4 4 32 75 0 3 3 33 75 0 1 1 0 95 0 0 0 41 0 76 \012ELSE[ ]	/* Else */\012NPUSHB[ ]	/* 32 values pushed */\0120 4 4 32 75 0 2 2 5 95 6 1 5 5 37 75 0 3 3 33 75 0 1 1 0 95 0 0 0 41 0 76 \012EIF[ ]	/* EndIf */\012NPUSHB[ ]	/* 14 values pushed */\0120 0 0 28 0 27 17 19 37 35 37 7 7 25 \012CALL[ ]	/* CallFunction */";
};
width = 795;
}
);
leftKerningGroup = B;
note = Eng.ss01;
rightKerningGroup = M.ss01;
},
{
glyphname = Q.ss01;
layers = (
{
layerId = "F251586D-48D7-42AD-80B6-8A992ABEF986";
paths = (
{
closed = 1;
nodes = (
"812 454 OFFCURVE",
"711 620 OFFCURVE",
"534 714 OFFCURVE",
"423 714 QCURVE SMOOTH",
"312 714 OFFCURVE",
"135 620 OFFCURVE",
"34 454 OFFCURVE",
"34 350 QCURVE SMOOTH",
"34 262 OFFCURVE",
"107 115 OFFCURVE",
"238 16 OFFCURVE",
"324 -3 QCURVE",
"324 -135 LINE",
"522 -135 LINE",
"522 -3 LINE",
"608 16 OFFCURVE",
"739 115 OFFCURVE",
"812 262 OFFCURVE",
"812 350 QCURVE",
"812 350 LINE"
);
},
{
closed = 1;
nodes = (
"370 150 OFFCURVE",
"284 200 OFFCURVE",
"234 291 OFFCURVE",
"234 350 QCURVE SMOOTH",
"234 409 OFFCURVE",
"284 500 OFFCURVE",
"370 550 OFFCURVE",
"423 550 QCURVE SMOOTH",
"476 550 OFFCURVE",
"562 500 OFFCURVE",
"612 409 OFFCURVE",
"612 350 QCURVE SMOOTH",
"612 291 OFFCURVE",
"562 200 OFFCURVE",
"476 150 OFFCURVE",
"423 150 QCURVE",
"423 150 LINE"
);
}
);
userData = {
assembly = "NPUSHB[ ]	/* 38 values pushed */\0126 3 2 0 3 1 74 4 1 3 0 0 3 0 97 0 2 2 1 95 0 1 1 37 2 76 19 19 19 34 19 33 42 40 20 5 7 23 \012CALL[ ]	/* CallFunction */";
};
width = 846;
}
);
leftKerningGroup = C;
note = Q.ss01;
rightKerningGroup = D;
},
{
glyphname = Schwa.ss01;
layers = (
{
layerId = "F251586D-48D7-42AD-80B6-8A992ABEF986";
paths = (
{
closed = 1;
nodes = (
"303 714 OFFCURVE",
"135 646 OFFCURVE",
"84 592 QCURVE",
"201 468 LINE",
"235 506 OFFCURVE",
"342 550 OFFCURVE",
"392 550 QCURVE SMOOTH",
"447 550 OFFCURVE",
"535 500 OFFCURVE",
"559 457 QCURVE",
"48 252 LINE",
"80 129 OFFCURVE",
"273 -14 OFFCURVE",
"409 -14 QCURVE SMOOTH",
"516 -14 OFFCURVE",
"686 79 OFFCURVE",
"783 245 OFFCURVE",
"783 350 QCURVE SMOOTH",
"783 455 OFFCURVE",
"684 621 OFFCURVE",
"507 714 OFFCURVE",
"394 714 QCURVE",
"394 714 LINE"
);
},
{
closed = 1;
nodes = (
"307 136 OFFCURVE",
"269 205 QCURVE",
"584 333 LINE",
"584 322 LINE SMOOTH",
"584 236 OFFCURVE",
"492 136 OFFCURVE",
"409 136 QCURVE",
"409 136 LINE"
);
}
);
userData = {
assembly = "NPUSHB[ ]	/* 54 values pushed */\01218 1 1 2 26 25 17 11 10 5 3 1 2 74 0 1 1 2 95 4 1 2 2 37 75 5 1 3 3 0 95 0 0 0 38 0 76 22 22 0 0 22 28 22 27 0 21 0 20 37 38 6 7 22 \012CALL[ ]	/* CallFunction */";
};
width = 818;
}
);
leftKerningGroup = C;
note = uni018F.ss01;
rightKerningGroup = D;
},
{
glyphname = T.ss01;
layers = (
{
layerId = "F251586D-48D7-42AD-80B6-8A992ABEF986";
paths = (
{
closed = 1;
nodes = (
"674 624 LINE",
"601 668 OFFCURVE",
"424 714 OFFCURVE",
"330 714 QCURVE SMOOTH",
"236 714 OFFCURVE",
"59 668 OFFCURVE",
"-14 624 QCURVE",
"52 480 LINE",
"138 529 OFFCURVE",
"231 545 QCURVE",
"231 0 LINE",
"429 0 LINE",
"429 545 LINE",
"520 529 OFFCURVE",
"608 480 QCURVE",
"608 480 LINE"
);
}
);
userData = {
assembly = "NPUSHB[ ]	/* 26 values pushed */\01214 8 7 5 2 5 0 1 1 74 0 1 1 37 75 0 0 0 33 0 76 38 19 2 7 22 \012CALL[ ]	/* CallFunction */";
};
width = 660;
}
);
leftKerningGroup = T.ss01;
note = T.ss01;
rightKerningGroup = T.ss01;
},
{
glyphname = U.ss01;
layers = (
{
layerId = "F251586D-48D7-42AD-80B6-8A992ABEF986";
paths = (
{
closed = 1;
nodes = (
"523 700 LINE",
"523 308 LINE SMOOTH",
"523 230 OFFCURVE",
"448 150 OFFCURVE",
"387 150 QCURVE SMOOTH",
"329 150 OFFCURVE",
"262 224 OFFCURVE",
"262 298 QCURVE SMOOTH",
"262 700 LINE",
"64 700 LINE",
"64 292 LINE SMOOTH",
"64 145 OFFCURVE",
"202 -14 OFFCURVE",
"326 -14 QCURVE SMOOTH",
"391 -14 OFFCURVE",
"495 34 OFFCURVE",
"529 80 QCURVE",
"529 0 LINE",
"721 0 LINE",
"721 700 LINE",
"721 700 LINE"
);
}
);
userData = {
assembly = "PUSHB[ ]	/* 6 values pushed */\0123 1 0 3 1 74 \012MPPEM[ ]	/* MeasurePixelPerEm */\012PUSHB[ ]	/* 1 value pushed */\01218 \012LT[ ]	/* LessThan */\012IF[ ]	/* If */\012NPUSHB[ ]	/* 19 values pushed */\0125 4 2 2 2 32 75 0 3 3 0 96 1 1 0 0 33 0 76 \012ELSE[ ]	/* Else */\012NPUSHB[ ]	/* 23 values pushed */\0125 4 2 2 2 32 75 0 0 0 33 75 0 3 3 1 96 0 1 1 38 1 76 \012EIF[ ]	/* EndIf */\012NPUSHB[ ]	/* 13 values pushed */\0120 0 0 19 0 19 35 19 35 17 6 7 24 \012CALL[ ]	/* CallFunction */";
};
width = 791;
}
);
leftKerningGroup = U;
note = U.ss01;
rightKerningGroup = H;
},
{
glyphname = W.ss01;
layers = (
{
layerId = "F251586D-48D7-42AD-80B6-8A992ABEF986";
paths = (
{
closed = 1;
nodes = (
"949 700 LINE",
"949 297 LINE SMOOTH",
"949 222 OFFCURVE",
"889 150 OFFCURVE",
"828 150 QCURVE SMOOTH",
"766 150 OFFCURVE",
"704 222 OFFCURVE",
"704 297 QCURVE SMOOTH",
"704 700 LINE",
"506 700 LINE",
"506 297 LINE SMOOTH",
"506 222 OFFCURVE",
"445 150 OFFCURVE",
"384 150 QCURVE SMOOTH",
"323 150 OFFCURVE",
"262 222 OFFCURVE",
"262 297 QCURVE SMOOTH",
"262 700 LINE",
"64 700 LINE",
"64 291 LINE SMOOTH",
"64 144 OFFCURVE",
"234 -14 OFFCURVE",
"387 -14 QCURVE SMOOTH",
"457 -14 OFFCURVE",
"568 24 OFFCURVE",
"606 59 QCURVE",
"644 24 OFFCURVE",
"755 -14 OFFCURVE",
"824 -14 QCURVE SMOOTH",
"978 -14 OFFCURVE",
"1147 143 OFFCURVE",
"1147 291 QCURVE SMOOTH",
"1147 700 LINE",
"1147 700 LINE"
);
}
);
userData = {
assembly = "NPUSHB[ ]	/* 42 values pushed */\0127 1 0 3 1 74 7 6 4 3 2 2 32 75 5 1 3 3 0 96 1 1 0 0 38 0 76 0 0 0 32 0 32 35 19 35 19 36 35 8 7 26 \012CALL[ ]	/* CallFunction */";
};
width = 1212;
}
);
leftKerningGroup = U;
note = W.ss01;
rightKerningGroup = IJ;
},
{
glyphname = Y.ss01;
layers = (
{
layerId = "F251586D-48D7-42AD-80B6-8A992ABEF986";
paths = (
{
closed = 1;
nodes = (
"522 700 LINE",
"522 480 LINE SMOOTH",
"522 402 OFFCURVE",
"447 328 OFFCURVE",
"384 328 QCURVE SMOOTH",
"322 328 OFFCURVE",
"257 399 OFFCURVE",
"257 470 QCURVE SMOOTH",
"257 700 LINE",
"59 700 LINE",
"59 457 LINE SMOOTH",
"59 316 OFFCURVE",
"201 165 OFFCURVE",
"333 165 QCURVE SMOOTH",
"455 165 OFFCURVE",
"522 246 QCURVE",
"522 214 LINE SMOOTH",
"522 131 OFFCURVE",
"447 53 OFFCURVE",
"367 53 QCURVE SMOOTH",
"309 53 OFFCURVE",
"199 89 OFFCURVE",
"151 124 QCURVE",
"77 -19 LINE",
"131 -62 OFFCURVE",
"282 -109 OFFCURVE",
"375 -109 QCURVE SMOOTH",
"481 -109 OFFCURVE",
"636 -32 OFFCURVE",
"720 119 OFFCURVE",
"720 225 QCURVE SMOOTH",
"720 700 LINE",
"720 700 LINE"
);
}
);
userData = {
assembly = "NPUSHB[ ]	/* 51 values pushed */\01216 1 2 4 9 1 1 2 8 1 0 1 3 74 0 4 0 2 1 4 2 104 0 1 0 0 1 0 99 6 5 2 3 3 32 3 76 0 0 0 31 0 31 35 19 36 37 36 7 7 25 \012CALL[ ]	/* CallFunction */";
};
width = 784;
}
);
leftKerningGroup = Y.ss01;
note = Y.ss01;
rightKerningGroup = IJ;
},
{
glyphname = Z.ss01;
layers = (
{
layerId = "F251586D-48D7-42AD-80B6-8A992ABEF986";
paths = (
{
closed = 1;
nodes = (
"286 153 LINE",
"396 284 LINE",
"600 284 LINE",
"600 423 LINE",
"513 423 LINE",
"652 589 LINE",
"652 701 LINE",
"49 701 LINE",
"49 547 LINE",
"405 547 LINE",
"305 427 LINE",
"93 427 LINE",
"93 287 LINE",
"187 287 LINE",
"40 112 LINE",
"40 0 LINE",
"667 0 LINE",
"667 153 LINE",
"667 153 LINE"
);
}
);
userData = {
assembly = "NPUSHB[ ]	/* 58 values pushed */\01212 1 3 4 3 1 0 7 2 74 5 1 2 6 1 1 7 2 1 101 0 3 3 4 93 0 4 4 32 75 8 1 7 7 0 93 0 0 0 33 0 76 0 0 0 17 0 17 17 18 17 17 17 18 17 9 7 27 \012CALL[ ]	/* CallFunction */";
};
width = 689;
}
);
leftKerningGroup = Z;
note = Z.ss01;
rightKerningGroup = DZcaron;
},
{
glyphname = a;
layers = (
{
layerId = "F251586D-48D7-42AD-80B6-8A992ABEF986";
paths = (
{
closed = 1;
nodes = (
"227 551 OFFCURVE",
"98 518 OFFCURVE",
"53 488 QCURVE",
"117 359 LINE",
"145 381 OFFCURVE",
"225 406 OFFCURVE",
"264 406 QCURVE SMOOTH",
"374 406 OFFCURVE",
"379 320 QCURVE",
"271 320 LINE SMOOTH",
"148 320 OFFCURVE",
"30 235 OFFCURVE",
"30 158 QCURVE SMOOTH",
"30 110 OFFCURVE",
"77 35 OFFCURVE",
"169 -9 OFFCURVE",
"232 -9 QCURVE SMOOTH",
"351 -9 OFFCURVE",
"392 70 QCURVE",
"392 0 LINE",
"569 0 LINE",
"569 301 LINE SMOOTH",
"569 428 OFFCURVE",
"427 551 OFFCURVE",
"292 551 QCURVE",
"292 551 LINE"
);
},
{
closed = 1;
nodes = (
"252 111 OFFCURVE",
"214 141 OFFCURVE",
"214 166 QCURVE SMOOTH",
"214 221 OFFCURVE",
"297 221 QCURVE SMOOTH",
"379 221 LINE",
"379 174 LINE",
"368 143 OFFCURVE",
"318 111 OFFCURVE",
"285 111 QCURVE",
"285 111 LINE"
);
}
);
userData = {
assembly = "NPUSHB[ ]	/* 18 values pushed */\01221 1 3 4 20 1 2 3 27 1 6 5 5 1 0 6 4 74 \012MPPEM[ ]	/* MeasurePixelPerEm */\012PUSHB[ ]	/* 1 value pushed */\01227 \012LT[ ]	/* LessThan */\012IF[ ]	/* If */\012NPUSHB[ ]	/* 32 values pushed */\0120 2 0 5 6 2 5 101 0 3 3 4 95 7 1 4 4 75 75 8 1 6 6 0 95 1 1 0 0 67 0 76 \012ELSE[ ]	/* Else */\012NPUSHB[ ]	/* 36 values pushed */\0120 2 0 5 6 2 5 101 0 3 3 4 95 7 1 4 4 75 75 0 0 0 67 75 8 1 6 6 1 95 0 1 1 76 1 76 \012EIF[ ]	/* EndIf */\012NPUSHB[ ]	/* 21 values pushed */\01225 25 0 0 25 34 25 33 30 28 0 24 0 23 33 37 34 19 9 10 24 \012CALL[ ]	/* CallFunction */";
};
width = 628;
}
);
leftKerningGroup = a;
note = a;
rightKerningGroup = a;
unicode = 0061;
},
{
glyphname = ae;
layers = (
{
layerId = "F251586D-48D7-42AD-80B6-8A992ABEF986";
paths = (
{
closed = 1;
nodes = (
"972 358 OFFCURVE",
"894 484 OFFCURVE",
"762 551 OFFCURVE",
"684 551 QCURVE SMOOTH",
"628 551 OFFCURVE",
"528 516 OFFCURVE",
"489 483 QCURVE",
"422 551 OFFCURVE",
"291 551 QCURVE SMOOTH",
"225 551 OFFCURVE",
"99 518 OFFCURVE",
"53 488 QCURVE",
"117 359 LINE",
"145 381 OFFCURVE",
"224 406 OFFCURVE",
"265 406 QCURVE SMOOTH",
"319 406 OFFCURVE",
"376 362 OFFCURVE",
"379 322 QCURVE",
"271 322 LINE SMOOTH",
"149 322 OFFCURVE",
"30 238 OFFCURVE",
"30 164 QCURVE SMOOTH",
"30 86 OFFCURVE",
"156 -9 OFFCURVE",
"266 -9 QCURVE SMOOTH",
"406 -9 OFFCURVE",
"470 79 QCURVE",
"513 34 OFFCURVE",
"633 -9 OFFCURVE",
"703 -9 QCURVE SMOOTH",
"850 -9 OFFCURVE",
"932 79 QCURVE",
"832 183 LINE",
"802 159 OFFCURVE",
"742 136 OFFCURVE",
"706 136 QCURVE SMOOTH",
"655 136 OFFCURVE",
"586 181 OFFCURVE",
"575 222 QCURVE",
"969 222 LINE",
"972 245 OFFCURVE",
"972 274 QCURVE",
"972 274 LINE"
);
},
{
closed = 1;
nodes = (
"723 416 OFFCURVE",
"783 366 OFFCURVE",
"790 322 QCURVE",
"571 322 LINE",
"579 366 OFFCURVE",
"640 416 OFFCURVE",
"681 416 QCURVE",
"681 416 LINE"
);
},
{
closed = 1;
nodes = (
"252 111 OFFCURVE",
"214 141 OFFCURVE",
"214 168 QCURVE SMOOTH",
"214 222 OFFCURVE",
"297 222 QCURVE SMOOTH",
"379 222 LINE",
"379 200 LINE SMOOTH",
"379 159 OFFCURVE",
"330 111 OFFCURVE",
"287 111 QCURVE",
"287 111 LINE"
);
}
);
userData = {
assembly = "MPPEM[ ]	/* MeasurePixelPerEm */\012PUSHB[ ]	/* 1 value pushed */\01210 \012LT[ ]	/* LessThan */\012IF[ ]	/* If */\012NPUSHB[ ]	/* 20 values pushed */\01235 30 2 5 6 29 1 4 5 8 1 1 0 14 9 2 2 1 4 74 \012ELSE[ ]	/* Else */\012MPPEM[ ]	/* MeasurePixelPerEm */\012PUSHB[ ]	/* 1 value pushed */\01225 \012LT[ ]	/* LessThan */\012IF[ ]	/* If */\012NPUSHB[ ]	/* 20 values pushed */\01235 30 2 5 6 29 1 4 5 8 1 1 0 14 9 2 2 11 4 74 \012ELSE[ ]	/* Else */\012NPUSHB[ ]	/* 20 values pushed */\01235 30 2 9 6 29 1 4 5 8 1 1 0 14 9 2 2 11 4 74 \012EIF[ ]	/* EndIf */\012EIF[ ]	/* EndIf */\012MPPEM[ ]	/* MeasurePixelPerEm */\012PUSHB[ ]	/* 1 value pushed */\01210 \012LT[ ]	/* LessThan */\012IF[ ]	/* If */\012NPUSHB[ ]	/* 37 values pushed */\0128 1 4 10 1 0 1 4 0 101 12 9 2 5 5 6 95 7 1 6 6 75 75 13 11 2 1 1 2 95 3 1 2 2 76 2 76 \012ELSE[ ]	/* Else */\012MPPEM[ ]	/* MeasurePixelPerEm */\012PUSHB[ ]	/* 1 value pushed */\01225 \012LT[ ]	/* LessThan */\012IF[ ]	/* If */\012NPUSHB[ ]	/* 47 values pushed */\0128 1 4 10 1 0 1 4 0 101 12 9 2 5 5 6 95 7 1 6 6 75 75 0 1 1 2 95 3 1 2 2 76 75 13 1 11 11 2 95 3 1 2 2 76 2 76 \012ELSE[ ]	/* Else */\012NPUSHB[ ]	/* 57 values pushed */\0128 1 4 10 1 0 1 4 0 101 12 1 9 9 6 95 7 1 6 6 75 75 0 5 5 6 95 7 1 6 6 75 75 0 1 1 2 95 3 1 2 2 76 75 13 1 11 11 2 95 3 1 2 2 76 2 76 \012EIF[ ]	/* EndIf */\012EIF[ ]	/* EndIf */\012NPUSHB[ ]	/* 26 values pushed */\01250 50 43 43 50 59 50 58 55 53 43 49 43 48 22 35 37 34 36 35 36 34 17 14 10 29 \012CALL[ ]	/* CallFunction */";
};
width = 999;
}
);
leftKerningGroup = a;
note = ae;
rightKerningGroup = ae;
unicode = 00E6;
},
{
glyphname = b;
layers = (
{
layerId = "F251586D-48D7-42AD-80B6-8A992ABEF986";
paths = (
{
closed = 1;
nodes = (
"306 551 OFFCURVE",
"251 495 QCURVE",
"251 742 LINE",
"61 742 LINE",
"61 0 LINE",
"242 0 LINE",
"242 54 LINE",
"295 -9 OFFCURVE",
"402 -9 QCURVE SMOOTH",
"476 -9 OFFCURVE",
"597 60 OFFCURVE",
"668 188 OFFCURVE",
"668 272 QCURVE SMOOTH",
"668 356 OFFCURVE",
"597 483 OFFCURVE",
"476 551 OFFCURVE",
"402 551 QCURVE",
"402 551 LINE"
);
},
{
closed = 1;
nodes = (
"312 142 OFFCURVE",
"248 211 OFFCURVE",
"248 272 QCURVE SMOOTH",
"248 332 OFFCURVE",
"312 400 OFFCURVE",
"362 400 QCURVE SMOOTH",
"412 400 OFFCURVE",
"476 332 OFFCURVE",
"476 272 QCURVE SMOOTH",
"476 211 OFFCURVE",
"412 142 OFFCURVE",
"362 142 QCURVE",
"362 142 LINE"
);
}
);
userData = {
assembly = "MPPEM[ ]	/* MeasurePixelPerEm */\012PUSHB[ ]	/* 1 value pushed */\01227 \012LT[ ]	/* LessThan */\012IF[ ]	/* If */\012NPUSHB[ ]	/* 10 values pushed */\01214 1 4 3 9 1 0 5 2 74 \012ELSE[ ]	/* Else */\012NPUSHB[ ]	/* 10 values pushed */\01214 1 4 3 9 1 1 5 2 74 \012EIF[ ]	/* EndIf */\012MPPEM[ ]	/* MeasurePixelPerEm */\012PUSHB[ ]	/* 1 value pushed */\01212 \012LT[ ]	/* LessThan */\012IF[ ]	/* If */\012NPUSHB[ ]	/* 29 values pushed */\0120 2 2 68 75 0 4 4 3 95 6 1 3 3 75 75 7 1 5 5 0 95 1 1 0 0 76 0 76 \012ELSE[ ]	/* Else */\012MPPEM[ ]	/* MeasurePixelPerEm */\012PUSHB[ ]	/* 1 value pushed */\01227 \012LT[ ]	/* LessThan */\012IF[ ]	/* If */\012NPUSHB[ ]	/* 35 values pushed */\0120 2 2 0 95 1 1 0 0 76 75 0 4 4 3 95 6 1 3 3 75 75 7 1 5 5 0 95 1 1 0 0 76 0 76 \012ELSE[ ]	/* Else */\012NPUSHB[ ]	/* 33 values pushed */\0120 4 4 3 95 6 1 3 3 75 75 0 2 2 1 93 0 1 1 67 75 7 1 5 5 0 95 0 0 0 76 0 76 \012EIF[ ]	/* EndIf */\012EIF[ ]	/* EndIf */\012NPUSHB[ ]	/* 20 values pushed */\01217 17 0 0 17 28 17 27 23 21 0 16 0 15 17 18 38 8 10 23 \012CALL[ ]	/* CallFunction */";
};
width = 695;
}
);
leftKerningGroup = b;
note = b;
rightKerningGroup = b;
unicode = 0062;
},
{
glyphname = c;
layers = (
{
layerId = "F251586D-48D7-42AD-80B6-8A992ABEF986";
paths = (
{
closed = 1;
nodes = (
"430 -9 OFFCURVE",
"564 70 OFFCURVE",
"592 140 QCURVE",
"445 215 LINE",
"408 142 OFFCURVE",
"337 142 QCURVE SMOOTH",
"286 142 OFFCURVE",
"219 211 OFFCURVE",
"219 272 QCURVE SMOOTH",
"219 332 OFFCURVE",
"286 400 OFFCURVE",
"337 400 QCURVE SMOOTH",
"408 400 OFFCURVE",
"445 327 QCURVE",
"592 402 LINE",
"564 472 OFFCURVE",
"430 551 OFFCURVE",
"338 551 QCURVE SMOOTH",
"248 551 OFFCURVE",
"106 480 OFFCURVE",
"27 353 OFFCURVE",
"27 272 QCURVE SMOOTH",
"27 191 OFFCURVE",
"106 63 OFFCURVE",
"248 -9 OFFCURVE",
"338 -9 QCURVE",
"338 -9 LINE"
);
}
);
userData = {
assembly = "NPUSHB[ ]	/* 49 values pushed */\01210 1 1 0 21 11 2 2 1 22 1 3 2 3 74 0 1 1 0 95 0 0 0 75 75 0 2 2 3 95 4 1 3 3 76 3 76 0 0 0 25 0 24 36 36 38 5 10 23 \012CALL[ ]	/* CallFunction */";
};
width = 603;
}
);
leftKerningGroup = c;
note = c;
rightKerningGroup = c;
unicode = 0063;
},
{
glyphname = d;
layers = (
{
layerId = "F251586D-48D7-42AD-80B6-8A992ABEF986";
paths = (
{
closed = 1;
nodes = (
"447 742 LINE",
"447 495 LINE",
"394 551 OFFCURVE",
"297 551 QCURVE SMOOTH",
"223 551 OFFCURVE",
"101 483 OFFCURVE",
"30 356 OFFCURVE",
"30 272 QCURVE SMOOTH",
"30 188 OFFCURVE",
"101 60 OFFCURVE",
"223 -9 OFFCURVE",
"297 -9 QCURVE SMOOTH",
"403 -9 OFFCURVE",
"456 54 QCURVE",
"456 0 LINE",
"637 0 LINE",
"637 742 LINE",
"637 742 LINE"
);
},
{
closed = 1;
nodes = (
"287 142 OFFCURVE",
"223 211 OFFCURVE",
"223 272 QCURVE SMOOTH",
"223 332 OFFCURVE",
"287 400 OFFCURVE",
"337 400 QCURVE SMOOTH",
"387 400 OFFCURVE",
"450 332 OFFCURVE",
"450 272 QCURVE SMOOTH",
"450 211 OFFCURVE",
"386 142 OFFCURVE",
"337 142 QCURVE",
"337 142 LINE"
);
}
);
userData = {
assembly = "NPUSHB[ ]	/* 10 values pushed */\01215 1 4 2 3 1 0 5 2 74 \012MPPEM[ ]	/* MeasurePixelPerEm */\012PUSHB[ ]	/* 1 value pushed */\01212 \012LT[ ]	/* LessThan */\012IF[ ]	/* If */\012NPUSHB[ ]	/* 29 values pushed */\0126 1 3 3 68 75 0 4 4 2 95 0 2 2 75 75 7 1 5 5 0 95 1 1 0 0 67 0 76 \012ELSE[ ]	/* Else */\012MPPEM[ ]	/* MeasurePixelPerEm */\012PUSHB[ ]	/* 1 value pushed */\01227 \012LT[ ]	/* LessThan */\012IF[ ]	/* If */\012NPUSHB[ ]	/* 35 values pushed */\0126 1 3 3 0 95 1 1 0 0 67 75 0 4 4 2 95 0 2 2 75 75 7 1 5 5 0 95 1 1 0 0 67 0 76 \012ELSE[ ]	/* Else */\012NPUSHB[ ]	/* 33 values pushed */\0120 4 4 2 95 0 2 2 75 75 6 1 3 3 0 93 0 0 0 67 75 7 1 5 5 1 95 0 1 1 76 1 76 \012EIF[ ]	/* EndIf */\012EIF[ ]	/* EndIf */\012NPUSHB[ ]	/* 20 values pushed */\01217 17 0 0 17 28 17 27 23 21 0 16 0 16 38 34 17 8 10 23 \012CALL[ ]	/* CallFunction */";
};
width = 698;
}
);
leftKerningGroup = c;
note = d;
rightKerningGroup = d;
unicode = 0064;
},
{
glyphname = eth;
layers = (
{
layerId = "F251586D-48D7-42AD-80B6-8A992ABEF986";
paths = (
{
closed = 1;
nodes = (
"613 630 LINE",
"580 716 LINE",
"488 682 LINE",
"387 749 OFFCURVE",
"238 749 QCURVE SMOOTH",
"160 749 OFFCURVE",
"80 731 QCURVE",
"100 589 LINE",
"160 609 OFFCURVE",
"228 609 QCURVE SMOOTH",
"259 609 OFFCURVE",
"282 605 QCURVE",
"114 542 LINE",
"147 457 LINE",
"391 547 LINE",
"437 494 OFFCURVE",
"440 392 QCURVE",
"380 449 OFFCURVE",
"277 449 QCURVE SMOOTH",
"208 449 OFFCURVE",
"94 393 OFFCURVE",
"27 291 OFFCURVE",
"27 225 QCURVE SMOOTH",
"27 154 OFFCURVE",
"100 45 OFFCURVE",
"228 -14 OFFCURVE",
"306 -14 QCURVE SMOOTH",
"407 -14 OFFCURVE",
"557 71 OFFCURVE",
"639 230 OFFCURVE",
"639 340 QCURVE SMOOTH",
"639 508 OFFCURVE",
"562 611 QCURVE",
"562 611 LINE"
);
},
{
closed = 1;
nodes = (
"277 127 OFFCURVE",
"220 176 OFFCURVE",
"220 217 QCURVE SMOOTH",
"220 259 OFFCURVE",
"277 308 OFFCURVE",
"322 308 QCURVE SMOOTH",
"366 308 OFFCURVE",
"424 257 OFFCURVE",
"424 217 QCURVE SMOOTH",
"424 178 OFFCURVE",
"366 127 OFFCURVE",
"321 127 QCURVE",
"321 127 LINE"
);
}
);
userData = {
assembly = "NPUSHB[ ]	/* 22 values pushed */\01232 31 30 29 25 5 2 3 24 20 19 18 17 5 1 2 15 1 4 1 3 74 \012MPPEM[ ]	/* MeasurePixelPerEm */\012PUSHB[ ]	/* 1 value pushed */\01212 \012LT[ ]	/* LessThan */\012IF[ ]	/* If */\012NPUSHB[ ]	/* 30 values pushed */\0120 1 0 4 5 1 4 103 0 2 2 3 95 0 3 3 68 75 6 1 5 5 0 95 0 0 0 73 0 76 \012ELSE[ ]	/* Else */\012NPUSHB[ ]	/* 28 values pushed */\0120 3 0 2 1 3 2 103 0 1 0 4 5 1 4 103 6 1 5 5 0 95 0 0 0 73 0 76 \012EIF[ ]	/* EndIf */\012NPUSHB[ ]	/* 14 values pushed */\01233 33 33 44 33 43 41 35 39 38 36 7 10 25 \012CALL[ ]	/* CallFunction */";
};
width = 666;
}
);
leftKerningGroup = c;
note = eth;
rightKerningGroup = eth;
unicode = 00F0;
},
{
glyphname = e;
layers = (
{
layerId = "F251586D-48D7-42AD-80B6-8A992ABEF986";
paths = (
{
closed = 1;
nodes = (
"615 357 OFFCURVE",
"538 484 OFFCURVE",
"406 551 OFFCURVE",
"325 551 QCURVE SMOOTH",
"240 551 OFFCURVE",
"104 479 OFFCURVE",
"27 352 OFFCURVE",
"27 272 QCURVE SMOOTH",
"27 191 OFFCURVE",
"106 63 OFFCURVE",
"250 -9 OFFCURVE",
"345 -9 QCURVE SMOOTH",
"497 -9 OFFCURVE",
"576 79 QCURVE",
"476 183 LINE",
"447 158 OFFCURVE",
"390 136 OFFCURVE",
"351 136 QCURVE SMOOTH",
"299 136 OFFCURVE",
"230 181 OFFCURVE",
"218 223 QCURVE",
"612 223 LINE",
"615 268 OFFCURVE",
"615 270 QCURVE",
"615 270 LINE"
);
},
{
closed = 1;
nodes = (
"370 416 OFFCURVE",
"429 366 OFFCURVE",
"437 323 QCURVE",
"215 323 LINE",
"223 366 OFFCURVE",
"282 416 OFFCURVE",
"326 416 QCURVE",
"326 416 LINE"
);
}
);
userData = {
assembly = "NPUSHB[ ]	/* 54 values pushed */\0128 1 1 0 9 1 2 1 2 74 0 4 0 0 1 4 0 101 6 1 5 5 3 95 0 3 3 75 75 0 1 1 2 95 0 2 2 76 2 76 24 24 24 30 24 29 22 38 36 34 17 7 10 25 \012CALL[ ]	/* CallFunction */";
};
width = 642;
}
);
leftKerningGroup = c;
note = e;
rightKerningGroup = ae;
unicode = 0065;
},
{
glyphname = eogonek;
layers = (
{
layerId = "F251586D-48D7-42AD-80B6-8A992ABEF986";
paths = (
{
closed = 1;
nodes = (
"615 357 OFFCURVE",
"538 484 OFFCURVE",
"406 551 OFFCURVE",
"325 551 QCURVE SMOOTH",
"240 551 OFFCURVE",
"104 479 OFFCURVE",
"27 352 OFFCURVE",
"27 272 QCURVE SMOOTH",
"27 191 OFFCURVE",
"106 63 OFFCURVE",
"250 -9 OFFCURVE",
"345 -9 QCURVE SMOOTH",
"359 -9 LINE",
"335 -31 OFFCURVE",
"308 -87 OFFCURVE",
"308 -115 QCURVE SMOOTH",
"308 -171 OFFCURVE",
"387 -236 OFFCURVE",
"456 -236 QCURVE SMOOTH",
"485 -236 OFFCURVE",
"545 -223 OFFCURVE",
"563 -213 QCURVE",
"538 -131 LINE",
"510 -146 OFFCURVE",
"480 -146 QCURVE SMOOTH",
"454 -146 OFFCURVE",
"423 -119 OFFCURVE",
"423 -96 QCURVE SMOOTH",
"423 -65 OFFCURVE",
"470 -1 OFFCURVE",
"535 42 QCURVE SMOOTH",
"560 60 OFFCURVE",
"576 79 QCURVE",
"476 183 LINE",
"447 158 OFFCURVE",
"390 136 OFFCURVE",
"351 136 QCURVE SMOOTH",
"299 136 OFFCURVE",
"230 181 OFFCURVE",
"218 223 QCURVE",
"612 223 LINE",
"615 268 OFFCURVE",
"615 270 QCURVE",
"615 270 LINE"
);
},
{
closed = 1;
nodes = (
"370 416 OFFCURVE",
"429 366 OFFCURVE",
"437 323 QCURVE",
"215 323 LINE",
"223 366 OFFCURVE",
"282 416 OFFCURVE",
"326 416 QCURVE",
"326 416 LINE"
);
}
);
userData = {
assembly = "NPUSHB[ ]	/* 71 values pushed */\0128 1 1 0 9 1 4 1 19 1 2 4 20 1 3 2 4 74 0 6 0 0 1 6 0 101 0 2 0 3 2 3 99 8 1 7 7 5 95 0 5 5 75 75 0 1 1 4 95 0 4 4 76 4 76 43 43 43 49 43 48 22 38 37 36 42 34 17 9 10 27 \012CALL[ ]	/* CallFunction */";
};
width = 642;
}
);
leftKerningGroup = c;
note = eogonek;
rightKerningGroup = ae;
unicode = 0119;
},
{
glyphname = f;
layers = (
{
layerId = "F251586D-48D7-42AD-80B6-8A992ABEF986";
paths = (
{
closed = 1;
nodes = (
"268 534 LINE SMOOTH",
"268 569 OFFCURVE",
"301 605 OFFCURVE",
"331 605 QCURVE SMOOTH",
"360 605 OFFCURVE",
"388 589 QCURVE",
"435 723 LINE",
"413 737 OFFCURVE",
"345 751 OFFCURVE",
"309 751 QCURVE SMOOTH",
"202 751 OFFCURVE",
"83 635 OFFCURVE",
"83 536 QCURVE SMOOTH",
"83 522 LINE",
"4 522 LINE",
"4 380 LINE",
"83 380 LINE",
"83 0 LINE",
"273 0 LINE",
"273 380 LINE",
"397 380 LINE",
"397 522 LINE",
"268 522 LINE",
"268 522 LINE"
);
}
);
userData = {
assembly = "NPUSHB[ ]	/* 10 values pushed */\01216 1 6 5 17 1 0 6 2 74 \012MPPEM[ ]	/* MeasurePixelPerEm */\012PUSHB[ ]	/* 1 value pushed */\01212 \012LT[ ]	/* LessThan */\012IF[ ]	/* If */\012NPUSHB[ ]	/* 28 values pushed */\0120 6 6 5 95 0 5 5 68 75 3 1 1 1 0 93 4 1 0 0 69 75 0 2 2 67 2 76 \012ELSE[ ]	/* Else */\012MPPEM[ ]	/* MeasurePixelPerEm */\012PUSHB[ ]	/* 1 value pushed */\01225 \012LT[ ]	/* LessThan */\012IF[ ]	/* If */\012NPUSHB[ ]	/* 26 values pushed */\0120 5 0 6 0 5 6 103 3 1 1 1 0 93 4 1 0 0 69 75 0 2 2 67 2 76 \012ELSE[ ]	/* Else */\012NPUSHB[ ]	/* 24 values pushed */\0120 5 0 6 0 5 6 103 4 1 0 3 1 1 2 0 1 101 0 2 2 67 2 76 \012EIF[ ]	/* EndIf */\012EIF[ ]	/* EndIf */\012NPUSHB[ ]	/* 10 values pushed */\01236 35 17 17 17 17 16 7 10 27 \012CALL[ ]	/* CallFunction */";
};
width = 406;
}
);
note = f;
rightKerningGroup = f;
unicode = 0066;
},
{
glyphname = g;
layers = (
{
layerId = "F251586D-48D7-42AD-80B6-8A992ABEF986";
paths = (
{
closed = 1;
nodes = (
"463 542 LINE",
"463 476 LINE",
"409 551 OFFCURVE",
"293 551 QCURVE SMOOTH",
"221 551 OFFCURVE",
"99 486 OFFCURVE",
"27 367 OFFCURVE",
"27 290 QCURVE SMOOTH",
"27 212 OFFCURVE",
"99 93 OFFCURVE",
"221 28 OFFCURVE",
"293 28 QCURVE SMOOTH",
"399 28 OFFCURVE",
"454 92 QCURVE",
"454 74 LINE SMOOTH",
"454 9 OFFCURVE",
"384 -57 OFFCURVE",
"309 -57 QCURVE SMOOTH",
"260 -57 OFFCURVE",
"159 -26 OFFCURVE",
"126 1 QCURVE",
"57 -132 LINE",
"106 -167 OFFCURVE",
"246 -203 OFFCURVE",
"326 -203 QCURVE SMOOTH",
"480 -203 OFFCURVE",
"644 -52 OFFCURVE",
"644 99 QCURVE SMOOTH",
"644 542 LINE",
"644 542 LINE"
);
},
{
closed = 1;
nodes = (
"287 179 OFFCURVE",
"219 241 OFFCURVE",
"219 290 QCURVE SMOOTH",
"219 339 OFFCURVE",
"286 400 OFFCURVE",
"338 400 QCURVE SMOOTH",
"390 400 OFFCURVE",
"456 339 OFFCURVE",
"456 290 QCURVE SMOOTH",
"456 241 OFFCURVE",
"389 179 OFFCURVE",
"338 179 QCURVE",
"338 179 LINE"
);
}
);
userData = {
assembly = "MPPEM[ ]	/* MeasurePixelPerEm */\012PUSHB[ ]	/* 1 value pushed */\01227 \012LT[ ]	/* LessThan */\012IF[ ]	/* If */\012NPUSHB[ ]	/* 18 values pushed */\01227 1 5 3 15 1 2 6 8 1 1 2 7 1 0 1 4 74 \012ELSE[ ]	/* Else */\012NPUSHB[ ]	/* 18 values pushed */\01227 1 5 4 15 1 2 6 8 1 1 2 7 1 0 1 4 74 \012EIF[ ]	/* EndIf */\012MPPEM[ ]	/* MeasurePixelPerEm */\012PUSHB[ ]	/* 1 value pushed */\01227 \012LT[ ]	/* LessThan */\012IF[ ]	/* If */\012NPUSHB[ ]	/* 32 values pushed */\0128 1 6 0 2 1 6 2 103 0 5 5 3 95 7 4 2 3 3 75 75 0 1 1 0 96 0 0 0 77 0 76 \012ELSE[ ]	/* Else */\012NPUSHB[ ]	/* 36 values pushed */\0128 1 6 0 2 1 6 2 103 7 1 4 4 69 75 0 5 5 3 95 0 3 3 75 75 0 1 1 0 96 0 0 0 77 0 76 \012EIF[ ]	/* EndIf */\012NPUSHB[ ]	/* 21 values pushed */\01229 29 0 0 29 40 29 39 35 33 0 28 0 28 38 36 37 35 9 10 24 \012CALL[ ]	/* CallFunction */";
};
width = 705;
}
);
leftKerningGroup = c;
note = g;
rightKerningGroup = Lj;
unicode = 0067;
},
{
glyphname = gstroke;
layers = (
{
layerId = "F251586D-48D7-42AD-80B6-8A992ABEF986";
paths = (
{
closed = 1;
nodes = (
"707 54 LINE",
"642 54 LINE",
"644 82 OFFCURVE",
"644 99 QCURVE SMOOTH",
"644 542 LINE",
"463 542 LINE",
"463 476 LINE",
"404 550 OFFCURVE",
"285 550 QCURVE SMOOTH",
"209 550 OFFCURVE",
"92 490 OFFCURVE",
"27 383 OFFCURVE",
"27 315 QCURVE SMOOTH",
"27 247 OFFCURVE",
"92 139 OFFCURVE",
"210 78 OFFCURVE",
"286 78 QCURVE SMOOTH",
"395 78 OFFCURVE",
"455 142 QCURVE",
"454 131 LINE",
"454 67 LINE",
"454 53 LINE",
"268 53 LINE",
"268 -25 LINE",
"425 -25 LINE",
"391 -64 OFFCURVE",
"311 -64 QCURVE SMOOTH",
"259 -64 OFFCURVE",
"158 -32 OFFCURVE",
"126 -6 QCURVE",
"57 -132 LINE",
"105 -166 OFFCURVE",
"246 -203 OFFCURVE",
"324 -203 QCURVE SMOOTH",
"445 -203 OFFCURVE",
"598 -113 OFFCURVE",
"626 -24 QCURVE",
"707 -24 LINE",
"707 -24 LINE"
);
},
{
closed = 1;
nodes = (
"284 211 OFFCURVE",
"219 267 OFFCURVE",
"219 315 QCURVE SMOOTH",
"219 362 OFFCURVE",
"284 418 OFFCURVE",
"338 418 QCURVE SMOOTH",
"391 418 OFFCURVE",
"456 362 OFFCURVE",
"456 315 QCURVE SMOOTH",
"456 267 OFFCURVE",
"392 211 OFFCURVE",
"338 211 QCURVE",
"338 211 LINE"
);
}
);
userData = {
assembly = "MPPEM[ ]	/* MeasurePixelPerEm */\012PUSHB[ ]	/* 1 value pushed */\01230 \012LT[ ]	/* LessThan */\012IF[ ]	/* If */\012NPUSHB[ ]	/* 19 values pushed */\01231 1 9 6 19 18 2 5 10 8 1 0 4 7 1 1 2 4 74 \012ELSE[ ]	/* Else */\012NPUSHB[ ]	/* 19 values pushed */\01231 1 9 7 19 18 2 5 10 8 1 0 4 7 1 1 2 4 74 \012EIF[ ]	/* EndIf */\012MPPEM[ ]	/* MeasurePixelPerEm */\012PUSHB[ ]	/* 1 value pushed */\01210 \012LT[ ]	/* LessThan */\012IF[ ]	/* If */\012NPUSHB[ ]	/* 43 values pushed */\01211 1 10 0 5 4 10 5 103 0 9 9 6 95 7 1 6 6 75 75 8 1 4 4 0 94 3 1 0 0 67 75 0 2 2 1 95 0 1 1 77 1 76 \012ELSE[ ]	/* Else */\012MPPEM[ ]	/* MeasurePixelPerEm */\012PUSHB[ ]	/* 1 value pushed */\01214 \012LT[ ]	/* LessThan */\012IF[ ]	/* If */\012NPUSHB[ ]	/* 41 values pushed */\01211 1 10 0 5 4 10 5 103 8 1 4 3 1 0 2 4 0 102 0 9 9 6 95 7 1 6 6 75 75 0 2 2 1 95 0 1 1 77 1 76 \012ELSE[ ]	/* Else */\012MPPEM[ ]	/* MeasurePixelPerEm */\012PUSHB[ ]	/* 1 value pushed */\01221 \012LT[ ]	/* LessThan */\012IF[ ]	/* If */\012NPUSHB[ ]	/* 43 values pushed */\01211 1 10 0 5 4 10 5 103 0 9 9 6 95 7 1 6 6 75 75 8 1 4 4 0 94 3 1 0 0 67 75 0 2 2 1 95 0 1 1 77 1 76 \012ELSE[ ]	/* Else */\012MPPEM[ ]	/* MeasurePixelPerEm */\012PUSHB[ ]	/* 1 value pushed */\01230 \012LT[ ]	/* LessThan */\012IF[ ]	/* If */\012NPUSHB[ ]	/* 41 values pushed */\01211 1 10 0 5 4 10 5 103 8 1 4 3 1 0 2 4 0 102 0 9 9 6 95 7 1 6 6 75 75 0 2 2 1 95 0 1 1 77 1 76 \012ELSE[ ]	/* Else */\012NPUSHB[ ]	/* 45 values pushed */\01211 1 10 0 5 4 10 5 103 8 1 4 3 1 0 2 4 0 102 0 7 7 69 75 0 9 9 6 95 0 6 6 75 75 0 2 2 1 95 0 1 1 77 1 76 \012EIF[ ]	/* EndIf */\012EIF[ ]	/* EndIf */\012EIF[ ]	/* EndIf */\012EIF[ ]	/* EndIf */\012NPUSHB[ ]	/* 20 values pushed */\01238 38 38 49 38 48 44 42 19 18 38 36 17 17 37 34 16 12 10 29 \012CALL[ ]	/* CallFunction */";
};
width = 718;
}
);
leftKerningGroup = c;
note = uni01E5;
unicode = 01E5;
},
{
glyphname = h;
layers = (
{
layerId = "F251586D-48D7-42AD-80B6-8A992ABEF986";
paths = (
{
closed = 1;
nodes = (
"366 551 OFFCURVE",
"282 521 OFFCURVE",
"251 492 QCURVE",
"251 742 LINE",
"61 742 LINE",
"61 0 LINE",
"251 0 LINE",
"251 262 LINE SMOOTH",
"251 326 OFFCURVE",
"310 390 OFFCURVE",
"359 390 QCURVE SMOOTH",
"448 390 OFFCURVE",
"448 279 QCURVE SMOOTH",
"448 0 LINE",
"638 0 LINE",
"638 310 LINE SMOOTH",
"638 431 OFFCURVE",
"515 551 OFFCURVE",
"414 551 QCURVE",
"414 551 LINE"
);
}
);
userData = {
assembly = "PUSHB[ ]	/* 6 values pushed */\01215 1 1 4 1 74 \012MPPEM[ ]	/* MeasurePixelPerEm */\012PUSHB[ ]	/* 1 value pushed */\01212 \012LT[ ]	/* LessThan */\012IF[ ]	/* If */\012NPUSHB[ ]	/* 23 values pushed */\0120 3 3 68 75 0 1 1 4 95 5 1 4 4 75 75 2 1 0 0 67 0 76 \012ELSE[ ]	/* Else */\012NPUSHB[ ]	/* 23 values pushed */\0120 1 1 4 95 5 1 4 4 75 75 0 3 3 0 93 2 1 0 0 67 0 76 \012EIF[ ]	/* EndIf */\012NPUSHB[ ]	/* 13 values pushed */\0120 0 0 18 0 17 17 19 34 19 6 10 24 \012CALL[ ]	/* CallFunction */";
};
width = 696;
}
);
leftKerningGroup = b;
note = h;
rightKerningGroup = a;
unicode = 0068;
},
{
glyphname = idotless;
layers = (
{
layerId = "F251586D-48D7-42AD-80B6-8A992ABEF986";
paths = (
{
closed = 1;
nodes = (
"61 0 LINE",
"251 0 LINE",
"251 542 LINE",
"61 542 LINE",
"61 542 LINE"
);
}
);
userData = {
assembly = "NPUSHB[ ]	/* 16 values pushed */\0120 0 0 69 75 0 1 1 67 1 76 17 16 2 10 22 \012CALL[ ]	/* CallFunction */";
};
width = 313;
}
);
leftKerningGroup = i;
note = dotlessi;
rightKerningGroup = Lj;
unicode = 0131;
},
{
glyphname = jdotless;
layers = (
{
layerId = "F251586D-48D7-42AD-80B6-8A992ABEF986";
paths = (
{
closed = 1;
nodes = (
"142 -203 OFFCURVE",
"259 -86 OFFCURVE",
"259 14 QCURVE SMOOTH",
"259 542 LINE",
"69 542 LINE",
"69 15 LINE SMOOTH",
"69 -20 OFFCURVE",
"39 -56 OFFCURVE",
"13 -56 QCURVE SMOOTH",
"-20 -56 OFFCURVE",
"-46 -40 QCURVE",
"-94 -175 LINE",
"-45 -203 OFFCURVE",
"38 -203 QCURVE",
"38 -203 LINE"
);
}
);
userData = {
assembly = "NPUSHB[ ]	/* 38 values pushed */\0122 1 0 1 1 1 2 0 2 74 0 1 1 69 75 0 0 0 2 96 3 1 2 2 77 2 76 0 0 0 13 0 12 19 35 4 10 22 \012CALL[ ]	/* CallFunction */";
};
width = 320;
}
);
leftKerningGroup = j;
note = uni0237;
rightKerningGroup = Lj;
unicode = 0237;
},
{
glyphname = k;
layers = (
{
layerId = "F251586D-48D7-42AD-80B6-8A992ABEF986";
paths = (
{
closed = 1;
nodes = (
"459 0 LINE",
"689 0 LINE",
"445 310 LINE",
"670 542 LINE",
"445 542 LINE",
"251 353 LINE",
"251 742 LINE",
"61 742 LINE",
"61 0 LINE",
"251 0 LINE",
"251 133 LINE",
"307 190 LINE",
"307 190 LINE"
);
}
);
userData = {
assembly = "PUSHB[ ]	/* 8 values pushed */\0129 6 1 3 0 2 1 74 \012MPPEM[ ]	/* MeasurePixelPerEm */\012PUSHB[ ]	/* 1 value pushed */\01212 \012LT[ ]	/* LessThan */\012IF[ ]	/* If */\012NPUSHB[ ]	/* 17 values pushed */\0120 1 1 68 75 0 2 2 69 75 3 1 0 0 67 0 76 \012ELSE[ ]	/* Else */\012NPUSHB[ ]	/* 23 values pushed */\0120 1 1 0 93 3 1 0 0 67 75 0 2 2 69 75 3 1 0 0 67 0 76 \012EIF[ ]	/* EndIf */\012PUSHB[ ]	/* 7 values pushed */\01218 18 17 18 4 10 24 \012CALL[ ]	/* CallFunction */";
};
width = 686;
}
);
leftKerningGroup = b;
note = k;
rightKerningGroup = k;
unicode = 006B;
},
{
glyphname = kgreenlandic;
layers = (
{
layerId = "F251586D-48D7-42AD-80B6-8A992ABEF986";
paths = (
{
closed = 1;
nodes = (
"459 0 LINE",
"689 0 LINE",
"445 310 LINE",
"670 542 LINE",
"445 542 LINE",
"251 353 LINE",
"251 542 LINE",
"61 542 LINE",
"61 0 LINE",
"251 0 LINE",
"251 133 LINE",
"307 190 LINE",
"307 190 LINE"
);
}
);
userData = {
assembly = "NPUSHB[ ]	/* 28 values pushed */\0129 6 1 3 0 1 1 74 2 1 1 1 69 75 3 1 0 0 67 0 76 18 18 17 18 4 10 24 \012CALL[ ]	/* CallFunction */";
};
width = 667;
}
);
leftKerningGroup = i;
note = kgreenlandic;
rightKerningGroup = k;
unicode = 0138;
},
{
glyphname = l;
layers = (
{
layerId = "F251586D-48D7-42AD-80B6-8A992ABEF986";
paths = (
{
closed = 1;
nodes = (
"61 0 LINE",
"251 0 LINE",
"251 742 LINE",
"61 742 LINE",
"61 742 LINE"
);
}
);
userData = {
assembly = "MPPEM[ ]	/* MeasurePixelPerEm */\012PUSHB[ ]	/* 1 value pushed */\01212 \012LT[ ]	/* LessThan */\012IF[ ]	/* If */\012NPUSHB[ ]	/* 11 values pushed */\0120 0 0 68 75 0 1 1 67 1 76 \012ELSE[ ]	/* Else */\012NPUSHB[ ]	/* 11 values pushed */\0120 0 0 1 93 0 1 1 67 1 76 \012EIF[ ]	/* EndIf */\012PUSHB[ ]	/* 5 values pushed */\01217 16 2 10 22 \012CALL[ ]	/* CallFunction */";
};
width = 313;
}
);
leftKerningGroup = b;
note = l;
rightKerningGroup = d;
unicode = 006C;
},
{
glyphname = m;
layers = (
{
layerId = "F251586D-48D7-42AD-80B6-8A992ABEF986";
paths = (
{
closed = 1;
nodes = (
"709 551 OFFCURVE",
"611 507 OFFCURVE",
"579 466 QCURVE",
"551 509 OFFCURVE",
"461 551 OFFCURVE",
"404 551 QCURVE SMOOTH",
"355 551 OFFCURVE",
"272 518 OFFCURVE",
"242 485 QCURVE",
"242 542 LINE",
"61 542 LINE",
"61 0 LINE",
"251 0 LINE",
"251 269 LINE SMOOTH",
"251 330 OFFCURVE",
"303 390 OFFCURVE",
"347 390 QCURVE SMOOTH",
"429 390 OFFCURVE",
"429 279 QCURVE SMOOTH",
"429 0 LINE",
"619 0 LINE",
"619 269 LINE SMOOTH",
"619 330 OFFCURVE",
"671 390 OFFCURVE",
"714 390 QCURVE SMOOTH",
"753 390 OFFCURVE",
"796 336 OFFCURVE",
"796 279 QCURVE SMOOTH",
"796 0 LINE",
"986 0 LINE",
"986 310 LINE SMOOTH",
"986 431 OFFCURVE",
"867 551 OFFCURVE",
"767 551 QCURVE",
"767 551 LINE"
);
}
);
userData = {
assembly = "PUSHB[ ]	/* 7 values pushed */\01230 24 2 1 5 1 74 \012MPPEM[ ]	/* MeasurePixelPerEm */\012PUSHB[ ]	/* 1 value pushed */\01227 \012LT[ ]	/* LessThan */\012IF[ ]	/* If */\012NPUSHB[ ]	/* 22 values pushed */\0123 1 1 1 5 95 8 7 6 3 5 5 69 75 4 2 2 0 0 67 0 76 \012ELSE[ ]	/* Else */\012NPUSHB[ ]	/* 26 values pushed */\0120 5 5 69 75 3 1 1 1 6 95 8 7 2 6 6 75 75 4 2 2 0 0 67 0 76 \012EIF[ ]	/* EndIf */\012NPUSHB[ ]	/* 16 values pushed */\0120 0 0 33 0 32 35 17 19 34 19 35 19 9 10 27 \012CALL[ ]	/* CallFunction */";
};
width = 1045;
}
);
leftKerningGroup = i;
note = m;
rightKerningGroup = a;
unicode = 006D;
},
{
glyphname = n;
layers = (
{
layerId = "F251586D-48D7-42AD-80B6-8A992ABEF986";
paths = (
{
closed = 1;
nodes = (
"362 551 OFFCURVE",
"274 516 OFFCURVE",
"242 483 QCURVE",
"242 542 LINE",
"61 542 LINE",
"61 0 LINE",
"251 0 LINE",
"251 262 LINE SMOOTH",
"251 326 OFFCURVE",
"310 390 OFFCURVE",
"359 390 QCURVE SMOOTH",
"448 390 OFFCURVE",
"448 279 QCURVE SMOOTH",
"448 0 LINE",
"638 0 LINE",
"638 310 LINE SMOOTH",
"638 431 OFFCURVE",
"515 551 OFFCURVE",
"414 551 QCURVE",
"414 551 LINE"
);
}
);
userData = {
assembly = "PUSHB[ ]	/* 6 values pushed */\01215 1 1 3 1 74 \012MPPEM[ ]	/* MeasurePixelPerEm */\012PUSHB[ ]	/* 1 value pushed */\01227 \012LT[ ]	/* LessThan */\012IF[ ]	/* If */\012NPUSHB[ ]	/* 19 values pushed */\0120 1 1 3 95 5 4 2 3 3 69 75 2 1 0 0 67 0 76 \012ELSE[ ]	/* Else */\012NPUSHB[ ]	/* 23 values pushed */\0120 3 3 69 75 0 1 1 4 95 5 1 4 4 75 75 2 1 0 0 67 0 76 \012EIF[ ]	/* EndIf */\012NPUSHB[ ]	/* 13 values pushed */\0120 0 0 18 0 17 17 19 34 19 6 10 24 \012CALL[ ]	/* CallFunction */";
};
width = 696;
}
);
leftKerningGroup = i;
note = n;
rightKerningGroup = a;
unicode = 006E;
},
{
glyphname = eng;
layers = (
{
layerId = "F251586D-48D7-42AD-80B6-8A992ABEF986";
paths = (
{
closed = 1;
nodes = (
"362 551 OFFCURVE",
"274 516 OFFCURVE",
"242 483 QCURVE",
"242 542 LINE",
"61 542 LINE",
"61 0 LINE",
"251 0 LINE",
"251 262 LINE SMOOTH",
"251 326 OFFCURVE",
"310 390 OFFCURVE",
"359 390 QCURVE SMOOTH",
"448 390 OFFCURVE",
"448 279 QCURVE SMOOTH",
"448 15 LINE SMOOTH",
"448 -20 OFFCURVE",
"418 -56 OFFCURVE",
"392 -56 QCURVE SMOOTH",
"359 -56 OFFCURVE",
"333 -40 QCURVE",
"285 -175 LINE",
"334 -203 OFFCURVE",
"417 -203 QCURVE SMOOTH",
"521 -203 OFFCURVE",
"638 -86 OFFCURVE",
"638 14 QCURVE SMOOTH",
"638 310 LINE SMOOTH",
"638 431 OFFCURVE",
"515 551 OFFCURVE",
"414 551 QCURVE",
"414 551 LINE"
);
}
);
userData = {
assembly = "NPUSHB[ ]	/* 14 values pushed */\01225 1 2 4 9 1 1 3 8 1 0 1 3 74 \012MPPEM[ ]	/* MeasurePixelPerEm */\012PUSHB[ ]	/* 1 value pushed */\01227 \012LT[ ]	/* LessThan */\012IF[ ]	/* If */\012NPUSHB[ ]	/* 28 values pushed */\0120 2 2 4 95 6 5 2 4 4 69 75 0 3 3 67 75 0 1 1 0 95 0 0 0 77 0 76 \012ELSE[ ]	/* Else */\012NPUSHB[ ]	/* 32 values pushed */\0120 4 4 69 75 0 2 2 5 95 6 1 5 5 75 75 0 3 3 67 75 0 1 1 0 95 0 0 0 77 0 76 \012EIF[ ]	/* EndIf */\012NPUSHB[ ]	/* 14 values pushed */\0120 0 0 28 0 27 17 19 36 35 37 7 10 25 \012CALL[ ]	/* CallFunction */";
};
width = 696;
}
);
leftKerningGroup = i;
note = eng;
rightKerningGroup = a;
unicode = 014B;
},
{
glyphname = o;
layers = (
{
layerId = "F251586D-48D7-42AD-80B6-8A992ABEF986";
paths = (
{
closed = 1;
nodes = (
"421 -9 OFFCURVE",
"561 63 OFFCURVE",
"639 191 OFFCURVE",
"639 272 QCURVE SMOOTH",
"639 353 OFFCURVE",
"561 480 OFFCURVE",
"421 551 OFFCURVE",
"333 551 QCURVE SMOOTH",
"245 551 OFFCURVE",
"106 480 OFFCURVE",
"27 352 OFFCURVE",
"27 272 QCURVE SMOOTH",
"27 191 OFFCURVE",
"106 63 OFFCURVE",
"246 -9 OFFCURVE",
"333 -9 QCURVE",
"333 -9 LINE"
);
},
{
closed = 1;
nodes = (
"283 142 OFFCURVE",
"219 211 OFFCURVE",
"219 272 QCURVE SMOOTH",
"219 332 OFFCURVE",
"283 400 OFFCURVE",
"333 400 QCURVE SMOOTH",
"383 400 OFFCURVE",
"447 332 OFFCURVE",
"447 272 QCURVE SMOOTH",
"447 211 OFFCURVE",
"383 142 OFFCURVE",
"333 142 QCURVE",
"333 142 LINE"
);
}
);
userData = {
assembly = "NPUSHB[ ]	/* 41 values pushed */\0120 2 2 0 95 0 0 0 75 75 5 1 3 3 1 95 4 1 1 1 76 1 76 16 16 0 0 16 27 16 26 22 20 0 15 0 14 38 6 10 21 \012CALL[ ]	/* CallFunction */";
};
width = 666;
}
);
leftKerningGroup = c;
note = o;
rightKerningGroup = b;
unicode = 006F;
},
{
glyphname = ohorn;
layers = (
{
layerId = "F251586D-48D7-42AD-80B6-8A992ABEF986";
paths = (
{
closed = 1;
nodes = (
"596 485 OFFCURVE",
"634 554 OFFCURVE",
"634 597 QCURVE SMOOTH",
"634 655 OFFCURVE",
"598 703 QCURVE",
"489 663 LINE",
"511 637 OFFCURVE",
"511 605 QCURVE SMOOTH",
"511 576 OFFCURVE",
"481 542 OFFCURVE",
"453 542 QCURVE SMOOTH",
"440 542 OFFCURVE",
"408 546 QCURVE SMOOTH",
"356 551 OFFCURVE",
"335 551 QCURVE SMOOTH",
"246 551 OFFCURVE",
"106 480 OFFCURVE",
"27 353 OFFCURVE",
"27 272 QCURVE SMOOTH",
"27 191 OFFCURVE",
"106 63 OFFCURVE",
"245 -9 OFFCURVE",
"333 -9 QCURVE SMOOTH",
"421 -9 OFFCURVE",
"560 63 OFFCURVE",
"639 191 OFFCURVE",
"639 272 QCURVE SMOOTH",
"639 329 OFFCURVE",
"599 427 OFFCURVE",
"562 464 QCURVE",
"562 464 LINE"
);
},
{
closed = 1;
nodes = (
"283 142 OFFCURVE",
"219 211 OFFCURVE",
"219 272 QCURVE SMOOTH",
"219 332 OFFCURVE",
"283 400 OFFCURVE",
"333 400 QCURVE SMOOTH",
"383 400 OFFCURVE",
"447 332 OFFCURVE",
"447 272 QCURVE SMOOTH",
"447 211 OFFCURVE",
"383 142 OFFCURVE",
"333 142 QCURVE",
"333 142 LINE"
);
}
);
userData = {
assembly = "MPPEM[ ]	/* MeasurePixelPerEm */\012PUSHB[ ]	/* 1 value pushed */\01227 \012LT[ ]	/* LessThan */\012IF[ ]	/* If */\012NPUSHB[ ]	/* 11 values pushed */\01229 1 3 1 1 74 24 23 2 1 72 \012ELSE[ ]	/* Else */\012NPUSHB[ ]	/* 11 values pushed */\01229 1 3 2 1 74 24 23 2 1 72 \012EIF[ ]	/* EndIf */\012MPPEM[ ]	/* MeasurePixelPerEm */\012PUSHB[ ]	/* 1 value pushed */\01227 \012LT[ ]	/* LessThan */\012IF[ ]	/* If */\012NPUSHB[ ]	/* 23 values pushed */\0120 3 3 1 95 2 1 1 1 75 75 5 1 4 4 0 95 0 0 0 76 0 76 \012ELSE[ ]	/* Else */\012NPUSHB[ ]	/* 27 values pushed */\0120 2 2 69 75 0 3 3 1 95 0 1 1 75 75 5 1 4 4 0 95 0 0 0 76 0 76 \012EIF[ ]	/* EndIf */\012NPUSHB[ ]	/* 13 values pushed */\01230 30 30 41 30 40 47 34 38 37 6 10 24 \012CALL[ ]	/* CallFunction */";
};
width = 666;
}
);
leftKerningGroup = c;
note = ohorn;
rightKerningGroup = ohorn;
unicode = 01A1;
},
{
glyphname = oogonek;
layers = (
{
layerId = "F251586D-48D7-42AD-80B6-8A992ABEF986";
paths = (
{
closed = 1;
nodes = (
"542 46 OFFCURVE",
"639 182 OFFCURVE",
"639 272 QCURVE SMOOTH",
"639 353 OFFCURVE",
"561 480 OFFCURVE",
"421 551 OFFCURVE",
"333 551 QCURVE SMOOTH",
"245 551 OFFCURVE",
"106 480 OFFCURVE",
"27 352 OFFCURVE",
"27 272 QCURVE SMOOTH",
"27 200 OFFCURVE",
"91 81 OFFCURVE",
"206 5 OFFCURVE",
"280 -5 QCURVE",
"216 -52 OFFCURVE",
"216 -119 QCURVE SMOOTH",
"216 -172 OFFCURVE",
"295 -236 OFFCURVE",
"364 -236 QCURVE SMOOTH",
"393 -236 OFFCURVE",
"453 -223 OFFCURVE",
"471 -213 QCURVE",
"446 -131 LINE",
"418 -146 OFFCURVE",
"387 -146 QCURVE SMOOTH",
"360 -146 OFFCURVE",
"331 -121 OFFCURVE",
"331 -101 QCURVE SMOOTH",
"331 -71 OFFCURVE",
"386 -16 OFFCURVE",
"457 12 QCURVE",
"457 12 LINE"
);
},
{
closed = 1;
nodes = (
"219 332 OFFCURVE",
"283 400 OFFCURVE",
"333 400 QCURVE SMOOTH",
"383 400 OFFCURVE",
"447 332 OFFCURVE",
"447 272 QCURVE SMOOTH",
"447 211 OFFCURVE",
"383 142 OFFCURVE",
"333 142 QCURVE SMOOTH",
"283 142 OFFCURVE",
"219 211 OFFCURVE",
"219 272 QCURVE",
"219 272 LINE"
);
}
);
userData = {
assembly = "NPUSHB[ ]	/* 45 values pushed */\01216 7 2 0 3 8 1 1 0 2 74 0 3 4 0 4 3 0 126 0 0 0 1 0 1 100 0 4 4 2 95 0 2 2 75 4 76 36 40 43 36 36 5 10 25 \012CALL[ ]	/* CallFunction */";
};
width = 666;
}
);
leftKerningGroup = c;
note = uni01EB;
rightKerningGroup = b;
unicode = 01EB;
},
{
glyphname = oe;
layers = (
{
layerId = "F251586D-48D7-42AD-80B6-8A992ABEF986";
paths = (
{
closed = 1;
nodes = (
"1036 358 OFFCURVE",
"958 484 OFFCURVE",
"826 551 OFFCURVE",
"746 551 QCURVE SMOOTH",
"683 551 OFFCURVE",
"577 509 OFFCURVE",
"540 471 QCURVE",
"502 509 OFFCURVE",
"395 551 OFFCURVE",
"330 551 QCURVE SMOOTH",
"244 551 OFFCURVE",
"106 479 OFFCURVE",
"27 352 OFFCURVE",
"27 272 QCURVE SMOOTH",
"27 191 OFFCURVE",
"106 63 OFFCURVE",
"244 -9 OFFCURVE",
"330 -9 QCURVE SMOOTH",
"396 -9 OFFCURVE",
"503 34 OFFCURVE",
"541 73 QCURVE",
"581 34 OFFCURVE",
"695 -9 OFFCURVE",
"766 -9 QCURVE SMOOTH",
"838 -9 OFFCURVE",
"958 36 OFFCURVE",
"997 79 QCURVE",
"894 183 LINE",
"866 159 OFFCURVE",
"807 136 OFFCURVE",
"771 136 QCURVE SMOOTH",
"718 136 OFFCURVE",
"648 182 OFFCURVE",
"636 223 QCURVE",
"1033 223 LINE",
"1036 246 OFFCURVE",
"1036 272 QCURVE",
"1036 272 LINE"
);
},
{
closed = 1;
nodes = (
"791 416 OFFCURVE",
"848 366 OFFCURVE",
"856 323 QCURVE",
"634 323 LINE",
"642 366 OFFCURVE",
"701 416 OFFCURVE",
"746 416 QCURVE",
"746 416 LINE"
);
},
{
closed = 1;
nodes = (
"283 142 OFFCURVE",
"219 211 OFFCURVE",
"219 272 QCURVE SMOOTH",
"219 332 OFFCURVE",
"283 400 OFFCURVE",
"333 400 QCURVE SMOOTH",
"383 400 OFFCURVE",
"447 332 OFFCURVE",
"447 272 QCURVE SMOOTH",
"447 211 OFFCURVE",
"383 142 OFFCURVE",
"333 142 QCURVE",
"333 142 LINE"
);
}
);
userData = {
assembly = "MPPEM[ ]	/* MeasurePixelPerEm */\012PUSHB[ ]	/* 1 value pushed */\01239 \012LT[ ]	/* LessThan */\012IF[ ]	/* If */\012NPUSHB[ ]	/* 15 values pushed */\01229 1 7 4 8 1 1 0 15 9 2 2 1 3 74 \012ELSE[ ]	/* Else */\012NPUSHB[ ]	/* 15 values pushed */\01229 1 7 4 8 1 9 0 15 9 2 2 1 3 74 \012EIF[ ]	/* EndIf */\012MPPEM[ ]	/* MeasurePixelPerEm */\012PUSHB[ ]	/* 1 value pushed */\01216 \012LT[ ]	/* LessThan */\012IF[ ]	/* If */\012NPUSHB[ ]	/* 35 values pushed */\0120 6 0 0 1 6 0 101 8 10 2 7 7 4 95 5 1 4 4 75 75 11 9 2 1 1 2 95 3 1 2 2 76 2 76 \012ELSE[ ]	/* Else */\012MPPEM[ ]	/* MeasurePixelPerEm */\012PUSHB[ ]	/* 1 value pushed */\01239 \012LT[ ]	/* LessThan */\012IF[ ]	/* If */\012NPUSHB[ ]	/* 45 values pushed */\0120 6 0 0 1 6 0 101 10 1 7 7 4 95 5 1 4 4 75 75 0 8 8 4 95 5 1 4 4 75 75 11 9 2 1 1 2 95 3 1 2 2 76 2 76 \012ELSE[ ]	/* Else */\012NPUSHB[ ]	/* 55 values pushed */\0120 6 0 0 9 6 0 101 10 1 7 7 4 95 5 1 4 4 75 75 0 8 8 4 95 5 1 4 4 75 75 11 1 9 9 2 95 3 1 2 2 76 75 0 1 1 2 95 3 1 2 2 76 2 76 \012EIF[ ]	/* EndIf */\012EIF[ ]	/* EndIf */\012NPUSHB[ ]	/* 24 values pushed */\01244 44 37 37 44 55 44 54 50 48 37 43 37 42 22 36 38 36 37 34 17 12 10 27 \012CALL[ ]	/* CallFunction */";
};
width = 1063;
}
);
leftKerningGroup = c;
note = oe;
rightKerningGroup = ae;
unicode = 0153;
},
{
glyphname = p;
layers = (
{
layerId = "F251586D-48D7-42AD-80B6-8A992ABEF986";
paths = (
{
closed = 1;
nodes = (
"295 551 OFFCURVE",
"242 488 QCURVE",
"242 542 LINE",
"61 542 LINE",
"61 -194 LINE",
"251 -194 LINE",
"251 48 LINE",
"307 -9 OFFCURVE",
"402 -9 QCURVE SMOOTH",
"476 -9 OFFCURVE",
"597 60 OFFCURVE",
"668 187 OFFCURVE",
"668 271 QCURVE SMOOTH",
"668 355 OFFCURVE",
"597 482 OFFCURVE",
"476 551 OFFCURVE",
"402 551 QCURVE",
"402 551 LINE"
);
},
{
closed = 1;
nodes = (
"312 142 OFFCURVE",
"248 211 OFFCURVE",
"248 271 QCURVE SMOOTH",
"248 331 OFFCURVE",
"312 400 OFFCURVE",
"362 400 QCURVE SMOOTH",
"412 400 OFFCURVE",
"476 331 OFFCURVE",
"476 271 QCURVE SMOOTH",
"476 211 OFFCURVE",
"412 142 OFFCURVE",
"362 142 QCURVE",
"362 142 LINE"
);
}
);
userData = {
assembly = "NPUSHB[ ]	/* 10 values pushed */\01214 1 4 2 9 1 0 5 2 74 \012MPPEM[ ]	/* MeasurePixelPerEm */\012PUSHB[ ]	/* 1 value pushed */\01227 \012LT[ ]	/* LessThan */\012IF[ ]	/* If */\012NPUSHB[ ]	/* 29 values pushed */\0120 4 4 2 95 6 3 2 2 2 69 75 7 1 5 5 0 95 0 0 0 76 75 0 1 1 71 1 76 \012ELSE[ ]	/* Else */\012NPUSHB[ ]	/* 33 values pushed */\0120 2 2 69 75 0 4 4 3 95 6 1 3 3 75 75 7 1 5 5 0 95 0 0 0 76 75 0 1 1 71 1 76 \012EIF[ ]	/* EndIf */\012NPUSHB[ ]	/* 20 values pushed */\01217 17 0 0 17 28 17 27 23 21 0 16 0 15 17 18 38 8 10 23 \012CALL[ ]	/* CallFunction */";
};
width = 695;
}
);
leftKerningGroup = i;
note = p;
rightKerningGroup = b;
unicode = 0070;
},
{
glyphname = thorn;
layers = (
{
layerId = "F251586D-48D7-42AD-80B6-8A992ABEF986";
paths = (
{
closed = 1;
nodes = (
"304 551 OFFCURVE",
"251 498 QCURVE",
"251 742 LINE",
"61 742 LINE",
"61 -194 LINE",
"251 -194 LINE",
"251 48 LINE",
"307 -9 OFFCURVE",
"402 -9 QCURVE SMOOTH",
"476 -9 OFFCURVE",
"597 60 OFFCURVE",
"668 187 OFFCURVE",
"668 271 QCURVE SMOOTH",
"668 355 OFFCURVE",
"597 482 OFFCURVE",
"476 551 OFFCURVE",
"402 551 QCURVE",
"402 551 LINE"
);
},
{
closed = 1;
nodes = (
"312 142 OFFCURVE",
"248 211 OFFCURVE",
"248 271 QCURVE SMOOTH",
"248 331 OFFCURVE",
"312 400 OFFCURVE",
"362 400 QCURVE SMOOTH",
"412 400 OFFCURVE",
"476 331 OFFCURVE",
"476 271 QCURVE SMOOTH",
"476 211 OFFCURVE",
"412 142 OFFCURVE",
"362 142 QCURVE",
"362 142 LINE"
);
}
);
userData = {
assembly = "NPUSHB[ ]	/* 10 values pushed */\01214 1 4 3 9 1 0 5 2 74 \012MPPEM[ ]	/* MeasurePixelPerEm */\012PUSHB[ ]	/* 1 value pushed */\01212 \012LT[ ]	/* LessThan */\012IF[ ]	/* If */\012NPUSHB[ ]	/* 33 values pushed */\0120 2 2 68 75 0 4 4 3 95 6 1 3 3 75 75 7 1 5 5 0 95 0 0 0 76 75 0 1 1 71 1 76 \012ELSE[ ]	/* Else */\012NPUSHB[ ]	/* 33 values pushed */\0120 4 4 3 95 6 1 3 3 75 75 7 1 5 5 0 95 0 0 0 76 75 0 2 2 1 93 0 1 1 71 1 76 \012EIF[ ]	/* EndIf */\012NPUSHB[ ]	/* 20 values pushed */\01217 17 0 0 17 28 17 27 23 21 0 16 0 15 17 18 38 8 10 23 \012CALL[ ]	/* CallFunction */";
};
width = 695;
}
);
leftKerningGroup = b;
note = thorn;
rightKerningGroup = b;
unicode = 00FE;
},
{
glyphname = q;
layers = (
{
layerId = "F251586D-48D7-42AD-80B6-8A992ABEF986";
paths = (
{
closed = 1;
nodes = (
"453 542 LINE",
"453 488 LINE",
"400 551 OFFCURVE",
"293 551 QCURVE SMOOTH",
"219 551 OFFCURVE",
"98 482 OFFCURVE",
"27 355 OFFCURVE",
"27 271 QCURVE SMOOTH",
"27 187 OFFCURVE",
"98 60 OFFCURVE",
"219 -9 OFFCURVE",
"293 -9 QCURVE SMOOTH",
"389 -9 OFFCURVE",
"444 48 QCURVE",
"444 -194 LINE",
"634 -194 LINE",
"634 542 LINE",
"634 542 LINE"
);
},
{
closed = 1;
nodes = (
"283 142 OFFCURVE",
"219 211 OFFCURVE",
"219 271 QCURVE SMOOTH",
"219 331 OFFCURVE",
"283 400 OFFCURVE",
"333 400 QCURVE SMOOTH",
"383 400 OFFCURVE",
"447 331 OFFCURVE",
"447 271 QCURVE SMOOTH",
"447 211 OFFCURVE",
"383 142 OFFCURVE",
"333 142 QCURVE",
"333 142 LINE"
);
}
);
userData = {
assembly = "MPPEM[ ]	/* MeasurePixelPerEm */\012PUSHB[ ]	/* 1 value pushed */\01227 \012LT[ ]	/* LessThan */\012IF[ ]	/* If */\012NPUSHB[ ]	/* 10 values pushed */\01215 1 4 2 3 1 1 5 2 74 \012ELSE[ ]	/* Else */\012NPUSHB[ ]	/* 10 values pushed */\01215 1 4 3 3 1 1 5 2 74 \012EIF[ ]	/* EndIf */\012MPPEM[ ]	/* MeasurePixelPerEm */\012PUSHB[ ]	/* 1 value pushed */\01227 \012LT[ ]	/* LessThan */\012IF[ ]	/* If */\012NPUSHB[ ]	/* 29 values pushed */\0120 4 4 2 95 6 3 2 2 2 75 75 7 1 5 5 1 95 0 1 1 76 75 0 0 0 71 0 76 \012ELSE[ ]	/* Else */\012NPUSHB[ ]	/* 33 values pushed */\0126 1 3 3 69 75 0 4 4 2 95 0 2 2 75 75 7 1 5 5 1 95 0 1 1 76 75 0 0 0 71 0 76 \012EIF[ ]	/* EndIf */\012NPUSHB[ ]	/* 20 values pushed */\01217 17 0 0 17 28 17 27 23 21 0 16 0 16 38 34 17 8 10 23 \012CALL[ ]	/* CallFunction */";
};
width = 695;
}
);
leftKerningGroup = c;
note = q;
rightKerningGroup = Lj;
unicode = 0071;
},
{
glyphname = r;
layers = (
{
layerId = "F251586D-48D7-42AD-80B6-8A992ABEF986";
paths = (
{
closed = 1;
nodes = (
"242 542 LINE",
"61 542 LINE",
"61 0 LINE",
"251 0 LINE",
"251 249 LINE SMOOTH",
"251 317 OFFCURVE",
"320 383 OFFCURVE",
"381 383 QCURVE SMOOTH",
"398 383 OFFCURVE",
"424 380 QCURVE",
"424 551 LINE",
"364 551 OFFCURVE",
"271 514 OFFCURVE",
"242 477 QCURVE",
"242 477 LINE"
);
}
);
userData = {
assembly = "MPPEM[ ]	/* MeasurePixelPerEm */\012PUSHB[ ]	/* 1 value pushed */\01227 \012LT[ ]	/* LessThan */\012IF[ ]	/* If */\012NPUSHB[ ]	/* 10 values pushed */\01213 1 1 0 3 1 2 1 2 74 \012ELSE[ ]	/* Else */\012NPUSHB[ ]	/* 10 values pushed */\01213 1 1 3 3 1 2 1 2 74 \012EIF[ ]	/* EndIf */\012MPPEM[ ]	/* MeasurePixelPerEm */\012PUSHB[ ]	/* 1 value pushed */\01227 \012LT[ ]	/* LessThan */\012IF[ ]	/* If */\012NPUSHB[ ]	/* 17 values pushed */\0120 1 1 0 95 3 1 0 0 75 75 0 2 2 67 2 76 \012ELSE[ ]	/* Else */\012NPUSHB[ ]	/* 21 values pushed */\0120 3 3 69 75 0 1 1 0 95 0 0 0 75 75 0 2 2 67 2 76 \012EIF[ ]	/* EndIf */\012PUSHB[ ]	/* 7 values pushed */\01217 19 34 17 4 10 24 \012CALL[ ]	/* CallFunction */";
};
width = 443;
}
);
leftKerningGroup = i;
note = r;
rightKerningGroup = r;
unicode = 0072;
},
{
glyphname = s;
layers = (
{
layerId = "F251586D-48D7-42AD-80B6-8A992ABEF986";
paths = (
{
closed = 1;
nodes = (
"343 -9 OFFCURVE",
"464 37 OFFCURVE",
"526 118 OFFCURVE",
"526 169 QCURVE SMOOTH",
"526 231 OFFCURVE",
"461 300 OFFCURVE",
"373 326 OFFCURVE",
"306 336 QCURVE SMOOTH",
"253 344 OFFCURVE",
"207 359 OFFCURVE",
"207 378 QCURVE SMOOTH",
"207 395 OFFCURVE",
"249 416 OFFCURVE",
"294 416 QCURVE SMOOTH",
"378 416 OFFCURVE",
"450 376 QCURVE",
"507 505 LINE",
"468 527 OFFCURVE",
"352 551 OFFCURVE",
"293 551 QCURVE SMOOTH",
"210 551 OFFCURVE",
"91 504 OFFCURVE",
"29 423 OFFCURVE",
"29 371 QCURVE SMOOTH",
"29 308 OFFCURVE",
"95 238 OFFCURVE",
"186 212 OFFCURVE",
"251 204 QCURVE SMOOTH",
"302 197 OFFCURVE",
"349 182 OFFCURVE",
"349 164 QCURVE SMOOTH",
"349 146 OFFCURVE",
"310 127 OFFCURVE",
"264 127 QCURVE SMOOTH",
"214 127 OFFCURVE",
"112 154 OFFCURVE",
"75 177 QCURVE",
"18 47 LINE",
"58 22 OFFCURVE",
"190 -9 OFFCURVE",
"258 -9 QCURVE",
"258 -9 LINE"
);
}
);
userData = {
assembly = "NPUSHB[ ]	/* 49 values pushed */\01223 1 2 1 24 3 2 0 2 2 1 3 0 3 74 0 2 2 1 95 0 1 1 75 75 0 0 0 3 95 4 1 3 3 76 3 76 0 0 0 40 0 39 36 44 37 5 10 23 \012CALL[ ]	/* CallFunction */";
};
width = 547;
}
);
leftKerningGroup = s;
note = s;
rightKerningGroup = s;
unicode = 0073;
},
{
glyphname = saltillo;
layers = (
{
layerId = "F251586D-48D7-42AD-80B6-8A992ABEF986";
paths = (
{
closed = 1;
nodes = (
"62 296 LINE",
"225 296 LINE",
"250 690 LINE",
"62 690 LINE",
"62 690 LINE"
);
}
);
userData = {
assembly = "MPPEM[ ]	/* MeasurePixelPerEm */\012PUSHB[ ]	/* 1 value pushed */\01250 \012LT[ ]	/* LessThan */\012IF[ ]	/* If */\012NPUSHB[ ]	/* 11 values pushed */\0120 1 1 0 93 0 0 0 66 1 76 \012ELSE[ ]	/* Else */\012NPUSHB[ ]	/* 16 values pushed */\0120 0 1 1 0 85 0 0 0 1 93 0 1 0 1 77 \012EIF[ ]	/* EndIf */\012PUSHB[ ]	/* 5 values pushed */\01217 16 2 10 22 \012CALL[ ]	/* CallFunction */";
};
width = 312;
}
);
note = uniA78C;
unicode = A78C;
},
{
glyphname = germandbls;
layers = (
{
layerId = "F251586D-48D7-42AD-80B6-8A992ABEF986";
paths = (
{
closed = 1;
nodes = (
"614 452 OFFCURVE",
"614 537 QCURVE SMOOTH",
"614 598 OFFCURVE",
"550 695 OFFCURVE",
"429 751 OFFCURVE",
"346 751 QCURVE SMOOTH",
"266 751 OFFCURVE",
"136 688 OFFCURVE",
"61 565 OFFCURVE",
"61 478 QCURVE SMOOTH",
"61 0 LINE",
"251 0 LINE",
"251 502 LINE SMOOTH",
"251 550 OFFCURVE",
"302 601 OFFCURVE",
"346 601 QCURVE SMOOTH",
"385 601 OFFCURVE",
"432 557 OFFCURVE",
"432 521 QCURVE SMOOTH",
"432 482 OFFCURVE",
"378 435 OFFCURVE",
"332 433 QCURVE",
"332 287 LINE",
"385 287 LINE SMOOTH",
"433 287 OFFCURVE",
"484 250 OFFCURVE",
"484 215 QCURVE SMOOTH",
"484 180 OFFCURVE",
"435 142 OFFCURVE",
"394 142 QCURVE SMOOTH",
"354 142 OFFCURVE",
"319 154 QCURVE",
"299 7 LINE",
"320 0 OFFCURVE",
"387 -9 OFFCURVE",
"419 -9 QCURVE SMOOTH",
"536 -9 OFFCURVE",
"677 108 OFFCURVE",
"677 210 QCURVE SMOOTH",
"677 277 OFFCURVE",
"607 371 OFFCURVE",
"544 394 QCURVE",
"544 394 LINE"
);
}
);
userData = {
assembly = "MPPEM[ ]	/* MeasurePixelPerEm */\012PUSHB[ ]	/* 1 value pushed */\01227 \012LT[ ]	/* LessThan */\012IF[ ]	/* If */\012NPUSHB[ ]	/* 14 values pushed */\01241 1 2 3 9 1 1 2 8 1 0 1 3 74 \012ELSE[ ]	/* Else */\012NPUSHB[ ]	/* 14 values pushed */\01241 1 2 3 9 1 1 2 8 1 5 1 3 74 \012EIF[ ]	/* EndIf */\012MPPEM[ ]	/* MeasurePixelPerEm */\012PUSHB[ ]	/* 1 value pushed */\01212 \012LT[ ]	/* LessThan */\012IF[ ]	/* If */\012NPUSHB[ ]	/* 30 values pushed */\0120 3 0 2 1 3 2 103 0 4 4 6 95 0 6 6 68 75 0 1 1 0 95 5 1 0 0 76 0 76 \012ELSE[ ]	/* Else */\012MPPEM[ ]	/* MeasurePixelPerEm */\012PUSHB[ ]	/* 1 value pushed */\01227 \012LT[ ]	/* LessThan */\012IF[ ]	/* If */\012NPUSHB[ ]	/* 28 values pushed */\0120 6 0 4 3 6 4 103 0 3 0 2 1 3 2 103 0 1 1 0 95 5 1 0 0 76 0 76 \012ELSE[ ]	/* Else */\012NPUSHB[ ]	/* 32 values pushed */\0120 6 0 4 3 6 4 103 0 3 0 2 1 3 2 103 0 5 5 67 75 0 1 1 0 95 0 0 0 76 0 76 \012EIF[ ]	/* EndIf */\012EIF[ ]	/* EndIf */\012NPUSHB[ ]	/* 10 values pushed */\01236 19 36 17 36 36 36 7 10 27 \012CALL[ ]	/* CallFunction */";
};
width = 703;
}
);
leftKerningGroup = b;
note = germandbls;
rightKerningGroup = b;
unicode = 00DF;
},
{
glyphname = longs;
layers = (
{
layerId = "F251586D-48D7-42AD-80B6-8A992ABEF986";
paths = (
{
closed = 1;
nodes = (
"214 751 OFFCURVE",
"95 635 OFFCURVE",
"95 536 QCURVE SMOOTH",
"95 522 LINE",
"16 522 LINE",
"16 380 LINE",
"95 380 LINE",
"95 0 LINE",
"285 0 LINE",
"285 534 LINE SMOOTH",
"285 605 OFFCURVE",
"343 605 QCURVE SMOOTH",
"372 605 OFFCURVE",
"400 589 QCURVE",
"447 723 LINE",
"425 737 OFFCURVE",
"357 751 OFFCURVE",
"321 751 QCURVE",
"321 751 LINE"
);
}
);
userData = {
assembly = "NPUSHB[ ]	/* 10 values pushed */\0122 1 0 4 3 1 3 0 2 74 \012MPPEM[ ]	/* MeasurePixelPerEm */\012PUSHB[ ]	/* 1 value pushed */\01212 \012LT[ ]	/* LessThan */\012IF[ ]	/* If */\012NPUSHB[ ]	/* 27 values pushed */\0120 0 0 4 95 5 1 4 4 68 75 0 2 2 3 93 0 3 3 69 75 0 1 1 67 1 76 \012ELSE[ ]	/* Else */\012MPPEM[ ]	/* MeasurePixelPerEm */\012PUSHB[ ]	/* 1 value pushed */\01225 \012LT[ ]	/* LessThan */\012IF[ ]	/* If */\012NPUSHB[ ]	/* 25 values pushed */\0125 1 4 0 0 3 4 0 103 0 2 2 3 93 0 3 3 69 75 0 1 1 67 1 76 \012ELSE[ ]	/* Else */\012NPUSHB[ ]	/* 23 values pushed */\0125 1 4 0 0 3 4 0 103 0 3 0 2 1 3 2 101 0 1 1 67 1 76 \012EIF[ ]	/* EndIf */\012EIF[ ]	/* EndIf */\012NPUSHB[ ]	/* 13 values pushed */\0120 0 0 17 0 16 17 17 18 36 6 10 24 \012CALL[ ]	/* CallFunction */";
};
width = 349;
}
);
note = longs;
unicode = 017F;
},
{
glyphname = t;
layers = (
{
layerId = "F251586D-48D7-42AD-80B6-8A992ABEF986";
paths = (
{
closed = 1;
nodes = (
"388 155 LINE",
"363 138 OFFCURVE",
"330 138 QCURVE SMOOTH",
"304 138 OFFCURVE",
"273 171 OFFCURVE",
"273 200 QCURVE SMOOTH",
"273 380 LINE",
"397 380 LINE",
"397 522 LINE",
"273 522 LINE",
"273 663 LINE",
"83 663 LINE",
"83 522 LINE",
"4 522 LINE",
"4 380 LINE",
"83 380 LINE",
"83 198 LINE SMOOTH",
"83 95 OFFCURVE",
"197 -9 OFFCURVE",
"303 -9 QCURVE SMOOTH",
"342 -9 OFFCURVE",
"411 7 OFFCURVE",
"435 22 QCURVE",
"435 22 LINE"
);
}
);
userData = {
assembly = "PUSHB[ ]	/* 6 values pushed */\01222 1 6 1 1 74 \012MPPEM[ ]	/* MeasurePixelPerEm */\012PUSHB[ ]	/* 1 value pushed */\01225 \012LT[ ]	/* LessThan */\012IF[ ]	/* If */\012NPUSHB[ ]	/* 28 values pushed */\0120 3 2 3 131 5 1 1 1 2 93 4 1 2 2 69 75 0 6 6 0 96 0 0 0 76 0 76 \012ELSE[ ]	/* Else */\012NPUSHB[ ]	/* 26 values pushed */\0120 3 2 3 131 4 1 2 5 1 1 6 2 1 101 0 6 6 0 96 0 0 0 76 0 76 \012EIF[ ]	/* EndIf */\012NPUSHB[ ]	/* 10 values pushed */\01235 17 17 17 17 19 34 7 10 27 \012CALL[ ]	/* CallFunction */";
};
width = 447;
}
);
leftKerningGroup = t;
note = t;
rightKerningGroup = t;
unicode = 0074;
},
{
glyphname = u;
layers = (
{
layerId = "F251586D-48D7-42AD-80B6-8A992ABEF986";
paths = (
{
closed = 1;
nodes = (
"441 542 LINE",
"441 281 LINE SMOOTH",
"441 216 OFFCURVE",
"384 153 OFFCURVE",
"339 153 QCURVE SMOOTH",
"295 153 OFFCURVE",
"249 209 OFFCURVE",
"249 270 QCURVE SMOOTH",
"249 542 LINE",
"59 542 LINE",
"59 239 LINE SMOOTH",
"59 115 OFFCURVE",
"184 -9 OFFCURVE",
"289 -9 QCURVE SMOOTH",
"336 -9 OFFCURVE",
"420 25 OFFCURVE",
"450 58 QCURVE",
"450 0 LINE",
"631 0 LINE",
"631 542 LINE",
"631 542 LINE"
);
}
);
userData = {
assembly = "PUSHB[ ]	/* 6 values pushed */\0123 1 0 3 1 74 \012MPPEM[ ]	/* MeasurePixelPerEm */\012PUSHB[ ]	/* 1 value pushed */\01227 \012LT[ ]	/* LessThan */\012IF[ ]	/* If */\012NPUSHB[ ]	/* 19 values pushed */\0125 4 2 2 2 69 75 0 3 3 0 96 1 1 0 0 67 0 76 \012ELSE[ ]	/* Else */\012NPUSHB[ ]	/* 23 values pushed */\0125 4 2 2 2 69 75 0 0 0 67 75 0 3 3 1 96 0 1 1 76 1 76 \012EIF[ ]	/* EndIf */\012NPUSHB[ ]	/* 13 values pushed */\0120 0 0 19 0 19 35 19 35 17 6 10 24 \012CALL[ ]	/* CallFunction */";
};
width = 692;
}
);
leftKerningGroup = u;
note = u;
rightKerningGroup = Lj;
unicode = 0075;
},
{
glyphname = v;
layers = (
{
layerId = "F251586D-48D7-42AD-80B6-8A992ABEF986";
paths = (
{
closed = 1;
nodes = (
"451 542 LINE",
"314 211 LINE",
"184 542 LINE",
"-11 542 LINE",
"212 0 LINE",
"408 0 LINE",
"632 542 LINE",
"632 542 LINE"
);
}
);
userData = {
assembly = "NPUSHB[ ]	/* 30 values pushed */\0125 1 0 1 1 74 3 2 2 1 1 69 75 0 0 0 67 0 76 0 0 0 6 0 6 17 17 4 10 22 \012CALL[ ]	/* CallFunction */";
};
width = 620;
}
);
leftKerningGroup = v;
note = v;
rightKerningGroup = v;
unicode = 0076;
},
{
glyphname = w;
layers = (
{
layerId = "F251586D-48D7-42AD-80B6-8A992ABEF986";
paths = (
{
closed = 1;
nodes = (
"792 542 LINE",
"677 211 LINE",
"565 542 LINE",
"403 542 LINE",
"288 214 LINE",
"177 542 LINE",
"-3 542 LINE",
"190 0 LINE",
"374 0 LINE",
"480 295 LINE",
"582 0 LINE",
"766 0 LINE",
"959 542 LINE",
"959 542 LINE"
);
}
);
userData = {
assembly = "NPUSHB[ ]	/* 36 values pushed */\01211 8 3 3 0 2 1 74 5 4 3 3 2 2 69 75 1 1 0 0 67 0 76 0 0 0 12 0 12 18 17 18 17 6 10 24 \012CALL[ ]	/* CallFunction */";
};
width = 956;
}
);
leftKerningGroup = v;
note = w;
rightKerningGroup = v;
unicode = 0077;
},
{
glyphname = x;
layers = (
{
layerId = "F251586D-48D7-42AD-80B6-8A992ABEF986";
paths = (
{
closed = 1;
nodes = (
"622 0 LINE",
"415 278 LINE",
"615 542 LINE",
"414 542 LINE",
"314 405 LINE",
"218 542 LINE",
"4 542 LINE",
"204 271 LINE",
"-2 0 LINE",
"204 0 LINE",
"308 142 LINE",
"405 0 LINE",
"405 0 LINE"
);
}
);
userData = {
assembly = "NPUSHB[ ]	/* 35 values pushed */\01210 7 4 1 4 0 1 1 74 2 1 1 1 69 75 4 3 2 0 0 67 0 76 0 0 0 11 0 11 18 18 18 5 10 23 \012CALL[ ]	/* CallFunction */";
};
width = 619;
}
);
leftKerningGroup = x;
note = x;
rightKerningGroup = x;
unicode = 0078;
},
{
glyphname = y;
layers = (
{
layerId = "F251586D-48D7-42AD-80B6-8A992ABEF986";
paths = (
{
closed = 1;
nodes = (
"451 542 LINE",
"317 211 LINE",
"184 542 LINE",
"-11 542 LINE",
"221 -7 LINE",
"209 -31 OFFCURVE",
"174 -53 OFFCURVE",
"147 -53 QCURVE SMOOTH",
"124 -53 OFFCURVE",
"79 -36 OFFCURVE",
"63 -21 QCURVE",
"-3 -154 LINE",
"24 -176 OFFCURVE",
"111 -203 OFFCURVE",
"154 -203 QCURVE SMOOTH",
"239 -203 OFFCURVE",
"357 -122 OFFCURVE",
"398 -22 QCURVE SMOOTH",
"632 542 LINE",
"632 542 LINE"
);
}
);
userData = {
assembly = "NPUSHB[ ]	/* 42 values pushed */\01217 14 8 3 1 2 7 1 0 1 2 74 4 3 2 2 2 69 75 0 1 1 0 96 0 0 0 77 0 76 0 0 0 18 0 18 19 37 35 5 10 23 \012CALL[ ]	/* CallFunction */";
};
width = 620;
}
);
leftKerningGroup = v;
note = y;
rightKerningGroup = v;
unicode = 0079;
},
{
glyphname = z;
layers = (
{
layerId = "F251586D-48D7-42AD-80B6-8A992ABEF986";
paths = (
{
closed = 1;
nodes = (
"272 142 LINE",
"523 431 LINE",
"523 542 LINE",
"40 542 LINE",
"40 401 LINE",
"284 401 LINE",
"33 112 LINE",
"33 0 LINE",
"533 0 LINE",
"533 142 LINE",
"533 142 LINE"
);
}
);
userData = {
assembly = "NPUSHB[ ]	/* 44 values pushed */\0128 1 1 2 3 1 0 3 2 74 0 1 1 2 93 0 2 2 69 75 4 1 3 3 0 93 0 0 0 67 0 76 0 0 0 9 0 9 17 18 17 5 10 23 \012CALL[ ]	/* CallFunction */";
};
width = 556;
}
);
leftKerningGroup = z;
note = z;
rightKerningGroup = Dzcaron;
unicode = 007A;
},
{
glyphname = iacute_j.loclNLD;
layers = (
{
layerId = "F251586D-48D7-42AD-80B6-8A992ABEF986";
paths = (
{
closed = 1;
nodes = (
"62 607 LINE",
"191 607 LINE",
"380 759 LINE",
"195 759 LINE",
"195 759 LINE"
);
},
{
closed = 1;
nodes = (
"380 607 LINE",
"509 607 LINE",
"698 759 LINE",
"514 759 LINE",
"514 759 LINE"
);
},
{
closed = 1;
nodes = (
"61 0 LINE",
"250 0 LINE",
"250 542 LINE",
"61 542 LINE",
"61 542 LINE"
);
},
{
closed = 1;
nodes = (
"454 -203 OFFCURVE",
"570 -87 OFFCURVE",
"570 12 QCURVE SMOOTH",
"570 542 LINE",
"380 542 LINE",
"380 15 LINE SMOOTH",
"380 -21 OFFCURVE",
"350 -56 OFFCURVE",
"323 -56 QCURVE SMOOTH",
"292 -56 OFFCURVE",
"265 -40 QCURVE",
"219 -174 LINE",
"269 -203 OFFCURVE",
"351 -203 QCURVE",
"351 -203 LINE"
);
}
);
userData = {
assembly = "NPUSHB[ ]	/* 10 values pushed */\01214 1 6 5 13 1 8 6 2 74 \012MPPEM[ ]	/* MeasurePixelPerEm */\012PUSHB[ ]	/* 1 value pushed */\01212 \012LT[ ]	/* LessThan */\012IF[ ]	/* If */\012NPUSHB[ ]	/* 38 values pushed */\0123 1 1 0 4 0 1 4 126 2 1 0 0 68 75 7 1 4 4 69 75 0 5 5 67 75 0 6 6 8 96 9 1 8 8 77 8 76 \012ELSE[ ]	/* Else */\012NPUSHB[ ]	/* 35 values pushed */\0122 1 0 1 0 131 3 1 1 4 1 131 7 1 4 4 69 75 0 5 5 67 75 0 6 6 8 96 9 1 8 8 77 8 76 \012EIF[ ]	/* EndIf */\012NPUSHB[ ]	/* 17 values pushed */\01212 12 12 25 12 24 19 36 17 17 17 17 17 16 10 10 28 \012CALL[ ]	/* CallFunction */";
};
width = 631;
}
);
note = iacute_j.loclNLD;
rightKerningGroup = Lj;
},
{
glyphname = a.ss01;
layers = (
{
layerId = "F251586D-48D7-42AD-80B6-8A992ABEF986";
paths = (
{
closed = 1;
nodes = (
"444 542 LINE",
"444 495 LINE",
"389 551 OFFCURVE",
"293 551 QCURVE SMOOTH",
"219 551 OFFCURVE",
"98 483 OFFCURVE",
"27 356 OFFCURVE",
"27 272 QCURVE SMOOTH",
"27 188 OFFCURVE",
"98 60 OFFCURVE",
"219 -9 OFFCURVE",
"293 -9 QCURVE SMOOTH",
"400 -9 OFFCURVE",
"453 54 QCURVE",
"453 0 LINE",
"634 0 LINE",
"634 542 LINE",
"634 542 LINE"
);
},
{
closed = 1;
nodes = (
"283 142 OFFCURVE",
"219 211 OFFCURVE",
"219 272 QCURVE SMOOTH",
"219 332 OFFCURVE",
"283 400 OFFCURVE",
"333 400 QCURVE SMOOTH",
"383 400 OFFCURVE",
"447 332 OFFCURVE",
"447 272 QCURVE SMOOTH",
"447 211 OFFCURVE",
"383 142 OFFCURVE",
"333 142 QCURVE",
"333 142 LINE"
);
}
);
userData = {
assembly = "MPPEM[ ]	/* MeasurePixelPerEm */\012PUSHB[ ]	/* 1 value pushed */\01227 \012LT[ ]	/* LessThan */\012IF[ ]	/* If */\012NPUSHB[ ]	/* 10 values pushed */\01215 1 4 2 3 1 0 5 2 74 \012ELSE[ ]	/* Else */\012NPUSHB[ ]	/* 10 values pushed */\01215 1 4 3 3 1 0 5 2 74 \012EIF[ ]	/* EndIf */\012MPPEM[ ]	/* MeasurePixelPerEm */\012PUSHB[ ]	/* 1 value pushed */\01227 \012LT[ ]	/* LessThan */\012IF[ ]	/* If */\012NPUSHB[ ]	/* 25 values pushed */\0120 4 4 2 95 6 3 2 2 2 39 75 7 1 5 5 0 95 1 1 0 0 33 0 76 \012ELSE[ ]	/* Else */\012NPUSHB[ ]	/* 33 values pushed */\0126 1 3 3 34 75 0 4 4 2 95 0 2 2 39 75 0 0 0 33 75 7 1 5 5 1 95 0 1 1 40 1 76 \012EIF[ ]	/* EndIf */\012NPUSHB[ ]	/* 20 values pushed */\01217 17 0 0 17 28 17 27 23 21 0 16 0 16 38 34 17 8 7 23 \012CALL[ ]	/* CallFunction */";
};
width = 695;
}
);
leftKerningGroup = c;
note = a.ss01;
rightKerningGroup = Lj;
},
{
glyphname = ae.ss01;
layers = (
{
layerId = "F251586D-48D7-42AD-80B6-8A992ABEF986";
paths = (
{
closed = 1;
nodes = (
"665 136 OFFCURVE",
"601 169 OFFCURVE",
"584 200 QCURVE",
"972 275 LINE",
"972 361 OFFCURVE",
"894 486 OFFCURVE",
"763 551 OFFCURVE",
"686 551 QCURVE SMOOTH",
"629 551 OFFCURVE",
"528 516 OFFCURVE",
"489 483 QCURVE",
"422 551 OFFCURVE",
"291 551 QCURVE SMOOTH",
"225 551 OFFCURVE",
"99 518 OFFCURVE",
"53 488 QCURVE",
"117 359 LINE",
"145 381 OFFCURVE",
"224 406 OFFCURVE",
"265 406 QCURVE SMOOTH",
"319 406 OFFCURVE",
"376 362 OFFCURVE",
"379 322 QCURVE",
"271 322 LINE SMOOTH",
"149 322 OFFCURVE",
"30 238 OFFCURVE",
"30 164 QCURVE SMOOTH",
"30 86 OFFCURVE",
"156 -9 OFFCURVE",
"266 -9 QCURVE SMOOTH",
"407 -9 OFFCURVE",
"470 80 QCURVE",
"514 34 OFFCURVE",
"634 -9 OFFCURVE",
"704 -9 QCURVE SMOOTH",
"852 -9 OFFCURVE",
"932 79 QCURVE",
"831 183 LINE",
"802 158 OFFCURVE",
"745 136 OFFCURVE",
"709 136 QCURVE",
"709 136 LINE"
);
},
{
closed = 1;
nodes = (
"722 416 OFFCURVE",
"778 375 OFFCURVE",
"789 341 QCURVE",
"569 298 LINE",
"570 352 OFFCURVE",
"635 416 OFFCURVE",
"684 416 QCURVE",
"684 416 LINE"
);
},
{
closed = 1;
nodes = (
"252 111 OFFCURVE",
"214 141 OFFCURVE",
"214 168 QCURVE SMOOTH",
"214 222 OFFCURVE",
"297 222 QCURVE SMOOTH",
"379 222 LINE",
"379 200 LINE SMOOTH",
"379 159 OFFCURVE",
"330 111 OFFCURVE",
"287 111 QCURVE",
"287 111 LINE"
);
}
);
userData = {
assembly = "MPPEM[ ]	/* MeasurePixelPerEm */\012PUSHB[ ]	/* 1 value pushed */\01210 \012LT[ ]	/* LessThan */\012IF[ ]	/* If */\012NPUSHB[ ]	/* 27 values pushed */\01229 24 2 3 4 44 23 2 2 3 43 36 2 8 2 37 2 2 6 8 8 3 2 0 6 5 74 \012ELSE[ ]	/* Else */\012MPPEM[ ]	/* MeasurePixelPerEm */\012PUSHB[ ]	/* 1 value pushed */\01225 \012LT[ ]	/* LessThan */\012IF[ ]	/* If */\012NPUSHB[ ]	/* 27 values pushed */\01229 24 2 3 4 44 23 2 2 3 43 36 2 8 2 37 2 2 6 8 8 3 2 0 9 5 74 \012ELSE[ ]	/* Else */\012NPUSHB[ ]	/* 27 values pushed */\01229 24 2 7 4 44 23 2 2 3 43 36 2 8 2 37 2 2 6 8 8 3 2 0 9 5 74 \012EIF[ ]	/* EndIf */\012EIF[ ]	/* EndIf */\012MPPEM[ ]	/* MeasurePixelPerEm */\012PUSHB[ ]	/* 1 value pushed */\01210 \012LT[ ]	/* LessThan */\012IF[ ]	/* If */\012NPUSHB[ ]	/* 36 values pushed */\0120 2 0 8 6 2 8 101 11 7 2 3 3 4 95 5 1 4 4 39 75 12 9 10 3 6 6 0 95 1 1 0 0 40 0 76 \012ELSE[ ]	/* Else */\012MPPEM[ ]	/* MeasurePixelPerEm */\012PUSHB[ ]	/* 1 value pushed */\01225 \012LT[ ]	/* LessThan */\012IF[ ]	/* If */\012NPUSHB[ ]	/* 46 values pushed */\0120 2 0 8 6 2 8 101 11 7 2 3 3 4 95 5 1 4 4 39 75 10 1 6 6 0 95 1 1 0 0 40 75 12 1 9 9 0 95 1 1 0 0 40 0 76 \012ELSE[ ]	/* Else */\012NPUSHB[ ]	/* 56 values pushed */\0120 2 0 8 6 2 8 101 11 1 7 7 4 95 5 1 4 4 39 75 0 3 3 4 95 5 1 4 4 39 75 10 1 6 6 0 95 1 1 0 0 40 75 12 1 9 9 0 95 1 1 0 0 40 0 76 \012EIF[ ]	/* EndIf */\012EIF[ ]	/* EndIf */\012NPUSHB[ ]	/* 29 values pushed */\01248 48 41 41 0 0 48 57 48 56 53 51 41 47 41 46 0 40 0 39 35 37 34 36 35 36 13 7 26 \012CALL[ ]	/* CallFunction */";
};
width = 999;
}
);
leftKerningGroup = a;
note = ae.ss01;
rightKerningGroup = ae;
},
{
glyphname = e.ss01;
layers = (
{
layerId = "F251586D-48D7-42AD-80B6-8A992ABEF986";
paths = (
{
closed = 1;
nodes = (
"259 136 OFFCURVE",
"228 201 QCURVE",
"615 275 LINE",
"615 361 OFFCURVE",
"537 486 OFFCURVE",
"406 551 OFFCURVE",
"327 551 QCURVE SMOOTH",
"242 551 OFFCURVE",
"105 479 OFFCURVE",
"27 352 OFFCURVE",
"27 272 QCURVE SMOOTH",
"27 191 OFFCURVE",
"106 63 OFFCURVE",
"250 -9 OFFCURVE",
"345 -9 QCURVE SMOOTH",
"498 -9 OFFCURVE",
"575 79 QCURVE",
"476 183 LINE",
"447 158 OFFCURVE",
"390 136 OFFCURVE",
"351 136 QCURVE",
"351 136 LINE"
);
},
{
closed = 1;
nodes = (
"367 416 OFFCURVE",
"423 375 OFFCURVE",
"433 341 QCURVE",
"213 298 LINE",
"217 355 OFFCURVE",
"279 416 OFFCURVE",
"328 416 QCURVE",
"328 416 LINE"
);
}
);
userData = {
assembly = "NPUSHB[ ]	/* 54 values pushed */\01224 23 18 17 2 5 2 3 3 1 0 2 2 74 5 1 3 3 1 95 0 1 1 39 75 4 1 2 2 0 95 0 0 0 40 0 76 21 21 0 0 21 27 21 26 0 20 0 19 38 36 6 7 22 \012CALL[ ]	/* CallFunction */";
};
width = 642;
}
);
leftKerningGroup = c;
note = e.ss01;
rightKerningGroup = ae;
},
{
glyphname = eogonek.ss01;
layers = (
{
layerId = "F251586D-48D7-42AD-80B6-8A992ABEF986";
paths = (
{
closed = 1;
nodes = (
"259 136 OFFCURVE",
"228 201 QCURVE",
"615 275 LINE",
"615 361 OFFCURVE",
"537 486 OFFCURVE",
"406 551 OFFCURVE",
"327 551 QCURVE SMOOTH",
"242 551 OFFCURVE",
"105 479 OFFCURVE",
"27 352 OFFCURVE",
"27 272 QCURVE SMOOTH",
"27 191 OFFCURVE",
"106 63 OFFCURVE",
"250 -9 OFFCURVE",
"345 -9 QCURVE SMOOTH",
"358 -9 LINE",
"334 -31 OFFCURVE",
"307 -87 OFFCURVE",
"307 -115 QCURVE SMOOTH",
"307 -171 OFFCURVE",
"386 -236 OFFCURVE",
"455 -236 QCURVE SMOOTH",
"484 -236 OFFCURVE",
"544 -223 OFFCURVE",
"562 -213 QCURVE",
"537 -131 LINE",
"509 -146 OFFCURVE",
"479 -146 QCURVE SMOOTH",
"453 -146 OFFCURVE",
"422 -119 OFFCURVE",
"422 -98 QCURVE SMOOTH",
"422 -67 OFFCURVE",
"470 -3 OFFCURVE",
"534 42 QCURVE SMOOTH",
"559 60 OFFCURVE",
"575 79 QCURVE",
"476 183 LINE",
"447 158 OFFCURVE",
"390 136 OFFCURVE",
"351 136 QCURVE",
"351 136 LINE"
);
},
{
closed = 1;
nodes = (
"367 416 OFFCURVE",
"423 375 OFFCURVE",
"433 341 QCURVE",
"213 298 LINE",
"217 355 OFFCURVE",
"279 416 OFFCURVE",
"328 416 QCURVE",
"328 416 LINE"
);
}
);
userData = {
assembly = "NPUSHB[ ]	/* 71 values pushed */\01243 42 37 36 2 5 4 5 3 1 2 4 13 1 0 2 14 1 1 0 4 74 0 0 0 1 0 1 99 7 1 5 5 3 95 0 3 3 39 75 6 1 4 4 2 95 0 2 2 40 2 76 40 40 0 0 40 46 40 45 0 39 0 38 38 37 36 42 8 7 24 \012CALL[ ]	/* CallFunction */";
};
width = 642;
}
);
leftKerningGroup = c;
note = eogonek.ss01;
rightKerningGroup = ae;
},
{
glyphname = f.ss01;
layers = (
{
layerId = "F251586D-48D7-42AD-80B6-8A992ABEF986";
paths = (
{
closed = 1;
nodes = (
"246 534 LINE SMOOTH",
"246 569 OFFCURVE",
"279 605 OFFCURVE",
"309 605 QCURVE SMOOTH",
"338 605 OFFCURVE",
"366 589 QCURVE",
"413 723 LINE",
"391 737 OFFCURVE",
"323 751 OFFCURVE",
"287 751 QCURVE SMOOTH",
"180 751 OFFCURVE",
"61 635 OFFCURVE",
"61 536 QCURVE SMOOTH",
"61 0 LINE",
"251 0 LINE",
"251 380 LINE",
"375 380 LINE",
"375 522 LINE",
"246 522 LINE",
"246 522 LINE"
);
}
);
userData = {
assembly = "NPUSHB[ ]	/* 10 values pushed */\01212 1 4 3 13 1 0 4 2 74 \012MPPEM[ ]	/* MeasurePixelPerEm */\012PUSHB[ ]	/* 1 value pushed */\01225 \012LT[ ]	/* LessThan */\012IF[ ]	/* If */\012NPUSHB[ ]	/* 24 values pushed */\0120 3 0 4 0 3 4 103 0 1 1 0 93 0 0 0 34 75 0 2 2 33 2 76 \012ELSE[ ]	/* Else */\012NPUSHB[ ]	/* 22 values pushed */\0120 3 0 4 0 3 4 103 0 0 0 1 2 0 1 101 0 2 2 33 2 76 \012EIF[ ]	/* EndIf */\012PUSHB[ ]	/* 8 values pushed */\01236 35 17 17 16 5 7 25 \012CALL[ ]	/* CallFunction */";
};
width = 384;
}
);
leftKerningGroup = b;
note = f.ss01;
rightKerningGroup = f;
},
{
glyphname = l.ss01;
layers = (
{
layerId = "F251586D-48D7-42AD-80B6-8A992ABEF986";
paths = (
{
closed = 1;
nodes = (
"318 -9 OFFCURVE",
"361 5 QCURVE",
"353 148 LINE",
"333 138 OFFCURVE",
"310 138 QCURVE SMOOTH",
"282 138 OFFCURVE",
"251 170 OFFCURVE",
"251 200 QCURVE SMOOTH",
"251 742 LINE",
"61 742 LINE",
"61 190 LINE SMOOTH",
"61 94 OFFCURVE",
"172 -9 OFFCURVE",
"272 -9 QCURVE",
"272 -9 LINE"
);
}
);
userData = {
assembly = "NPUSHB[ ]	/* 38 values pushed */\01210 1 1 0 11 1 2 1 2 74 0 0 1 0 131 0 1 1 2 96 3 1 2 2 40 2 76 0 0 0 13 0 12 35 19 4 7 22 \012CALL[ ]	/* CallFunction */";
};
width = 368;
}
);
leftKerningGroup = b;
note = l.ss01;
rightKerningGroup = l.ss01;
},
{
glyphname = oe.ss01;
layers = (
{
layerId = "F251586D-48D7-42AD-80B6-8A992ABEF986";
paths = (
{
closed = 1;
nodes = (
"732 136 OFFCURVE",
"667 169 OFFCURVE",
"650 200 QCURVE",
"1048 275 LINE",
"1048 361 OFFCURVE",
"968 486 OFFCURVE",
"834 551 OFFCURVE",
"753 551 QCURVE SMOOTH",
"688 551 OFFCURVE",
"579 509 OFFCURVE",
"540 470 QCURVE",
"503 509 OFFCURVE",
"396 551 OFFCURVE",
"330 551 QCURVE SMOOTH",
"244 551 OFFCURVE",
"106 479 OFFCURVE",
"27 352 OFFCURVE",
"27 272 QCURVE SMOOTH",
"27 191 OFFCURVE",
"106 63 OFFCURVE",
"244 -9 OFFCURVE",
"330 -9 QCURVE SMOOTH",
"396 -9 OFFCURVE",
"504 34 OFFCURVE",
"542 74 QCURVE",
"583 34 OFFCURVE",
"699 -9 OFFCURVE",
"771 -9 QCURVE SMOOTH",
"928 -9 OFFCURVE",
"1008 79 QCURVE",
"905 183 LINE",
"876 158 OFFCURVE",
"817 136 OFFCURVE",
"777 136 QCURVE",
"777 136 LINE"
);
},
{
closed = 1;
nodes = (
"795 416 OFFCURVE",
"851 375 OFFCURVE",
"861 341 QCURVE",
"635 298 LINE",
"637 352 OFFCURVE",
"701 416 OFFCURVE",
"754 416 QCURVE",
"754 416 LINE"
);
},
{
closed = 1;
nodes = (
"283 142 OFFCURVE",
"219 211 OFFCURVE",
"219 272 QCURVE SMOOTH",
"219 332 OFFCURVE",
"283 400 OFFCURVE",
"333 400 QCURVE SMOOTH",
"383 400 OFFCURVE",
"447 332 OFFCURVE",
"447 272 QCURVE SMOOTH",
"447 211 OFFCURVE",
"383 142 OFFCURVE",
"333 142 QCURVE",
"333 142 LINE"
);
}
);
userData = {
assembly = "MPPEM[ ]	/* MeasurePixelPerEm */\012PUSHB[ ]	/* 1 value pushed */\01216 \012LT[ ]	/* LessThan */\012IF[ ]	/* If */\012NPUSHB[ ]	/* 19 values pushed */\01222 1 5 2 37 36 30 29 2 5 4 5 8 3 2 0 4 3 74 \012ELSE[ ]	/* Else */\012MPPEM[ ]	/* MeasurePixelPerEm */\012PUSHB[ ]	/* 1 value pushed */\01239 \012LT[ ]	/* LessThan */\012IF[ ]	/* If */\012NPUSHB[ ]	/* 19 values pushed */\01222 1 5 2 37 36 30 29 2 5 4 6 8 3 2 0 4 3 74 \012ELSE[ ]	/* Else */\012NPUSHB[ ]	/* 19 values pushed */\01222 1 5 2 37 36 30 29 2 5 7 6 8 3 2 0 4 3 74 \012EIF[ ]	/* EndIf */\012EIF[ ]	/* EndIf */\012MPPEM[ ]	/* MeasurePixelPerEm */\012PUSHB[ ]	/* 1 value pushed */\01216 \012LT[ ]	/* LessThan */\012IF[ ]	/* If */\012NPUSHB[ ]	/* 28 values pushed */\0126 9 2 5 5 2 95 3 1 2 2 39 75 10 7 8 3 4 4 0 95 1 1 0 0 40 0 76 \012ELSE[ ]	/* Else */\012MPPEM[ ]	/* MeasurePixelPerEm */\012PUSHB[ ]	/* 1 value pushed */\01239 \012LT[ ]	/* LessThan */\012IF[ ]	/* If */\012NPUSHB[ ]	/* 38 values pushed */\0129 1 5 5 2 95 3 1 2 2 39 75 0 6 6 2 95 3 1 2 2 39 75 10 7 8 3 4 4 0 95 1 1 0 0 40 0 76 \012ELSE[ ]	/* Else */\012NPUSHB[ ]	/* 48 values pushed */\0129 1 5 5 2 95 3 1 2 2 39 75 0 6 6 2 95 3 1 2 2 39 75 10 1 7 7 0 95 1 1 0 0 40 75 8 1 4 4 0 95 1 1 0 0 40 0 76 \012EIF[ ]	/* EndIf */\012EIF[ ]	/* EndIf */\012NPUSHB[ ]	/* 27 values pushed */\01241 41 34 34 0 0 41 52 41 51 47 45 34 40 34 39 0 33 0 32 36 38 36 36 11 7 24 \012CALL[ ]	/* CallFunction */";
};
width = 1075;
}
);
leftKerningGroup = c;
note = oe.ss01;
rightKerningGroup = ae;
},
{
glyphname = t.ss01;
layers = (
{
layerId = "F251586D-48D7-42AD-80B6-8A992ABEF986";
paths = (
{
closed = 1;
nodes = (
"363 155 LINE",
"338 138 OFFCURVE",
"305 138 QCURVE SMOOTH",
"279 138 OFFCURVE",
"249 170 OFFCURVE",
"249 200 QCURVE SMOOTH",
"249 380 LINE",
"372 380 LINE",
"372 522 LINE",
"249 522 LINE",
"249 663 LINE",
"59 663 LINE",
"59 198 LINE SMOOTH",
"59 95 OFFCURVE",
"172 -9 OFFCURVE",
"278 -9 QCURVE SMOOTH",
"317 -9 OFFCURVE",
"386 7 OFFCURVE",
"410 22 QCURVE",
"410 22 LINE"
);
}
);
userData = {
assembly = "PUSHB[ ]	/* 6 values pushed */\01218 1 4 3 1 74 \012MPPEM[ ]	/* MeasurePixelPerEm */\012PUSHB[ ]	/* 1 value pushed */\01225 \012LT[ ]	/* LessThan */\012IF[ ]	/* If */\012NPUSHB[ ]	/* 26 values pushed */\0120 1 2 1 131 0 3 3 2 93 0 2 2 34 75 0 4 4 0 96 0 0 0 40 0 76 \012ELSE[ ]	/* Else */\012NPUSHB[ ]	/* 24 values pushed */\0120 1 2 1 131 0 2 0 3 4 2 3 101 0 4 4 0 96 0 0 0 40 0 76 \012EIF[ ]	/* EndIf */\012PUSHB[ ]	/* 8 values pushed */\01235 17 17 19 34 5 7 25 \012CALL[ ]	/* CallFunction */";
};
width = 422;
}
);
leftKerningGroup = b;
note = t.ss01;
rightKerningGroup = t;
},
{
glyphname = w.ss01;
layers = (
{
layerId = "F251586D-48D7-42AD-80B6-8A992ABEF986";
paths = (
{
closed = 1;
nodes = (
"755 542 LINE",
"755 256 LINE SMOOTH",
"755 199 OFFCURVE",
"717 146 OFFCURVE",
"677 146 QCURVE SMOOTH",
"637 146 OFFCURVE",
"597 200 OFFCURVE",
"597 256 QCURVE SMOOTH",
"597 542 LINE",
"407 542 LINE",
"407 256 LINE SMOOTH",
"407 200 OFFCURVE",
"367 146 OFFCURVE",
"327 146 QCURVE SMOOTH",
"287 146 OFFCURVE",
"249 199 OFFCURVE",
"249 256 QCURVE SMOOTH",
"249 542 LINE",
"59 542 LINE",
"59 243 LINE SMOOTH",
"59 122 OFFCURVE",
"196 -9 OFFCURVE",
"323 -9 QCURVE SMOOTH",
"442 -9 OFFCURVE",
"501 60 QCURVE",
"562 -9 OFFCURVE",
"680 -9 QCURVE SMOOTH",
"806 -9 OFFCURVE",
"945 122 OFFCURVE",
"945 243 QCURVE SMOOTH",
"945 542 LINE",
"945 542 LINE"
);
}
);
userData = {
assembly = "NPUSHB[ ]	/* 42 values pushed */\0126 1 0 3 1 74 7 6 4 3 2 2 34 75 5 1 3 3 0 96 1 1 0 0 40 0 76 0 0 0 30 0 30 35 19 35 19 34 35 8 7 26 \012CALL[ ]	/* CallFunction */";
};
width = 1003;
}
);
leftKerningGroup = u;
note = w.ss01;
rightKerningGroup = w.ss01;
},
{
glyphname = y.ss01;
layers = (
{
layerId = "F251586D-48D7-42AD-80B6-8A992ABEF986";
paths = (
{
closed = 1;
nodes = (
"441 542 LINE",
"441 317 LINE SMOOTH",
"441 253 OFFCURVE",
"384 189 OFFCURVE",
"339 189 QCURVE SMOOTH",
"295 189 OFFCURVE",
"249 245 OFFCURVE",
"249 307 QCURVE SMOOTH",
"249 542 LINE",
"59 542 LINE",
"59 276 LINE SMOOTH",
"59 152 OFFCURVE",
"184 28 OFFCURVE",
"289 28 QCURVE SMOOTH",
"380 28 OFFCURVE",
"441 86 QCURVE",
"441 74 LINE SMOOTH",
"441 9 OFFCURVE",
"373 -57 OFFCURVE",
"301 -57 QCURVE SMOOTH",
"253 -57 OFFCURVE",
"156 -26 OFFCURVE",
"124 1 QCURVE",
"55 -132 LINE",
"103 -167 OFFCURVE",
"240 -203 OFFCURVE",
"319 -203 QCURVE SMOOTH",
"470 -203 OFFCURVE",
"631 -52 OFFCURVE",
"631 99 QCURVE SMOOTH",
"631 542 LINE",
"631 542 LINE"
);
}
);
userData = {
assembly = "NPUSHB[ ]	/* 54 values pushed */\01215 1 2 4 8 1 1 2 7 1 0 1 3 74 0 4 0 2 1 4 2 104 6 5 2 3 3 34 75 0 1 1 0 95 0 0 0 41 0 76 0 0 0 30 0 30 35 19 36 37 35 7 7 25 \012CALL[ ]	/* CallFunction */";
};
width = 692;
}
);
leftKerningGroup = u;
note = y.ss01;
rightKerningGroup = Lj;
},
{
glyphname = z.ss01;
layers = (
{
layerId = "F251586D-48D7-42AD-80B6-8A992ABEF986";
paths = (
{
closed = 1;
nodes = (
"277 142 LINE",
"339 214 LINE",
"505 214 LINE",
"505 332 LINE",
"442 332 LINE",
"528 431 LINE",
"528 542 LINE",
"45 542 LINE",
"45 401 LINE",
"289 401 LINE",
"230 333 LINE",
"69 333 LINE",
"69 215 LINE",
"127 215 LINE",
"38 112 LINE",
"38 0 LINE",
"538 0 LINE",
"538 142 LINE",
"538 142 LINE"
);
}
);
userData = {
assembly = "NPUSHB[ ]	/* 58 values pushed */\01212 1 3 4 3 1 0 7 2 74 5 1 2 6 1 1 7 2 1 101 0 3 3 4 93 0 4 4 34 75 8 1 7 7 0 93 0 0 0 33 0 76 0 0 0 17 0 17 17 18 17 17 17 18 17 9 7 27 \012CALL[ ]	/* CallFunction */";
};
width = 566;
}
);
leftKerningGroup = z;
note = z.ss01;
rightKerningGroup = Dzcaron;
},
{
glyphname = T_h;
layers = (
{
layerId = "F251586D-48D7-42AD-80B6-8A992ABEF986";
paths = (
{
closed = 1;
nodes = (
"937 551 OFFCURVE",
"853 521 OFFCURVE",
"822 492 QCURVE",
"822 700 LINE",
"4 700 LINE",
"4 543 LINE",
"219 543 LINE",
"219 0 LINE",
"417 0 LINE",
"417 543 LINE",
"632 543 LINE",
"632 0 LINE",
"822 0 LINE",
"822 262 LINE SMOOTH",
"822 326 OFFCURVE",
"881 390 OFFCURVE",
"930 390 QCURVE SMOOTH",
"1018 390 OFFCURVE",
"1018 279 QCURVE SMOOTH",
"1018 0 LINE",
"1208 0 LINE",
"1208 310 LINE SMOOTH",
"1208 431 OFFCURVE",
"1086 551 OFFCURVE",
"985 551 QCURVE",
"985 551 LINE"
);
}
);
userData = {
assembly = "NPUSHB[ ]	/* 52 values pushed */\01221 1 1 3 1 74 5 1 3 3 6 93 0 6 6 32 75 0 1 1 7 95 8 1 7 7 39 75 4 2 2 0 0 33 0 76 0 0 0 24 0 23 17 17 17 17 19 34 19 9 7 27 \012CALL[ ]	/* CallFunction */";
};
width = 1267;
}
);
leftKerningGroup = T;
note = T_h;
rightKerningGroup = a;
},
{
glyphname = fl.ss01;
layers = (
{
layerId = "F251586D-48D7-42AD-80B6-8A992ABEF986";
paths = (
{
closed = 1;
nodes = (
"738 47 LINE",
"720 37 OFFCURVE",
"695 37 QCURVE SMOOTH",
"667 37 OFFCURVE",
"637 69 OFFCURVE",
"637 100 QCURVE SMOOTH",
"637 500 LINE SMOOTH",
"637 617 OFFCURVE",
"495 751 OFFCURVE",
"360 751 QCURVE SMOOTH",
"234 751 OFFCURVE",
"91 628 OFFCURVE",
"84 522 QCURVE",
"4 522 LINE",
"4 380 LINE",
"83 380 LINE",
"83 0 LINE",
"273 0 LINE",
"273 380 LINE",
"397 380 LINE",
"397 522 LINE",
"273 522 LINE",
"277 563 OFFCURVE",
"321 604 OFFCURVE",
"360 604 QCURVE SMOOTH",
"402 604 OFFCURVE",
"447 556 OFFCURVE",
"447 509 QCURVE SMOOTH",
"447 89 LINE SMOOTH",
"447 -7 OFFCURVE",
"558 -110 OFFCURVE",
"657 -110 QCURVE SMOOTH",
"703 -110 OFFCURVE",
"746 -96 QCURVE",
"746 -96 LINE"
);
}
);
userData = {
assembly = "NPUSHB[ ]	/* 10 values pushed */\01233 1 8 3 0 1 0 4 2 74 \012MPPEM[ ]	/* MeasurePixelPerEm */\012PUSHB[ ]	/* 1 value pushed */\01225 \012LT[ ]	/* LessThan */\012IF[ ]	/* If */\012NPUSHB[ ]	/* 33 values pushed */\0120 7 0 1 2 7 1 103 0 8 0 0 8 0 99 5 1 3 3 2 93 6 1 2 2 34 75 0 4 4 33 4 76 \012ELSE[ ]	/* Else */\012NPUSHB[ ]	/* 31 values pushed */\0120 7 0 1 2 7 1 103 6 1 2 5 1 3 8 2 3 101 0 8 0 0 8 0 99 0 4 4 33 4 76 \012EIF[ ]	/* EndIf */\012NPUSHB[ ]	/* 12 values pushed */\01237 34 17 17 17 17 18 37 33 9 7 29 \012CALL[ ]	/* CallFunction */";
};
width = 754;
}
);
leftKerningGroup = t;
note = fl.ss01;
rightKerningGroup = d;
},
{
glyphname = a.sc;
layers = (
{
layerId = "F251586D-48D7-42AD-80B6-8A992ABEF986";
paths = (
{
closed = 1;
nodes = (
"503 0 LINE",
"691 0 LINE",
"434 578 LINE",
"244 578 LINE",
"-13 0 LINE",
"172 0 LINE",
"214 102 LINE",
"462 102 LINE",
"462 102 LINE"
);
},
{
closed = 1;
nodes = (
"268 236 LINE",
"339 410 LINE",
"408 236 LINE",
"408 236 LINE"
);
}
);
userData = {
assembly = "NPUSHB[ ]	/* 40 values pushed */\0129 1 4 2 1 74 5 1 4 0 0 1 4 0 102 0 2 2 46 75 3 1 1 1 47 1 76 8 8 8 10 8 10 17 17 17 16 6 8 24 \012CALL[ ]	/* CallFunction */";
};
width = 678;
}
);
leftKerningGroup = a.sc;
note = a.sc;
rightKerningGroup = a.sc;
},
{
glyphname = ae.sc;
layers = (
{
layerId = "F251586D-48D7-42AD-80B6-8A992ABEF986";
paths = (
{
closed = 1;
nodes = (
"616 142 LINE",
"616 226 LINE",
"866 226 LINE",
"866 360 LINE",
"616 360 LINE",
"616 436 LINE",
"900 436 LINE",
"900 578 LINE",
"298 578 LINE",
"-13 0 LINE",
"184 0 LINE",
"236 102 LINE",
"426 102 LINE",
"426 0 LINE",
"911 0 LINE",
"911 142 LINE",
"911 142 LINE"
);
},
{
closed = 1;
nodes = (
"304 236 LINE",
"404 434 LINE",
"426 434 LINE",
"426 236 LINE",
"426 236 LINE"
);
}
);
userData = {
assembly = "NPUSHB[ ]	/* 65 values pushed */\0120 5 0 6 7 5 6 101 11 1 9 0 1 0 9 1 101 8 1 4 4 3 93 0 3 3 46 75 10 1 7 7 0 93 2 1 0 0 47 0 76 16 16 0 0 16 19 16 19 18 17 0 15 0 15 17 17 17 17 17 17 17 12 8 27 \012CALL[ ]	/* CallFunction */";
};
width = 944;
}
);
leftKerningGroup = a.sc;
note = ae.sc;
rightKerningGroup = ae.sc;
},
{
glyphname = b.sc;
layers = (
{
layerId = "F251586D-48D7-42AD-80B6-8A992ABEF986";
paths = (
{
closed = 1;
nodes = (
"575 322 OFFCURVE",
"613 386 OFFCURVE",
"613 427 QCURVE SMOOTH",
"613 495 OFFCURVE",
"493 578 OFFCURVE",
"377 578 QCURVE SMOOTH",
"65 578 LINE",
"65 0 LINE",
"393 0 LINE SMOOTH",
"514 0 OFFCURVE",
"641 84 OFFCURVE",
"641 160 QCURVE SMOOTH",
"641 211 OFFCURVE",
"588 284 OFFCURVE",
"539 302 QCURVE",
"539 302 LINE"
);
},
{
closed = 1;
nodes = (
"352 447 LINE SMOOTH",
"386 447 OFFCURVE",
"420 422 OFFCURVE",
"420 399 QCURVE SMOOTH",
"420 376 OFFCURVE",
"385 352 OFFCURVE",
"352 352 QCURVE SMOOTH",
"255 352 LINE",
"255 447 LINE",
"255 447 LINE"
);
},
{
closed = 1;
nodes = (
"255 131 LINE",
"255 231 LINE",
"379 231 LINE SMOOTH",
"412 231 OFFCURVE",
"448 206 OFFCURVE",
"448 181 QCURVE SMOOTH",
"448 157 OFFCURVE",
"412 131 OFFCURVE",
"379 131 QCURVE",
"379 131 LINE"
);
}
);
userData = {
assembly = "NPUSHB[ ]	/* 57 values pushed */\01214 1 4 2 1 74 0 2 0 4 5 2 4 101 6 1 3 3 1 93 0 1 1 46 75 7 1 5 5 0 93 0 0 0 47 0 76 24 24 15 15 24 32 24 31 30 28 15 23 15 22 39 33 36 8 8 23 \012CALL[ ]	/* CallFunction */";
};
width = 666;
}
);
leftKerningGroup = b.sc;
note = b.sc;
rightKerningGroup = b.sc;
},
{
glyphname = c.sc;
layers = (
{
layerId = "F251586D-48D7-42AD-80B6-8A992ABEF986";
paths = (
{
closed = 1;
nodes = (
"446 -13 OFFCURVE",
"574 41 OFFCURVE",
"619 101 QCURVE",
"495 209 LINE",
"440 141 OFFCURVE",
"366 141 QCURVE SMOOTH",
"304 141 OFFCURVE",
"224 222 OFFCURVE",
"224 289 QCURVE SMOOTH",
"224 356 OFFCURVE",
"304 437 OFFCURVE",
"366 437 QCURVE SMOOTH",
"440 437 OFFCURVE",
"495 369 QCURVE",
"619 478 LINE",
"574 537 OFFCURVE",
"445 591 OFFCURVE",
"359 591 QCURVE SMOOTH",
"266 591 OFFCURVE",
"115 513 OFFCURVE",
"30 376 OFFCURVE",
"30 289 QCURVE SMOOTH",
"30 202 OFFCURVE",
"115 65 OFFCURVE",
"266 -13 OFFCURVE",
"359 -13 QCURVE",
"359 -13 LINE"
);
}
);
userData = {
assembly = "NPUSHB[ ]	/* 49 values pushed */\01210 1 1 0 21 11 2 2 1 22 1 3 2 3 74 0 1 1 0 95 0 0 0 48 75 0 2 2 3 95 4 1 3 3 49 3 76 0 0 0 25 0 24 36 36 38 5 8 23 \012CALL[ ]	/* CallFunction */";
};
width = 636;
}
);
leftKerningGroup = c.sc;
note = c.sc;
rightKerningGroup = c.sc;
},
{
glyphname = d.sc;
layers = (
{
layerId = "F251586D-48D7-42AD-80B6-8A992ABEF986";
paths = (
{
closed = 1;
nodes = (
"65 0 LINE",
"351 0 LINE SMOOTH",
"450 0 OFFCURVE",
"601 70 OFFCURVE",
"684 201 OFFCURVE",
"684 289 QCURVE SMOOTH",
"684 378 OFFCURVE",
"601 508 OFFCURVE",
"450 578 OFFCURVE",
"351 578 QCURVE SMOOTH",
"65 578 LINE",
"65 578 LINE"
);
},
{
closed = 1;
nodes = (
"258 147 LINE",
"258 431 LINE",
"344 431 LINE SMOOTH",
"411 431 OFFCURVE",
"489 358 OFFCURVE",
"489 289 QCURVE SMOOTH",
"489 221 OFFCURVE",
"411 147 OFFCURVE",
"344 147 QCURVE",
"344 147 LINE"
);
}
);
userData = {
assembly = "NPUSHB[ ]	/* 35 values pushed */\0120 3 3 0 93 0 0 0 46 75 4 1 2 2 1 93 0 1 1 47 1 76 12 11 18 16 11 19 12 19 38 32 5 8 22 \012CALL[ ]	/* CallFunction */";
};
width = 714;
}
);
leftKerningGroup = b.sc;
note = d.sc;
rightKerningGroup = d.sc;
},
{
glyphname = e.sc;
layers = (
{
layerId = "F251586D-48D7-42AD-80B6-8A992ABEF986";
paths = (
{
closed = 1;
nodes = (
"255 142 LINE",
"255 226 LINE",
"505 226 LINE",
"505 360 LINE",
"255 360 LINE",
"255 436 LINE",
"539 436 LINE",
"539 578 LINE",
"65 578 LINE",
"65 0 LINE",
"550 0 LINE",
"550 142 LINE",
"550 142 LINE"
);
}
);
userData = {
assembly = "NPUSHB[ ]	/* 44 values pushed */\0120 3 0 4 5 3 4 101 0 2 2 1 93 0 1 1 46 75 6 1 5 5 0 93 0 0 0 47 0 76 0 0 0 11 0 11 17 17 17 17 17 7 8 25 \012CALL[ ]	/* CallFunction */";
};
width = 583;
}
);
leftKerningGroup = b.sc;
note = e.sc;
rightKerningGroup = ae.sc;
},
{
glyphname = schwa.sc;
layers = (
{
layerId = "F251586D-48D7-42AD-80B6-8A992ABEF986";
paths = (
{
closed = 1;
nodes = (
"262 591 OFFCURVE",
"133 549 OFFCURVE",
"93 513 QCURVE",
"196 392 LINE",
"222 413 OFFCURVE",
"289 437 OFFCURVE",
"325 437 QCURVE SMOOTH",
"376 437 OFFCURVE",
"448 379 OFFCURVE",
"458 331 QCURVE",
"30 331 LINE",
"30 297 LINE SMOOTH",
"30 205 OFFCURVE",
"109 64 OFFCURVE",
"250 -13 OFFCURVE",
"341 -13 QCURVE SMOOTH",
"430 -13 OFFCURVE",
"571 63 OFFCURVE",
"651 201 OFFCURVE",
"651 289 QCURVE SMOOTH",
"651 376 OFFCURVE",
"569 514 OFFCURVE",
"424 591 OFFCURVE",
"333 591 QCURVE",
"333 591 LINE"
);
},
{
closed = 1;
nodes = (
"294 121 OFFCURVE",
"233 171 OFFCURVE",
"224 218 QCURVE",
"457 218 LINE",
"449 171 OFFCURVE",
"391 121 OFFCURVE",
"343 121 QCURVE",
"343 121 LINE"
);
}
);
userData = {
assembly = "NPUSHB[ ]	/* 61 values pushed */\01220 1 2 3 19 1 1 2 2 74 0 1 0 4 5 1 4 101 0 2 2 3 95 6 1 3 3 48 75 7 1 5 5 0 95 0 0 0 49 0 76 24 24 0 0 24 30 24 29 27 26 0 23 0 22 34 20 38 8 8 23 \012CALL[ ]	/* CallFunction */";
};
width = 681;
}
);
leftKerningGroup = c.sc;
note = uni0259.sc;
rightKerningGroup = d.sc;
},
{
glyphname = ezh.sc;
layers = (
{
layerId = "F251586D-48D7-42AD-80B6-8A992ABEF986";
paths = (
{
closed = 1;
nodes = (
"518 467 LINE",
"518 578 LINE",
"52 578 LINE",
"52 442 LINE",
"304 442 LINE",
"195 342 LINE",
"195 231 LINE",
"270 231 LINE SMOOTH",
"371 231 OFFCURVE",
"371 183 QCURVE SMOOTH",
"371 158 OFFCURVE",
"314 131 OFFCURVE",
"265 131 QCURVE SMOOTH",
"218 131 OFFCURVE",
"122 154 OFFCURVE",
"84 176 QCURVE",
"25 42 LINE",
"71 16 OFFCURVE",
"203 -12 OFFCURVE",
"271 -12 QCURVE SMOOTH",
"365 -12 OFFCURVE",
"491 42 OFFCURVE",
"552 131 OFFCURVE",
"552 184 QCURVE SMOOTH",
"552 246 OFFCURVE",
"468 334 OFFCURVE",
"389 349 QCURVE",
"389 349 LINE"
);
}
);
userData = {
assembly = "NPUSHB[ ]	/* 56 values pushed */\01225 1 3 4 26 20 2 2 3 10 1 1 2 9 1 0 1 4 74 0 2 3 1 3 2 1 126 0 3 3 4 93 0 4 4 46 75 0 1 1 0 95 0 0 0 49 0 76 17 18 35 37 37 5 8 25 \012CALL[ ]	/* CallFunction */";
};
width = 584;
}
);
note = uni0292.sc;
},
{
glyphname = f.sc;
layers = (
{
layerId = "F251586D-48D7-42AD-80B6-8A992ABEF986";
paths = (
{
closed = 1;
nodes = (
"539 436 LINE",
"539 578 LINE",
"65 578 LINE",
"65 0 LINE",
"258 0 LINE",
"258 187 LINE",
"505 187 LINE",
"505 329 LINE",
"258 329 LINE",
"258 436 LINE",
"258 436 LINE"
);
}
);
userData = {
assembly = "NPUSHB[ ]	/* 38 values pushed */\0120 0 0 1 2 0 1 101 5 1 4 4 3 93 0 3 3 46 75 0 2 2 47 2 76 0 0 0 9 0 9 17 17 17 17 6 8 24 \012CALL[ ]	/* CallFunction */";
};
width = 560;
}
);
leftKerningGroup = b.sc;
note = f.sc;
rightKerningGroup = f.sc;
},
{
glyphname = g.sc;
layers = (
{
layerId = "F251586D-48D7-42AD-80B6-8A992ABEF986";
paths = (
{
closed = 1;
nodes = (
"442 154 LINE",
"409 141 OFFCURVE",
"369 141 QCURVE SMOOTH",
"303 141 OFFCURVE",
"224 222 OFFCURVE",
"224 289 QCURVE SMOOTH",
"224 356 OFFCURVE",
"304 437 OFFCURVE",
"368 437 QCURVE SMOOTH",
"448 437 OFFCURVE",
"502 373 QCURVE",
"628 481 LINE",
"541 591 OFFCURVE",
"367 591 QCURVE SMOOTH",
"270 591 OFFCURVE",
"116 513 OFFCURVE",
"30 376 OFFCURVE",
"30 289 QCURVE SMOOTH",
"30 202 OFFCURVE",
"114 65 OFFCURVE",
"267 -13 OFFCURVE",
"366 -13 QCURVE SMOOTH",
"427 -13 OFFCURVE",
"562 26 OFFCURVE",
"612 61 QCURVE",
"612 299 LINE",
"442 299 LINE",
"442 299 LINE"
);
}
);
userData = {
assembly = "NPUSHB[ ]	/* 55 values pushed */\01215 1 3 2 16 1 0 3 26 1 4 0 2 1 1 4 4 74 0 0 3 4 3 0 4 126 0 3 3 2 95 0 2 2 48 75 0 4 4 1 95 0 1 1 49 1 76 36 35 38 35 16 5 8 25 \012CALL[ ]	/* CallFunction */";
};
width = 663;
}
);
leftKerningGroup = c.sc;
note = g.sc;
rightKerningGroup = g.sc;
},
{
glyphname = h.sc;
layers = (
{
layerId = "F251586D-48D7-42AD-80B6-8A992ABEF986";
paths = (
{
closed = 1;
nodes = (
"65 0 LINE",
"258 0 LINE",
"258 216 LINE",
"449 216 LINE",
"449 0 LINE",
"642 0 LINE",
"642 578 LINE",
"449 578 LINE",
"449 370 LINE",
"258 370 LINE",
"258 578 LINE",
"65 578 LINE",
"65 578 LINE"
);
}
);
userData = {
assembly = "NPUSHB[ ]	/* 30 values pushed */\0120 1 0 4 3 1 4 101 2 1 0 0 46 75 5 1 3 3 47 3 76 17 17 17 17 17 16 6 8 26 \012CALL[ ]	/* CallFunction */";
};
width = 707;
}
);
leftKerningGroup = b.sc;
note = h.sc;
rightKerningGroup = h.sc;
},
{
glyphname = i.sc;
layers = (
{
layerId = "F251586D-48D7-42AD-80B6-8A992ABEF986";
paths = (
{
closed = 1;
nodes = (
"65 0 LINE",
"258 0 LINE",
"258 578 LINE",
"65 578 LINE",
"65 578 LINE"
);
}
);
userData = {
assembly = "NPUSHB[ ]	/* 16 values pushed */\0120 0 0 46 75 0 1 1 47 1 76 17 16 2 8 22 \012CALL[ ]	/* CallFunction */";
};
width = 323;
}
);
leftKerningGroup = b.sc;
note = i.sc;
rightKerningGroup = h.sc;
},
{
glyphname = iacute_j.loclNLD.sc;
layers = (
{
layerId = "F251586D-48D7-42AD-80B6-8A992ABEF986";
paths = (
{
closed = 1;
nodes = (
"47 643 LINE",
"176 643 LINE",
"365 795 LINE",
"181 795 LINE",
"181 795 LINE"
);
},
{
closed = 1;
nodes = (
"378 643 LINE",
"506 643 LINE",
"695 795 LINE",
"511 795 LINE",
"511 795 LINE"
);
},
{
closed = 1;
nodes = (
"407 -8 OFFCURVE",
"567 140 OFFCURVE",
"567 274 QCURVE SMOOTH",
"567 578 LINE",
"374 578 LINE",
"374 264 LINE SMOOTH",
"374 144 OFFCURVE",
"259 144 QCURVE SMOOTH",
"172 144 OFFCURVE",
"99 196 QCURVE",
"28 59 LINE",
"126 -8 OFFCURVE",
"267 -8 QCURVE",
"267 -8 LINE"
);
},
{
closed = 1;
nodes = (
"44 277 LINE",
"237 277 LINE",
"237 578 LINE",
"44 578 LINE",
"44 578 LINE"
);
}
);
userData = {
assembly = "NPUSHB[ ]	/* 64 values pushed */\01210 1 4 8 9 1 6 4 2 74 2 1 0 1 0 131 3 1 1 5 1 131 0 8 8 5 93 7 1 5 5 46 75 0 4 4 6 96 9 1 6 6 49 6 76 8 8 24 23 22 21 8 20 8 19 18 36 17 17 17 16 10 8 26 \012CALL[ ]	/* CallFunction */";
};
width = 611;
}
);
leftKerningGroup = b.sc;
note = iacute_j.loclNLD.sc;
rightKerningGroup = iacute_j.loclNLD.sc;
},
{
glyphname = ij.sc;
layers = (
{
layerId = "F251586D-48D7-42AD-80B6-8A992ABEF986";
paths = (
{
closed = 1;
nodes = (
"417 -8 OFFCURVE",
"577 140 OFFCURVE",
"577 274 QCURVE SMOOTH",
"577 578 LINE",
"384 578 LINE",
"384 264 LINE SMOOTH",
"384 144 OFFCURVE",
"269 144 QCURVE SMOOTH",
"183 144 OFFCURVE",
"108 196 QCURVE",
"37 59 LINE",
"133 -8 OFFCURVE",
"278 -8 QCURVE",
"278 -8 LINE"
);
},
{
closed = 1;
nodes = (
"54 277 LINE",
"247 277 LINE",
"247 578 LINE",
"54 578 LINE",
"54 578 LINE"
);
}
);
userData = {
assembly = "NPUSHB[ ]	/* 48 values pushed */\0122 1 0 4 1 1 2 0 2 74 0 4 4 1 93 3 1 1 1 46 75 0 0 0 2 96 5 1 2 2 49 2 76 0 0 16 15 14 13 0 12 0 11 18 35 6 8 22 \012CALL[ ]	/* CallFunction */";
};
width = 637;
}
);
leftKerningGroup = b.sc;
note = ij.sc;
rightKerningGroup = iacute_j.loclNLD.sc;
},
{
glyphname = j.sc;
layers = (
{
layerId = "F251586D-48D7-42AD-80B6-8A992ABEF986";
paths = (
{
closed = 1;
nodes = (
"314 -13 OFFCURVE",
"438 108 OFFCURVE",
"438 230 QCURVE SMOOTH",
"438 578 LINE",
"47 578 LINE",
"47 434 LINE",
"247 434 LINE",
"247 211 LINE SMOOTH",
"247 175 OFFCURVE",
"215 137 OFFCURVE",
"184 137 QCURVE SMOOTH",
"134 137 OFFCURVE",
"92 194 QCURVE",
"-18 75 LINE",
"16 32 OFFCURVE",
"125 -13 OFFCURVE",
"195 -13 QCURVE",
"195 -13 LINE"
);
}
);
userData = {
assembly = "NPUSHB[ ]	/* 44 values pushed */\0123 1 0 1 2 1 3 0 2 74 0 1 1 2 93 0 2 2 46 75 0 0 0 3 95 4 1 3 3 49 3 76 0 0 0 16 0 15 17 19 36 5 8 23 \012CALL[ ]	/* CallFunction */";
};
width = 498;
}
);
leftKerningGroup = j.sc;
note = j.sc;
rightKerningGroup = iacute_j.loclNLD.sc;
},
{
glyphname = k.sc;
layers = (
{
layerId = "F251586D-48D7-42AD-80B6-8A992ABEF986";
paths = (
{
closed = 1;
nodes = (
"452 0 LINE",
"676 0 LINE",
"428 322 LINE",
"664 578 LINE",
"453 578 LINE",
"255 364 LINE",
"255 578 LINE",
"65 578 LINE",
"65 0 LINE",
"255 0 LINE",
"255 145 LINE",
"301 195 LINE",
"301 195 LINE"
);
}
);
userData = {
assembly = "NPUSHB[ ]	/* 28 values pushed */\0129 6 1 3 0 1 1 74 2 1 1 1 46 75 3 1 0 0 47 0 76 18 18 17 18 4 8 24 \012CALL[ ]	/* CallFunction */";
};
width = 662;
}
);
leftKerningGroup = b.sc;
note = k.sc;
rightKerningGroup = k.sc;
},
{
glyphname = l.sc;
layers = (
{
layerId = "F251586D-48D7-42AD-80B6-8A992ABEF986";
paths = (
{
closed = 1;
nodes = (
"65 0 LINE",
"526 0 LINE",
"526 146 LINE",
"258 146 LINE",
"258 578 LINE",
"65 578 LINE",
"65 578 LINE"
);
}
);
userData = {
assembly = "NPUSHB[ ]	/* 22 values pushed */\0120 0 0 46 75 0 1 1 2 94 0 2 2 47 2 76 17 17 16 3 8 23 \012CALL[ ]	/* CallFunction */";
};
width = 533;
}
);
leftKerningGroup = b.sc;
note = l.sc;
rightKerningGroup = l.sc;
},
{
glyphname = m.sc;
layers = (
{
layerId = "F251586D-48D7-42AD-80B6-8A992ABEF986";
paths = (
{
closed = 1;
nodes = (
"767 0 LINE",
"766 578 LINE",
"605 578 LINE",
"418 268 LINE",
"225 578 LINE",
"65 578 LINE",
"65 0 LINE",
"242 0 LINE",
"242 262 LINE",
"372 57 LINE",
"458 57 LINE",
"588 272 LINE",
"590 0 LINE",
"590 0 LINE"
);
}
);
userData = {
assembly = "NPUSHB[ ]	/* 43 values pushed */\0129 4 1 3 0 2 1 74 0 0 2 1 2 0 1 126 3 1 2 2 46 75 5 4 2 1 1 47 1 76 0 0 0 12 0 12 18 17 18 18 6 8 24 \012CALL[ ]	/* CallFunction */";
};
width = 832;
}
);
leftKerningGroup = b.sc;
note = m.sc;
rightKerningGroup = h.sc;
},
{
glyphname = n.sc;
layers = (
{
layerId = "F251586D-48D7-42AD-80B6-8A992ABEF986";
paths = (
{
closed = 1;
nodes = (
"453 578 LINE",
"453 306 LINE",
"224 578 LINE",
"65 578 LINE",
"65 0 LINE",
"254 0 LINE",
"254 270 LINE",
"483 0 LINE",
"642 0 LINE",
"642 578 LINE",
"642 578 LINE"
);
}
);
userData = {
assembly = "NPUSHB[ ]	/* 33 values pushed */\0128 3 2 0 2 1 74 4 3 2 2 2 46 75 1 1 0 0 47 0 76 0 0 0 9 0 9 17 18 17 5 8 23 \012CALL[ ]	/* CallFunction */";
};
width = 707;
}
);
leftKerningGroup = b.sc;
note = n.sc;
rightKerningGroup = h.sc;
},
{
glyphname = eng.sc;
layers = (
{
layerId = "F251586D-48D7-42AD-80B6-8A992ABEF986";
paths = (
{
closed = 1;
nodes = (
"453 578 LINE",
"453 306 LINE",
"224 578 LINE",
"65 578 LINE",
"65 0 LINE",
"254 0 LINE",
"254 270 LINE",
"452 36 LINE",
"446 -20 OFFCURVE",
"393 -20 QCURVE SMOOTH",
"360 -20 OFFCURVE",
"332 1 QCURVE",
"260 -134 LINE",
"292 -152 OFFCURVE",
"362 -168 OFFCURVE",
"406 -168 QCURVE SMOOTH",
"523 -168 OFFCURVE",
"642 -33 OFFCURVE",
"642 108 QCURVE SMOOTH",
"642 578 LINE",
"642 578 LINE"
);
}
);
userData = {
assembly = "NPUSHB[ ]	/* 45 values pushed */\01218 13 8 3 2 3 7 1 0 1 2 74 0 1 0 0 1 0 100 5 4 2 3 3 46 75 0 2 2 47 2 76 0 0 0 19 0 19 17 19 36 35 6 8 24 \012CALL[ ]	/* CallFunction */";
};
width = 707;
}
);
leftKerningGroup = b.sc;
note = eng.sc;
rightKerningGroup = h.sc;
},
{
glyphname = o.sc;
layers = (
{
layerId = "F251586D-48D7-42AD-80B6-8A992ABEF986";
paths = (
{
closed = 1;
nodes = (
"455 -13 OFFCURVE",
"606 65 OFFCURVE",
"692 203 OFFCURVE",
"692 289 QCURVE SMOOTH",
"692 375 OFFCURVE",
"606 513 OFFCURVE",
"455 591 OFFCURVE",
"361 591 QCURVE SMOOTH",
"267 591 OFFCURVE",
"116 513 OFFCURVE",
"30 375 OFFCURVE",
"30 289 QCURVE SMOOTH",
"30 203 OFFCURVE",
"116 65 OFFCURVE",
"267 -13 OFFCURVE",
"361 -13 QCURVE",
"361 -13 LINE"
);
},
{
closed = 1;
nodes = (
"301 141 OFFCURVE",
"224 224 OFFCURVE",
"224 289 QCURVE SMOOTH",
"224 354 OFFCURVE",
"301 437 OFFCURVE",
"361 437 QCURVE SMOOTH",
"420 437 OFFCURVE",
"497 354 OFFCURVE",
"497 289 QCURVE SMOOTH",
"497 224 OFFCURVE",
"420 141 OFFCURVE",
"361 141 QCURVE",
"361 141 LINE"
);
}
);
userData = {
assembly = "NPUSHB[ ]	/* 41 values pushed */\0120 2 2 0 95 0 0 0 48 75 5 1 3 3 1 95 4 1 1 1 49 1 76 16 16 0 0 16 27 16 26 22 20 0 15 0 14 38 6 8 21 \012CALL[ ]	/* CallFunction */";
};
width = 721;
}
);
leftKerningGroup = c.sc;
note = o.sc;
rightKerningGroup = d.sc;
},
{
glyphname = ohorn.sc;
layers = (
{
layerId = "F251586D-48D7-42AD-80B6-8A992ABEF986";
paths = (
{
closed = 1;
nodes = (
"698 694 OFFCURVE",
"664 738 QCURVE",
"554 699 LINE",
"574 674 OFFCURVE",
"574 641 QCURVE SMOOTH",
"574 611 OFFCURVE",
"542 580 OFFCURVE",
"511 580 QCURVE SMOOTH",
"501 580 OFFCURVE",
"463 584 QCURVE SMOOTH",
"400 591 OFFCURVE",
"361 591 QCURVE SMOOTH",
"267 591 OFFCURVE",
"116 513 OFFCURVE",
"30 375 OFFCURVE",
"30 289 QCURVE SMOOTH",
"30 203 OFFCURVE",
"116 65 OFFCURVE",
"267 -13 OFFCURVE",
"361 -13 QCURVE SMOOTH",
"455 -13 OFFCURVE",
"606 65 OFFCURVE",
"692 203 OFFCURVE",
"692 289 QCURVE SMOOTH",
"692 346 OFFCURVE",
"654 446 OFFCURVE",
"618 484 QCURVE",
"658 504 OFFCURVE",
"698 582 OFFCURVE",
"698 633 QCURVE",
"698 633 LINE"
);
},
{
closed = 1;
nodes = (
"301 141 OFFCURVE",
"224 224 OFFCURVE",
"224 289 QCURVE SMOOTH",
"224 355 OFFCURVE",
"304 437 OFFCURVE",
"365 437 QCURVE SMOOTH",
"423 437 OFFCURVE",
"497 354 OFFCURVE",
"497 289 QCURVE SMOOTH",
"497 224 OFFCURVE",
"420 141 OFFCURVE",
"361 141 QCURVE",
"361 141 LINE"
);
}
);
userData = {
assembly = "MPPEM[ ]	/* MeasurePixelPerEm */\012PUSHB[ ]	/* 1 value pushed */\01222 \012LT[ ]	/* LessThan */\012IF[ ]	/* If */\012NPUSHB[ ]	/* 11 values pushed */\0122 1 3 1 1 74 27 26 2 1 72 \012ELSE[ ]	/* Else */\012NPUSHB[ ]	/* 11 values pushed */\0122 1 3 2 1 74 27 26 2 1 72 \012EIF[ ]	/* EndIf */\012MPPEM[ ]	/* MeasurePixelPerEm */\012PUSHB[ ]	/* 1 value pushed */\01222 \012LT[ ]	/* LessThan */\012IF[ ]	/* If */\012NPUSHB[ ]	/* 23 values pushed */\0120 3 3 1 95 2 1 1 1 48 75 5 1 4 4 0 95 0 0 0 49 0 76 \012ELSE[ ]	/* Else */\012NPUSHB[ ]	/* 27 values pushed */\0120 2 2 46 75 0 3 3 1 95 0 1 1 48 75 5 1 4 4 0 95 0 0 0 49 0 76 \012EIF[ ]	/* EndIf */\012NPUSHB[ ]	/* 13 values pushed */\01230 30 30 41 30 40 44 34 38 40 6 8 24 \012CALL[ ]	/* CallFunction */";
};
width = 721;
}
);
leftKerningGroup = c.sc;
note = ohorn.sc;
rightKerningGroup = d.sc;
},
{
glyphname = oogonek.sc;
layers = (
{
layerId = "F251586D-48D7-42AD-80B6-8A992ABEF986";
paths = (
{
closed = 1;
nodes = (
"578 39 OFFCURVE",
"692 188 OFFCURVE",
"692 289 QCURVE SMOOTH",
"692 375 OFFCURVE",
"606 513 OFFCURVE",
"455 591 OFFCURVE",
"361 591 QCURVE SMOOTH",
"266 591 OFFCURVE",
"115 513 OFFCURVE",
"30 375 OFFCURVE",
"30 289 QCURVE SMOOTH",
"30 212 OFFCURVE",
"99 84 OFFCURVE",
"223 2 OFFCURVE",
"303 -9 QCURVE",
"245 -54 OFFCURVE",
"245 -119 QCURVE SMOOTH",
"245 -172 OFFCURVE",
"323 -236 OFFCURVE",
"392 -236 QCURVE SMOOTH",
"422 -236 OFFCURVE",
"480 -223 OFFCURVE",
"499 -213 QCURVE",
"474 -131 LINE",
"446 -146 OFFCURVE",
"415 -146 QCURVE SMOOTH",
"388 -146 OFFCURVE",
"360 -121 OFFCURVE",
"360 -101 QCURVE SMOOTH",
"360 -69 OFFCURVE",
"420 -16 OFFCURVE",
"485 6 QCURVE",
"485 6 LINE"
);
},
{
closed = 1;
nodes = (
"224 354 OFFCURVE",
"301 437 OFFCURVE",
"361 437 QCURVE SMOOTH",
"420 437 OFFCURVE",
"497 354 OFFCURVE",
"497 289 QCURVE SMOOTH",
"497 224 OFFCURVE",
"420 141 OFFCURVE",
"361 141 QCURVE SMOOTH",
"301 141 OFFCURVE",
"224 224 OFFCURVE",
"224 289 QCURVE",
"224 289 LINE"
);
}
);
userData = {
assembly = "NPUSHB[ ]	/* 45 values pushed */\01216 7 2 0 3 8 1 1 0 2 74 0 3 4 0 4 3 0 126 0 0 0 1 0 1 100 0 4 4 2 95 0 2 2 48 4 76 36 40 43 36 36 5 8 25 \012CALL[ ]	/* CallFunction */";
};
width = 721;
}
);
leftKerningGroup = c.sc;
note = uni01EB.sc;
rightKerningGroup = d.sc;
},
{
glyphname = oe.sc;
layers = (
{
layerId = "F251586D-48D7-42AD-80B6-8A992ABEF986";
paths = (
{
closed = 1;
nodes = (
"644 142 LINE",
"644 226 LINE",
"894 226 LINE",
"894 360 LINE",
"644 360 LINE",
"644 436 LINE",
"928 436 LINE",
"928 578 LINE",
"375 578 LINE SMOOTH",
"268 578 OFFCURVE",
"113 509 OFFCURVE",
"30 378 OFFCURVE",
"30 289 QCURVE SMOOTH",
"30 200 OFFCURVE",
"113 70 OFFCURVE",
"268 0 OFFCURVE",
"375 0 QCURVE SMOOTH",
"939 0 LINE",
"939 142 LINE",
"939 142 LINE"
);
},
{
closed = 1;
nodes = (
"378 146 LINE SMOOTH",
"307 146 OFFCURVE",
"224 221 OFFCURVE",
"224 289 QCURVE SMOOTH",
"224 357 OFFCURVE",
"306 431 OFFCURVE",
"378 431 QCURVE SMOOTH",
"454 431 LINE",
"454 146 LINE",
"454 146 LINE"
);
}
);
userData = {
assembly = "MPPEM[ ]	/* MeasurePixelPerEm */\012PUSHB[ ]	/* 1 value pushed */\01246 \012LT[ ]	/* LessThan */\012IF[ ]	/* If */\012NPUSHB[ ]	/* 33 values pushed */\0120 3 0 4 5 3 4 101 6 1 2 2 1 93 0 1 1 46 75 9 7 8 3 5 5 0 93 0 0 0 47 0 76 \012ELSE[ ]	/* Else */\012NPUSHB[ ]	/* 39 values pushed */\0120 6 2 3 2 6 112 0 3 0 4 5 3 4 101 0 2 2 1 93 0 1 1 46 75 9 7 8 3 5 5 0 93 0 0 0 47 0 76 \012EIF[ ]	/* EndIf */\012NPUSHB[ ]	/* 22 values pushed */\01219 19 0 0 19 27 19 26 22 20 0 18 0 18 17 17 17 38 33 10 8 25 \012CALL[ ]	/* CallFunction */";
};
width = 972;
}
);
leftKerningGroup = c.sc;
note = oe.sc;
rightKerningGroup = ae.sc;
},
{
glyphname = p.sc;
layers = (
{
layerId = "F251586D-48D7-42AD-80B6-8A992ABEF986";
paths = (
{
closed = 1;
nodes = (
"65 578 LINE",
"65 0 LINE",
"258 0 LINE",
"258 144 LINE",
"345 144 LINE SMOOTH",
"468 144 OFFCURVE",
"612 260 OFFCURVE",
"612 361 QCURVE SMOOTH",
"612 427 OFFCURVE",
"547 525 OFFCURVE",
"426 578 OFFCURVE",
"345 578 QCURVE",
"345 578 LINE"
);
},
{
closed = 1;
nodes = (
"258 288 LINE",
"258 433 LINE",
"331 433 LINE SMOOTH",
"374 433 OFFCURVE",
"419 395 OFFCURVE",
"419 361 QCURVE SMOOTH",
"419 327 OFFCURVE",
"374 288 OFFCURVE",
"331 288 QCURVE",
"331 288 LINE"
);
}
);
userData = {
assembly = "NPUSHB[ ]	/* 45 values pushed */\0126 1 4 0 0 1 4 0 101 0 3 3 2 93 5 1 2 2 46 75 0 1 1 47 1 76 12 12 0 0 12 20 12 19 18 16 0 11 0 10 17 37 7 8 22 \012CALL[ ]	/* CallFunction */";
};
width = 645;
}
);
leftKerningGroup = b.sc;
note = p.sc;
rightKerningGroup = p.sc;
},
{
glyphname = thorn.sc;
layers = (
{
layerId = "F251586D-48D7-42AD-80B6-8A992ABEF986";
paths = (
{
closed = 1;
nodes = (
"258 522 LINE",
"258 579 LINE",
"65 579 LINE",
"65 0 LINE",
"258 0 LINE",
"258 87 LINE",
"345 87 LINE SMOOTH",
"426 87 OFFCURVE",
"547 140 OFFCURVE",
"612 238 OFFCURVE",
"612 304 QCURVE SMOOTH",
"612 370 OFFCURVE",
"547 469 OFFCURVE",
"426 522 OFFCURVE",
"345 522 QCURVE",
"345 522 LINE"
);
},
{
closed = 1;
nodes = (
"258 232 LINE",
"258 377 LINE",
"331 377 LINE SMOOTH",
"374 377 OFFCURVE",
"419 338 OFFCURVE",
"419 304 QCURVE SMOOTH",
"419 270 OFFCURVE",
"374 232 OFFCURVE",
"331 232 QCURVE",
"331 232 LINE"
);
}
);
userData = {
assembly = "NPUSHB[ ]	/* 49 values pushed */\0126 1 3 0 4 5 3 4 101 7 1 5 0 0 1 5 0 101 0 2 2 46 75 0 1 1 47 1 76 15 15 0 0 15 23 15 22 21 19 0 14 0 13 17 17 38 8 8 23 \012CALL[ ]	/* CallFunction */";
};
width = 645;
}
);
leftKerningGroup = b.sc;
note = thorn.sc;
rightKerningGroup = thorn.sc;
},
{
glyphname = q.sc;
layers = (
{
layerId = "F251586D-48D7-42AD-80B6-8A992ABEF986";
paths = (
{
closed = 1;
nodes = (
"639 25 LINE",
"602 -12 OFFCURVE",
"558 -12 QCURVE SMOOTH",
"540 -12 OFFCURVE",
"514 -1 OFFCURVE",
"500 12 QCURVE",
"588 47 OFFCURVE",
"692 194 OFFCURVE",
"692 289 QCURVE SMOOTH",
"692 375 OFFCURVE",
"606 513 OFFCURVE",
"455 591 OFFCURVE",
"361 591 QCURVE SMOOTH",
"267 591 OFFCURVE",
"116 513 OFFCURVE",
"30 375 OFFCURVE",
"30 289 QCURVE SMOOTH",
"30 216 OFFCURVE",
"94 93 OFFCURVE",
"208 10 OFFCURVE",
"282 -5 QCURVE",
"359 -85 OFFCURVE",
"476 -145 OFFCURVE",
"554 -145 QCURVE SMOOTH",
"660 -145 OFFCURVE",
"724 -73 QCURVE",
"724 -73 LINE"
);
},
{
closed = 1;
nodes = (
"420 437 OFFCURVE",
"497 354 OFFCURVE",
"497 289 QCURVE SMOOTH",
"497 224 OFFCURVE",
"420 141 OFFCURVE",
"361 141 QCURVE SMOOTH",
"301 141 OFFCURVE",
"224 224 OFFCURVE",
"224 289 QCURVE SMOOTH",
"224 354 OFFCURVE",
"301 437 OFFCURVE",
"361 437 QCURVE",
"361 437 LINE"
);
}
);
userData = {
assembly = "NPUSHB[ ]	/* 47 values pushed */\01225 20 2 2 3 1 74 0 3 4 2 4 3 2 126 0 2 0 0 2 0 99 5 1 4 4 1 95 0 1 1 48 4 76 26 26 26 37 26 36 38 40 41 33 6 8 24 \012CALL[ ]	/* CallFunction */";
};
width = 721;
}
);
leftKerningGroup = c.sc;
note = q.sc;
rightKerningGroup = d.sc;
},
{
glyphname = r.sc;
layers = (
{
layerId = "F251586D-48D7-42AD-80B6-8A992ABEF986";
paths = (
{
closed = 1;
nodes = (
"418 0 LINE",
"625 0 LINE",
"500 178 LINE",
"554 205 OFFCURVE",
"612 299 OFFCURVE",
"612 361 QCURVE SMOOTH",
"612 427 OFFCURVE",
"547 525 OFFCURVE",
"426 578 OFFCURVE",
"345 578 QCURVE SMOOTH",
"65 578 LINE",
"65 0 LINE",
"258 0 LINE",
"258 146 LINE",
"317 146 LINE",
"317 146 LINE"
);
},
{
closed = 1;
nodes = (
"419 327 OFFCURVE",
"374 288 OFFCURVE",
"331 288 QCURVE SMOOTH",
"258 288 LINE",
"258 433 LINE",
"331 433 LINE SMOOTH",
"374 433 OFFCURVE",
"419 395 OFFCURVE",
"419 361 QCURVE",
"419 361 LINE"
);
}
);
userData = {
assembly = "NPUSHB[ ]	/* 40 values pushed */\01212 1 0 5 1 74 0 5 0 0 1 5 0 101 0 4 4 2 93 0 2 2 46 75 3 1 1 1 47 1 76 33 34 23 33 17 16 6 8 26 \012CALL[ ]	/* CallFunction */";
};
width = 652;
}
);
leftKerningGroup = b.sc;
note = r.sc;
rightKerningGroup = r.sc;
},
{
glyphname = s.sc;
layers = (
{
layerId = "F251586D-48D7-42AD-80B6-8A992ABEF986";
paths = (
{
closed = 1;
nodes = (
"359 -13 OFFCURVE",
"484 38 OFFCURVE",
"547 126 OFFCURVE",
"547 182 QCURVE SMOOTH",
"547 244 OFFCURVE",
"480 316 OFFCURVE",
"389 348 OFFCURVE",
"322 361 QCURVE SMOOTH",
"268 371 OFFCURVE",
"220 390 OFFCURVE",
"220 408 QCURVE SMOOTH",
"220 425 OFFCURVE",
"259 447 OFFCURVE",
"298 447 QCURVE SMOOTH",
"389 447 OFFCURVE",
"463 402 QCURVE",
"522 541 LINE",
"479 566 OFFCURVE",
"365 591 OFFCURVE",
"305 591 QCURVE SMOOTH",
"221 591 OFFCURVE",
"96 541 OFFCURVE",
"30 453 OFFCURVE",
"30 398 QCURVE SMOOTH",
"30 335 OFFCURVE",
"97 261 OFFCURVE",
"187 229 OFFCURVE",
"254 216 QCURVE SMOOTH",
"309 204 OFFCURVE",
"357 185 OFFCURVE",
"357 166 QCURVE SMOOTH",
"357 150 OFFCURVE",
"321 131 OFFCURVE",
"282 131 QCURVE SMOOTH",
"229 131 OFFCURVE",
"125 160 OFFCURVE",
"83 186 QCURVE",
"19 47 LINE",
"63 20 OFFCURVE",
"201 -13 OFFCURVE",
"272 -13 QCURVE",
"272 -13 LINE"
);
}
);
userData = {
assembly = "NPUSHB[ ]	/* 49 values pushed */\01223 1 2 1 24 3 2 0 2 2 1 3 0 3 74 0 2 2 1 95 0 1 1 48 75 0 0 0 3 95 4 1 3 3 49 3 76 0 0 0 40 0 39 36 44 37 5 8 23 \012CALL[ ]	/* CallFunction */";
};
width = 562;
}
);
leftKerningGroup = s.sc;
note = s.sc;
rightKerningGroup = s.sc;
},
{
glyphname = germandbls.sc;
layers = (
{
layerId = "F251586D-48D7-42AD-80B6-8A992ABEF986";
paths = (
{
closed = 1;
nodes = (
"600 427 LINE",
"600 538 LINE",
"559 563 OFFCURVE",
"435 591 OFFCURVE",
"377 591 QCURVE SMOOTH",
"277 591 OFFCURVE",
"135 524 OFFCURVE",
"60 399 OFFCURVE",
"60 314 QCURVE SMOOTH",
"60 0 LINE",
"253 0 LINE",
"253 310 LINE SMOOTH",
"253 375 OFFCURVE",
"318 445 OFFCURVE",
"381 445 QCURVE SMOOTH",
"406 445 OFFCURVE",
"434 440 QCURVE",
"314 300 LINE",
"347 224 LINE",
"372 233 OFFCURVE",
"401 233 QCURVE SMOOTH",
"434 233 OFFCURVE",
"468 207 OFFCURVE",
"468 183 QCURVE SMOOTH",
"468 133 OFFCURVE",
"401 133 QCURVE SMOOTH",
"357 133 OFFCURVE",
"325 149 QCURVE",
"297 7 LINE",
"354 -13 OFFCURVE",
"429 -13 QCURVE SMOOTH",
"537 -13 OFFCURVE",
"662 89 OFFCURVE",
"662 175 QCURVE SMOOTH",
"662 237 OFFCURVE",
"590 326 OFFCURVE",
"531 346 QCURVE",
"531 346 LINE"
);
}
);
userData = {
assembly = "MPPEM[ ]	/* MeasurePixelPerEm */\012PUSHB[ ]	/* 1 value pushed */\01219 \012LT[ ]	/* LessThan */\012IF[ ]	/* If */\012NPUSHB[ ]	/* 22 values pushed */\01234 1 3 5 36 35 19 18 4 2 3 17 8 2 1 2 7 1 0 1 4 74 \012ELSE[ ]	/* Else */\012NPUSHB[ ]	/* 22 values pushed */\01234 1 3 5 36 35 19 18 4 2 3 17 8 2 1 2 7 1 4 1 4 74 \012EIF[ ]	/* EndIf */\012MPPEM[ ]	/* MeasurePixelPerEm */\012PUSHB[ ]	/* 1 value pushed */\01219 \012LT[ ]	/* LessThan */\012IF[ ]	/* If */\012NPUSHB[ ]	/* 30 values pushed */\0120 2 3 1 3 2 1 126 0 3 3 5 95 0 5 5 48 75 0 1 1 0 95 4 1 0 0 49 0 76 \012ELSE[ ]	/* Else */\012NPUSHB[ ]	/* 34 values pushed */\0120 2 3 1 3 2 1 126 0 3 3 5 95 0 5 5 48 75 0 4 4 47 75 0 1 1 0 95 0 0 0 49 0 76 \012EIF[ ]	/* EndIf */\012NPUSHB[ ]	/* 9 values pushed */\01236 19 36 35 35 36 6 8 26 \012CALL[ ]	/* CallFunction */";
};
width = 686;
}
);
note = germandbls.sc;
rightKerningGroup = b.sc;
},
{
glyphname = t.sc;
layers = (
{
layerId = "F251586D-48D7-42AD-80B6-8A992ABEF986";
paths = (
{
closed = 1;
nodes = (
"177 0 LINE",
"370 0 LINE",
"370 432 LINE",
"544 432 LINE",
"544 578 LINE",
"3 578 LINE",
"3 432 LINE",
"177 432 LINE",
"177 432 LINE"
);
}
);
userData = {
assembly = "NPUSHB[ ]	/* 24 values pushed */\0122 1 0 0 1 93 0 1 1 46 75 0 3 3 47 3 76 17 17 17 16 4 8 24 \012CALL[ ]	/* CallFunction */";
};
width = 547;
}
);
leftKerningGroup = t.sc;
note = t.sc;
rightKerningGroup = t.sc;
},
{
glyphname = u.sc;
layers = (
{
layerId = "F251586D-48D7-42AD-80B6-8A992ABEF986";
paths = (
{
closed = 1;
nodes = (
"479 -13 OFFCURVE",
"629 129 OFFCURVE",
"629 251 QCURVE SMOOTH",
"629 578 LINE",
"440 578 LINE",
"440 257 LINE SMOOTH",
"440 141 OFFCURVE",
"347 141 QCURVE SMOOTH",
"253 141 OFFCURVE",
"253 257 QCURVE SMOOTH",
"253 578 LINE",
"60 578 LINE",
"60 251 LINE SMOOTH",
"60 171 OFFCURVE",
"128 52 OFFCURVE",
"256 -13 OFFCURVE",
"345 -13 QCURVE",
"345 -13 LINE"
);
}
);
userData = {
assembly = "NPUSHB[ ]	/* 30 values pushed */\0122 1 0 0 46 75 0 1 1 3 96 4 1 3 3 49 3 76 0 0 0 16 0 15 18 34 20 5 8 23 \012CALL[ ]	/* CallFunction */";
};
width = 689;
}
);
leftKerningGroup = u.sc;
note = u.sc;
rightKerningGroup = iacute_j.loclNLD.sc;
},
{
glyphname = uogonek.sc;
layers = (
{
layerId = "F251586D-48D7-42AD-80B6-8A992ABEF986";
paths = (
{
closed = 1;
nodes = (
"440 578 LINE",
"440 257 LINE SMOOTH",
"440 141 OFFCURVE",
"347 141 QCURVE SMOOTH",
"253 141 OFFCURVE",
"253 257 QCURVE SMOOTH",
"253 578 LINE",
"60 578 LINE",
"60 251 LINE SMOOTH",
"60 145 OFFCURVE",
"177 7 OFFCURVE",
"283 -9 QCURVE",
"225 -55 OFFCURVE",
"225 -119 QCURVE SMOOTH",
"225 -172 OFFCURVE",
"303 -236 OFFCURVE",
"373 -236 QCURVE SMOOTH",
"402 -236 OFFCURVE",
"461 -223 OFFCURVE",
"479 -213 QCURVE",
"455 -131 LINE",
"425 -146 OFFCURVE",
"395 -146 QCURVE SMOOTH",
"369 -146 OFFCURVE",
"340 -122 OFFCURVE",
"340 -102 QCURVE SMOOTH",
"340 -74 OFFCURVE",
"394 -22 OFFCURVE",
"467 5 QCURVE SMOOTH",
"544 33 OFFCURVE",
"629 159 OFFCURVE",
"629 251 QCURVE SMOOTH",
"629 578 LINE",
"629 578 LINE"
);
}
);
userData = {
assembly = "NPUSHB[ ]	/* 47 values pushed */\01221 12 2 0 3 13 1 1 0 2 74 0 3 2 0 2 3 0 126 0 0 0 1 0 1 100 5 4 2 2 2 46 2 76 0 0 0 32 0 32 34 24 36 41 6 8 24 \012CALL[ ]	/* CallFunction */";
};
width = 689;
}
);
leftKerningGroup = u.sc;
note = uogonek.sc;
rightKerningGroup = iacute_j.loclNLD.sc;
},
{
glyphname = v.sc;
layers = (
{
layerId = "F251586D-48D7-42AD-80B6-8A992ABEF986";
paths = (
{
closed = 1;
nodes = (
"487 578 LINE",
"338 225 LINE",
"194 578 LINE",
"-11 578 LINE",
"238 0 LINE",
"428 0 LINE",
"677 578 LINE",
"677 578 LINE"
);
}
);
userData = {
assembly = "NPUSHB[ ]	/* 30 values pushed */\0125 1 0 1 1 74 3 2 2 1 1 46 75 0 0 0 47 0 76 0 0 0 6 0 6 17 17 4 8 22 \012CALL[ ]	/* CallFunction */";
};
width = 666;
}
);
leftKerningGroup = v.sc;
note = v.sc;
rightKerningGroup = v.sc;
},
{
glyphname = w.sc;
layers = (
{
layerId = "F251586D-48D7-42AD-80B6-8A992ABEF986";
paths = (
{
closed = 1;
nodes = (
"822 578 LINE",
"712 235 LINE",
"606 578 LINE",
"428 578 LINE",
"317 240 LINE",
"212 578 LINE",
"14 578 LINE",
"204 0 LINE",
"410 0 LINE",
"513 323 LINE",
"612 0 LINE",
"818 0 LINE",
"1008 578 LINE",
"1008 578 LINE"
);
}
);
userData = {
assembly = "NPUSHB[ ]	/* 36 values pushed */\01211 8 3 3 0 2 1 74 5 4 3 3 2 2 46 75 1 1 0 0 47 0 76 0 0 0 12 0 12 18 17 18 17 6 8 24 \012CALL[ ]	/* CallFunction */";
};
width = 1022;
}
);
leftKerningGroup = v.sc;
note = w.sc;
rightKerningGroup = v.sc;
},
{
glyphname = x.sc;
layers = (
{
layerId = "F251586D-48D7-42AD-80B6-8A992ABEF986";
paths = (
{
closed = 1;
nodes = (
"645 0 LINE",
"427 298 LINE",
"633 578 LINE",
"425 578 LINE",
"324 429 LINE",
"221 578 LINE",
"5 578 LINE",
"211 292 LINE",
"-3 0 LINE",
"217 0 LINE",
"319 157 LINE",
"424 0 LINE",
"424 0 LINE"
);
}
);
userData = {
assembly = "NPUSHB[ ]	/* 35 values pushed */\01210 7 4 1 4 0 1 1 74 2 1 1 1 46 75 4 3 2 0 0 47 0 76 0 0 0 11 0 11 18 18 18 5 8 23 \012CALL[ ]	/* CallFunction */";
};
width = 642;
}
);
leftKerningGroup = x.sc;
note = x.sc;
rightKerningGroup = x.sc;
},
{
glyphname = y.sc;
layers = (
{
layerId = "F251586D-48D7-42AD-80B6-8A992ABEF986";
paths = (
{
closed = 1;
nodes = (
"638 578 LINE",
"445 578 LINE",
"315 362 LINE",
"185 578 LINE",
"-19 578 LINE",
"213 194 LINE",
"213 0 LINE",
"406 0 LINE",
"406 194 LINE",
"406 194 LINE"
);
}
);
userData = {
assembly = "NPUSHB[ ]	/* 26 values pushed */\0126 3 0 3 0 1 1 74 2 1 1 1 46 75 0 0 0 47 0 76 18 18 17 3 8 23 \012CALL[ ]	/* CallFunction */";
};
width = 619;
}
);
leftKerningGroup = y.sc;
note = y.sc;
rightKerningGroup = y.sc;
},
{
glyphname = z.sc;
layers = (
{
layerId = "F251586D-48D7-42AD-80B6-8A992ABEF986";
paths = (
{
closed = 1;
nodes = (
"281 145 LINE",
"556 461 LINE",
"556 578 LINE",
"40 578 LINE",
"40 432 LINE",
"306 432 LINE",
"32 117 LINE",
"32 0 LINE",
"570 0 LINE",
"570 145 LINE",
"570 145 LINE"
);
}
);
userData = {
assembly = "NPUSHB[ ]	/* 44 values pushed */\0128 1 1 2 3 1 0 3 2 74 0 1 1 2 93 0 2 2 46 75 4 1 3 3 0 93 0 0 0 47 0 76 0 0 0 9 0 9 17 18 17 5 8 23 \012CALL[ ]	/* CallFunction */";
};
width = 589;
}
);
leftKerningGroup = z.sc;
note = z.sc;
rightKerningGroup = dzcaron.sc;
},
{
glyphname = a.sc.ss01;
layers = (
{
layerId = "F251586D-48D7-42AD-80B6-8A992ABEF986";
paths = (
{
closed = 1;
nodes = (
"263 591 OFFCURVE",
"132 525 OFFCURVE",
"60 397 OFFCURVE",
"60 309 QCURVE SMOOTH",
"60 0 LINE",
"253 0 LINE",
"253 118 LINE",
"443 118 LINE",
"443 0 LINE",
"636 0 LINE",
"636 309 LINE SMOOTH",
"636 397 OFFCURVE",
"564 525 OFFCURVE",
"433 591 OFFCURVE",
"348 591 QCURVE",
"348 591 LINE"
);
},
{
closed = 1;
nodes = (
"253 262 LINE",
"253 331 LINE SMOOTH",
"253 383 OFFCURVE",
"304 437 OFFCURVE",
"348 437 QCURVE SMOOTH",
"392 437 OFFCURVE",
"443 383 OFFCURVE",
"443 331 QCURVE SMOOTH",
"443 262 LINE",
"443 262 LINE"
);
}
);
userData = {
assembly = "NPUSHB[ ]	/* 45 values pushed */\0126 1 3 0 4 5 3 4 103 7 1 5 0 1 0 5 1 101 2 1 0 0 33 0 76 15 15 0 0 15 23 15 23 20 18 0 14 0 13 17 17 20 8 7 23 \012CALL[ ]	/* CallFunction */";
};
width = 696;
}
);
leftKerningGroup = a.sc.ss01;
note = a.sc.ss01;
rightKerningGroup = a.sc.ss01;
},
{
glyphname = ae.sc.ss01;
layers = (
{
layerId = "F251586D-48D7-42AD-80B6-8A992ABEF986";
paths = (
{
closed = 1;
nodes = (
"615 142 LINE",
"615 226 LINE",
"866 226 LINE",
"866 361 LINE",
"615 361 LINE",
"615 437 LINE",
"902 437 LINE",
"902 578 LINE",
"338 578 LINE SMOOTH",
"200 578 OFFCURVE",
"54 441 OFFCURVE",
"54 312 QCURVE SMOOTH",
"54 0 LINE",
"239 0 LINE",
"239 125 LINE",
"426 125 LINE",
"426 0 LINE",
"913 0 LINE",
"913 142 LINE",
"913 142 LINE"
);
},
{
closed = 1;
nodes = (
"239 267 LINE",
"239 307 LINE SMOOTH",
"239 370 OFFCURVE",
"294 426 OFFCURVE",
"355 426 QCURVE SMOOTH",
"426 426 LINE",
"426 267 LINE",
"426 267 LINE"
);
}
);
userData = {
assembly = "MPPEM[ ]	/* MeasurePixelPerEm */\012PUSHB[ ]	/* 1 value pushed */\01221 \012LT[ ]	/* LessThan */\012IF[ ]	/* If */\012NPUSHB[ ]	/* 39 values pushed */\0120 3 8 1 4 5 3 4 101 0 5 0 6 7 5 6 101 11 1 9 0 1 0 9 1 101 10 1 7 7 0 93 2 1 0 0 33 0 76 \012ELSE[ ]	/* Else */\012NPUSHB[ ]	/* 45 values pushed */\0120 8 4 5 4 8 112 0 3 0 4 8 3 4 101 0 5 0 6 7 5 6 101 11 1 9 0 1 0 9 1 101 10 1 7 7 0 93 2 1 0 0 33 0 76 \012EIF[ ]	/* EndIf */\012NPUSHB[ ]	/* 24 values pushed */\01219 19 0 0 19 25 19 25 22 20 0 18 0 18 17 17 17 35 17 17 17 12 7 27 \012CALL[ ]	/* CallFunction */";
};
width = 954;
}
);
note = ae.sc.ss01;
},
{
glyphname = e.sc.ss01;
layers = (
{
layerId = "F251586D-48D7-42AD-80B6-8A992ABEF986";
paths = (
{
closed = 1;
nodes = (
"521 177 LINE",
"487 155 OFFCURVE",
"384 131 OFFCURVE",
"337 131 QCURVE SMOOTH",
"218 131 OFFCURVE",
"218 179 QCURVE SMOOTH",
"218 223 OFFCURVE",
"285 223 QCURVE SMOOTH",
"472 223 LINE",
"472 360 LINE",
"298 360 LINE SMOOTH",
"242 360 OFFCURVE",
"242 399 QCURVE SMOOTH",
"242 422 OFFCURVE",
"294 448 OFFCURVE",
"349 448 QCURVE SMOOTH",
"437 448 OFFCURVE",
"508 414 QCURVE",
"561 553 LINE",
"516 571 OFFCURVE",
"401 591 OFFCURVE",
"342 591 QCURVE SMOOTH",
"245 591 OFFCURVE",
"113 542 OFFCURVE",
"49 460 OFFCURVE",
"49 411 QCURVE SMOOTH",
"49 376 OFFCURVE",
"83 316 OFFCURVE",
"115 298 QCURVE",
"72 279 OFFCURVE",
"25 210 OFFCURVE",
"25 167 QCURVE SMOOTH",
"25 114 OFFCURVE",
"94 33 OFFCURVE",
"231 -13 OFFCURVE",
"330 -13 QCURVE SMOOTH",
"399 -13 OFFCURVE",
"531 15 OFFCURVE",
"578 39 QCURVE",
"578 39 LINE"
);
}
);
userData = {
assembly = "NPUSHB[ ]	/* 54 values pushed */\01220 1 2 1 21 1 3 2 10 1 4 3 38 1 5 4 4 74 0 1 0 2 3 1 2 103 0 3 0 4 5 3 4 101 0 5 5 0 95 0 0 0 38 0 76 34 33 35 36 44 34 6 7 26 \012CALL[ ]	/* CallFunction */";
};
width = 591;
}
);
leftKerningGroup = e.sc.ss01;
note = e.sc.ss01;
rightKerningGroup = e.sc.ss01;
},
{
glyphname = eogonek.sc.ss01;
layers = (
{
layerId = "F251586D-48D7-42AD-80B6-8A992ABEF986";
paths = (
{
closed = 1;
nodes = (
"558 -131 LINE",
"528 -146 OFFCURVE",
"498 -146 QCURVE SMOOTH",
"472 -146 OFFCURVE",
"443 -121 OFFCURVE",
"443 -99 QCURVE SMOOTH",
"443 -68 OFFCURVE",
"511 6 OFFCURVE",
"578 39 QCURVE",
"521 177 LINE",
"487 155 OFFCURVE",
"384 131 OFFCURVE",
"337 131 QCURVE SMOOTH",
"218 131 OFFCURVE",
"218 179 QCURVE SMOOTH",
"218 223 OFFCURVE",
"285 223 QCURVE SMOOTH",
"472 223 LINE",
"472 360 LINE",
"298 360 LINE SMOOTH",
"242 360 OFFCURVE",
"242 399 QCURVE SMOOTH",
"242 422 OFFCURVE",
"294 448 OFFCURVE",
"349 448 QCURVE SMOOTH",
"437 448 OFFCURVE",
"508 414 QCURVE",
"561 553 LINE",
"516 571 OFFCURVE",
"401 591 OFFCURVE",
"342 591 QCURVE SMOOTH",
"245 591 OFFCURVE",
"113 542 OFFCURVE",
"49 460 OFFCURVE",
"49 411 QCURVE SMOOTH",
"49 376 OFFCURVE",
"83 316 OFFCURVE",
"115 298 QCURVE",
"72 279 OFFCURVE",
"25 210 OFFCURVE",
"25 167 QCURVE SMOOTH",
"25 114 OFFCURVE",
"94 33 OFFCURVE",
"231 -13 OFFCURVE",
"330 -13 QCURVE SMOOTH",
"345 -13 OFFCURVE",
"377 -11 QCURVE",
"328 -59 OFFCURVE",
"328 -119 QCURVE SMOOTH",
"328 -172 OFFCURVE",
"406 -236 OFFCURVE",
"476 -236 QCURVE SMOOTH",
"505 -236 OFFCURVE",
"564 -223 OFFCURVE",
"582 -213 QCURVE",
"582 -213 LINE"
);
}
);
userData = {
assembly = "NPUSHB[ ]	/* 71 values pushed */\01227 1 3 2 28 1 4 3 17 1 5 4 45 1 6 5 46 1 1 6 54 1 7 1 6 74 0 2 0 3 4 2 3 103 0 4 0 5 6 4 5 101 0 7 0 0 7 0 99 0 6 6 1 95 0 1 1 38 1 76 40 34 33 35 36 44 52 34 8 7 28 \012CALL[ ]	/* CallFunction */";
};
width = 591;
}
);
leftKerningGroup = e.sc.ss01;
note = eogonek.sc.ss01;
rightKerningGroup = e.sc.ss01;
},
{
glyphname = schwa.sc.ss01;
layers = (
{
layerId = "F251586D-48D7-42AD-80B6-8A992ABEF986";
paths = (
{
closed = 1;
nodes = (
"246 591 OFFCURVE",
"106 532 OFFCURVE",
"63 485 QCURVE",
"175 369 LINE",
"200 399 OFFCURVE",
"279 437 OFFCURVE",
"323 437 QCURVE SMOOTH",
"360 437 OFFCURVE",
"420 406 OFFCURVE",
"437 379 QCURVE",
"37 216 LINE",
"61 111 OFFCURVE",
"224 -13 OFFCURVE",
"340 -13 QCURVE SMOOTH",
"430 -13 OFFCURVE",
"571 63 OFFCURVE",
"651 201 OFFCURVE",
"651 289 QCURVE SMOOTH",
"651 376 OFFCURVE",
"568 514 OFFCURVE",
"423 591 OFFCURVE",
"331 591 QCURVE",
"331 591 LINE"
);
},
{
closed = 1;
nodes = (
"263 123 OFFCURVE",
"237 180 QCURVE",
"460 273 LINE",
"460 262 LINE SMOOTH",
"460 198 OFFCURVE",
"399 123 OFFCURVE",
"340 123 QCURVE",
"340 123 LINE"
);
}
);
userData = {
assembly = "NPUSHB[ ]	/* 52 values pushed */\01218 1 1 2 26 25 17 11 10 5 3 1 2 74 4 1 2 0 1 3 2 1 103 5 1 3 3 0 95 0 0 0 38 0 76 22 22 0 0 22 28 22 27 0 21 0 20 37 38 6 7 22 \012CALL[ ]	/* CallFunction */";
};
width = 681;
}
);
leftKerningGroup = c.sc;
note = uni0259.sc.ss01;
rightKerningGroup = d.sc;
},
{
glyphname = f.sc.ss01;
layers = (
{
layerId = "F251586D-48D7-42AD-80B6-8A992ABEF986";
paths = (
{
closed = 1;
nodes = (
"429 438 OFFCURVE",
"476 411 QCURVE",
"532 555 LINE",
"501 572 OFFCURVE",
"409 591 OFFCURVE",
"356 591 QCURVE SMOOTH",
"216 591 OFFCURVE",
"60 455 OFFCURVE",
"60 332 QCURVE SMOOTH",
"60 0 LINE",
"253 0 LINE",
"253 187 LINE",
"464 187 LINE",
"464 329 LINE",
"253 329 LINE",
"253 338 LINE SMOOTH",
"253 389 OFFCURVE",
"312 438 OFFCURVE",
"365 438 QCURVE",
"365 438 LINE"
);
}
);
userData = {
assembly = "NPUSHB[ ]	/* 46 values pushed */\01215 1 4 3 16 1 0 4 2 74 0 3 5 1 4 0 3 4 103 0 0 0 1 2 0 1 101 0 2 2 33 2 76 0 0 0 18 0 17 35 17 17 19 6 7 24 \012CALL[ ]	/* CallFunction */";
};
width = 541;
}
);
leftKerningGroup = f.sc.ss01;
note = f.sc.ss01;
rightKerningGroup = f.sc;
},
{
glyphname = g.sc.ss01;
layers = (
{
layerId = "F251586D-48D7-42AD-80B6-8A992ABEF986";
paths = (
{
closed = 1;
nodes = (
"442 162 LINE",
"408 138 OFFCURVE",
"361 138 QCURVE SMOOTH",
"300 138 OFFCURVE",
"224 214 OFFCURVE",
"224 281 QCURVE SMOOTH",
"224 355 OFFCURVE",
"301 437 OFFCURVE",
"368 437 QCURVE SMOOTH",
"448 437 OFFCURVE",
"502 373 QCURVE",
"628 481 LINE",
"541 591 OFFCURVE",
"367 591 QCURVE SMOOTH",
"270 591 OFFCURVE",
"116 512 OFFCURVE",
"30 372 OFFCURVE",
"30 282 QCURVE SMOOTH",
"30 195 OFFCURVE",
"110 61 OFFCURVE",
"251 -13 OFFCURVE",
"339 -13 QCURVE SMOOTH",
"430 -13 OFFCURVE",
"491 33 QCURVE",
"491 0 LINE",
"612 0 LINE",
"612 299 LINE",
"442 299 LINE",
"442 299 LINE"
);
}
);
userData = {
assembly = "NPUSHB[ ]	/* 18 values pushed */\01216 1 4 3 17 1 0 4 27 1 5 0 4 1 1 5 4 74 \012MPPEM[ ]	/* MeasurePixelPerEm */\012PUSHB[ ]	/* 1 value pushed */\01219 \012LT[ ]	/* LessThan */\012IF[ ]	/* If */\012NPUSHB[ ]	/* 31 values pushed */\0120 3 0 4 0 3 4 103 0 0 0 1 95 2 1 1 1 33 75 0 5 5 1 95 2 1 1 1 33 1 76 \012ELSE[ ]	/* Else */\012NPUSHB[ ]	/* 29 values pushed */\0120 3 0 4 0 3 4 103 0 0 0 1 93 0 1 1 33 75 0 5 5 2 95 0 2 2 38 2 76 \012EIF[ ]	/* EndIf */\012NPUSHB[ ]	/* 9 values pushed */\01236 35 38 34 17 16 6 7 26 \012CALL[ ]	/* CallFunction */";
};
width = 663;
}
);
leftKerningGroup = c.sc;
note = g.sc.ss01;
rightKerningGroup = g.sc;
},
{
glyphname = i.sc.ss01;
layers = (
{
layerId = "F251586D-48D7-42AD-80B6-8A992ABEF986";
paths = (
{
closed = 1;
nodes = (
"415 436 LINE",
"415 578 LINE",
"44 578 LINE",
"44 436 LINE",
"133 436 LINE",
"133 142 LINE",
"44 142 LINE",
"44 0 LINE",
"415 0 LINE",
"415 142 LINE",
"326 142 LINE",
"326 436 LINE",
"326 436 LINE"
);
}
);
userData = {
assembly = "NPUSHB[ ]	/* 36 values pushed */\0120 4 6 5 2 3 0 4 3 101 2 1 0 0 1 93 0 1 1 33 1 76 0 0 0 11 0 11 17 17 17 17 17 7 7 25 \012CALL[ ]	/* CallFunction */";
};
width = 459;
}
);
leftKerningGroup = i.sc.ss01;
note = i.sc.ss01;
rightKerningGroup = i.sc.ss01;
},
{
glyphname = iacute_j.loclNLD.sc.ss01;
layers = (
{
layerId = "F251586D-48D7-42AD-80B6-8A992ABEF986";
paths = (
{
closed = 1;
nodes = (
"47 643 LINE",
"176 643 LINE",
"365 795 LINE",
"181 795 LINE",
"181 795 LINE"
);
},
{
closed = 1;
nodes = (
"378 643 LINE",
"506 643 LINE",
"695 795 LINE",
"511 795 LINE",
"511 795 LINE"
);
},
{
closed = 1;
nodes = (
"407 -8 OFFCURVE",
"567 140 OFFCURVE",
"567 274 QCURVE SMOOTH",
"567 578 LINE",
"374 578 LINE",
"374 264 LINE SMOOTH",
"374 144 OFFCURVE",
"259 144 QCURVE SMOOTH",
"172 144 OFFCURVE",
"99 196 QCURVE",
"28 59 LINE",
"126 -8 OFFCURVE",
"267 -8 QCURVE",
"267 -8 LINE"
);
},
{
closed = 1;
nodes = (
"44 277 LINE",
"237 277 LINE",
"237 578 LINE",
"44 578 LINE",
"44 578 LINE"
);
}
);
userData = {
assembly = "NPUSHB[ ]	/* 62 values pushed */\01210 1 4 8 9 1 6 4 2 74 2 1 0 1 0 131 3 1 1 5 1 131 7 1 5 0 8 4 5 8 102 0 4 4 6 96 9 1 6 6 40 6 76 8 8 24 23 22 21 8 20 8 19 18 36 17 17 17 16 10 7 26 \012CALL[ ]	/* CallFunction */";
};
width = 637;
}
);
leftKerningGroup = b.sc;
note = iacute_j.loclNLD.sc.ss01;
rightKerningGroup = iacute_j.loclNLD.sc;
},
{
glyphname = ij.sc.ss01;
layers = (
{
layerId = "F251586D-48D7-42AD-80B6-8A992ABEF986";
paths = (
{
closed = 1;
nodes = (
"417 -90 OFFCURVE",
"577 57 OFFCURVE",
"577 192 QCURVE SMOOTH",
"577 578 LINE",
"384 578 LINE",
"384 182 LINE SMOOTH",
"384 61 OFFCURVE",
"269 61 QCURVE SMOOTH",
"182 61 OFFCURVE",
"108 114 QCURVE",
"37 -23 LINE",
"133 -90 OFFCURVE",
"278 -90 QCURVE",
"278 -90 LINE"
);
},
{
closed = 1;
nodes = (
"54 194 LINE",
"247 194 LINE",
"247 578 LINE",
"54 578 LINE",
"54 578 LINE"
);
}
);
userData = {
assembly = "NPUSHB[ ]	/* 51 values pushed */\0122 1 0 4 1 1 2 0 2 74 3 1 1 0 4 0 1 4 101 0 0 2 2 0 87 0 0 0 2 96 5 1 2 0 2 80 0 0 16 15 14 13 0 12 0 11 18 35 6 7 22 \012CALL[ ]	/* CallFunction */";
};
width = 637;
}
);
leftKerningGroup = b.sc;
note = ij.sc.ss01;
rightKerningGroup = h.sc;
},
{
glyphname = j.sc.ss01;
layers = (
{
layerId = "F251586D-48D7-42AD-80B6-8A992ABEF986";
paths = (
{
closed = 1;
nodes = (
"314 -96 OFFCURVE",
"438 25 OFFCURVE",
"438 148 QCURVE SMOOTH",
"438 578 LINE",
"47 578 LINE",
"47 434 LINE",
"247 434 LINE",
"247 129 LINE SMOOTH",
"247 55 OFFCURVE",
"184 55 QCURVE SMOOTH",
"133 55 OFFCURVE",
"92 112 QCURVE",
"-18 -7 LINE",
"16 -51 OFFCURVE",
"125 -96 OFFCURVE",
"195 -96 QCURVE",
"195 -96 LINE"
);
}
);
userData = {
assembly = "NPUSHB[ ]	/* 47 values pushed */\0123 1 0 1 2 1 3 0 2 74 0 2 0 1 0 2 1 101 0 0 3 3 0 87 0 0 0 3 95 4 1 3 0 3 79 0 0 0 15 0 14 17 18 36 5 7 23 \012CALL[ ]	/* CallFunction */";
};
width = 498;
}
);
leftKerningGroup = j.sc.ss01;
note = j.sc.ss01;
rightKerningGroup = h.sc;
},
{
glyphname = m.sc.ss01;
layers = (
{
layerId = "F251586D-48D7-42AD-80B6-8A992ABEF986";
paths = (
{
closed = 1;
nodes = (
"716 591 OFFCURVE",
"620 554 OFFCURVE",
"587 519 QCURVE",
"532 591 OFFCURVE",
"424 591 QCURVE SMOOTH",
"370 591 OFFCURVE",
"282 555 OFFCURVE",
"253 521 QCURVE",
"253 578 LINE",
"65 578 LINE",
"65 0 LINE",
"258 0 LINE",
"258 345 LINE SMOOTH",
"258 391 OFFCURVE",
"306 437 OFFCURVE",
"348 437 QCURVE SMOOTH",
"432 437 OFFCURVE",
"432 349 QCURVE SMOOTH",
"432 0 LINE",
"626 0 LINE",
"626 345 LINE SMOOTH",
"626 392 OFFCURVE",
"672 437 OFFCURVE",
"715 437 QCURVE SMOOTH",
"800 437 OFFCURVE",
"800 349 QCURVE SMOOTH",
"800 0 LINE",
"993 0 LINE",
"993 360 LINE SMOOTH",
"993 472 OFFCURVE",
"877 591 OFFCURVE",
"773 591 QCURVE",
"773 591 LINE"
);
}
);
userData = {
assembly = "PUSHB[ ]	/* 7 values pushed */\01228 23 2 1 5 1 74 \012MPPEM[ ]	/* MeasurePixelPerEm */\012PUSHB[ ]	/* 1 value pushed */\01219 \012LT[ ]	/* LessThan */\012IF[ ]	/* If */\012NPUSHB[ ]	/* 23 values pushed */\0123 1 1 0 5 1 87 8 7 6 3 5 5 0 93 4 2 2 0 0 33 0 76 \012ELSE[ ]	/* Else */\012NPUSHB[ ]	/* 24 values pushed */\0128 7 2 6 3 1 1 0 6 1 103 0 5 5 0 93 4 2 2 0 0 33 0 76 \012EIF[ ]	/* EndIf */\012NPUSHB[ ]	/* 16 values pushed */\0120 0 0 31 0 30 35 17 19 34 19 34 19 9 7 27 \012CALL[ ]	/* CallFunction */";
};
width = 1052;
}
);
leftKerningGroup = b.sc;
note = m.sc.ss01;
rightKerningGroup = m.sc.ss01;
},
{
glyphname = n.sc.ss01;
layers = (
{
layerId = "F251586D-48D7-42AD-80B6-8A992ABEF986";
paths = (
{
closed = 1;
nodes = (
"312 591 OFFCURVE",
"252 528 QCURVE",
"252 578 LINE",
"65 578 LINE",
"65 0 LINE",
"258 0 LINE",
"258 328 LINE SMOOTH",
"258 381 OFFCURVE",
"314 437 OFFCURVE",
"358 437 QCURVE SMOOTH",
"398 437 OFFCURVE",
"444 385 OFFCURVE",
"444 333 QCURVE SMOOTH",
"444 0 LINE",
"637 0 LINE",
"637 344 LINE SMOOTH",
"637 461 OFFCURVE",
"521 591 OFFCURVE",
"416 591 QCURVE",
"416 591 LINE"
);
}
);
userData = {
assembly = "PUSHB[ ]	/* 6 values pushed */\01216 1 1 3 1 74 \012MPPEM[ ]	/* MeasurePixelPerEm */\012PUSHB[ ]	/* 1 value pushed */\01219 \012LT[ ]	/* LessThan */\012IF[ ]	/* If */\012NPUSHB[ ]	/* 20 values pushed */\0120 1 0 3 1 87 5 4 2 3 3 0 93 2 1 0 0 33 0 76 \012ELSE[ ]	/* Else */\012NPUSHB[ ]	/* 21 values pushed */\0125 1 4 0 1 0 4 1 103 0 3 3 0 93 2 1 0 0 33 0 76 \012EIF[ ]	/* EndIf */\012NPUSHB[ ]	/* 13 values pushed */\0120 0 0 18 0 17 17 19 35 19 6 7 24 \012CALL[ ]	/* CallFunction */";
};
width = 697;
}
);
leftKerningGroup = b.sc;
note = n.sc.ss01;
rightKerningGroup = m.sc.ss01;
},
{
glyphname = eng.sc.ss01;
layers = (
{
layerId = "F251586D-48D7-42AD-80B6-8A992ABEF986";
paths = (
{
closed = 1;
nodes = (
"312 591 OFFCURVE",
"252 528 QCURVE",
"252 578 LINE",
"65 578 LINE",
"65 0 LINE",
"258 0 LINE",
"258 328 LINE SMOOTH",
"258 381 OFFCURVE",
"314 437 OFFCURVE",
"358 437 QCURVE SMOOTH",
"398 437 OFFCURVE",
"444 385 OFFCURVE",
"444 333 QCURVE SMOOTH",
"444 55 LINE SMOOTH",
"444 19 OFFCURVE",
"414 -15 OFFCURVE",
"383 -15 QCURVE SMOOTH",
"348 -15 OFFCURVE",
"318 6 QCURVE",
"245 -128 LINE",
"307 -168 OFFCURVE",
"395 -168 QCURVE SMOOTH",
"514 -168 OFFCURVE",
"637 -44 OFFCURVE",
"637 74 QCURVE SMOOTH",
"637 344 LINE SMOOTH",
"637 461 OFFCURVE",
"521 591 OFFCURVE",
"416 591 QCURVE",
"416 591 LINE"
);
}
);
userData = {
assembly = "NPUSHB[ ]	/* 14 values pushed */\01226 1 2 4 9 1 3 2 8 1 0 1 3 74 \012MPPEM[ ]	/* MeasurePixelPerEm */\012PUSHB[ ]	/* 1 value pushed */\01219 \012LT[ ]	/* LessThan */\012IF[ ]	/* If */\012NPUSHB[ ]	/* 26 values pushed */\0120 2 3 4 2 87 0 1 0 0 1 0 99 6 5 2 4 4 3 93 0 3 3 33 3 76 \012ELSE[ ]	/* Else */\012NPUSHB[ ]	/* 27 values pushed */\0126 1 5 0 2 3 5 2 103 0 1 0 0 1 0 99 0 4 4 3 93 0 3 3 33 3 76 \012EIF[ ]	/* EndIf */\012NPUSHB[ ]	/* 14 values pushed */\0120 0 0 28 0 27 17 19 37 35 37 7 7 25 \012CALL[ ]	/* CallFunction */";
};
width = 697;
}
);
leftKerningGroup = b.sc;
note = eng.sc.ss01;
rightKerningGroup = m.sc.ss01;
},
{
glyphname = q.sc.ss01;
layers = (
{
layerId = "F251586D-48D7-42AD-80B6-8A992ABEF986";
paths = (
{
closed = 1;
nodes = (
"692 375 OFFCURVE",
"606 513 OFFCURVE",
"455 591 OFFCURVE",
"361 591 QCURVE SMOOTH",
"266 591 OFFCURVE",
"115 513 OFFCURVE",
"30 375 OFFCURVE",
"30 289 QCURVE SMOOTH",
"30 182 OFFCURVE",
"158 24 OFFCURVE",
"265 -2 QCURVE",
"265 -111 LINE",
"458 -111 LINE",
"458 -1 LINE",
"564 26 OFFCURVE",
"692 182 OFFCURVE",
"692 289 QCURVE",
"692 289 LINE"
);
},
{
closed = 1;
nodes = (
"296 141 OFFCURVE",
"224 219 OFFCURVE",
"224 289 QCURVE SMOOTH",
"224 356 OFFCURVE",
"302 437 OFFCURVE",
"361 437 QCURVE SMOOTH",
"420 437 OFFCURVE",
"497 356 OFFCURVE",
"497 289 QCURVE SMOOTH",
"497 219 OFFCURVE",
"425 141 OFFCURVE",
"361 141 QCURVE",
"361 141 LINE"
);
}
);
userData = {
assembly = "NPUSHB[ ]	/* 45 values pushed */\0125 2 2 0 3 1 74 0 1 0 2 3 1 2 103 4 1 3 0 0 3 87 4 1 3 3 0 93 0 0 3 0 77 17 17 17 28 17 27 40 39 19 5 7 23 \012CALL[ ]	/* CallFunction */";
};
width = 721;
}
);
leftKerningGroup = c.sc;
note = q.sc.ss01;
rightKerningGroup = d.sc;
},
{
glyphname = t.sc.ss01;
layers = (
{
layerId = "F251586D-48D7-42AD-80B6-8A992ABEF986";
paths = (
{
closed = 1;
nodes = (
"586 515 LINE",
"524 552 OFFCURVE",
"369 591 OFFCURVE",
"286 591 QCURVE SMOOTH",
"203 591 OFFCURVE",
"49 552 OFFCURVE",
"-14 515 QCURVE",
"49 379 LINE",
"118 417 OFFCURVE",
"189 431 QCURVE",
"189 0 LINE",
"382 0 LINE",
"382 431 LINE",
"455 417 OFFCURVE",
"522 379 QCURVE",
"522 379 LINE"
);
}
);
userData = {
assembly = "NPUSHB[ ]	/* 26 values pushed */\01214 8 7 5 2 5 0 1 1 74 0 1 1 0 93 0 0 0 33 0 76 38 19 2 7 22 \012CALL[ ]	/* CallFunction */";
};
width = 572;
}
);
leftKerningGroup = t.sc;
note = t.sc.ss01;
rightKerningGroup = t.sc;
},
{
glyphname = u.sc.ss01;
layers = (
{
layerId = "F251586D-48D7-42AD-80B6-8A992ABEF986";
paths = (
{
closed = 1;
nodes = (
"439 578 LINE",
"439 251 LINE SMOOTH",
"439 197 OFFCURVE",
"383 141 OFFCURVE",
"339 141 QCURVE SMOOTH",
"299 141 OFFCURVE",
"253 193 OFFCURVE",
"253 246 QCURVE SMOOTH",
"253 578 LINE",
"60 578 LINE",
"60 234 LINE SMOOTH",
"60 117 OFFCURVE",
"176 -13 OFFCURVE",
"281 -13 QCURVE SMOOTH",
"384 -13 OFFCURVE",
"445 50 QCURVE",
"445 0 LINE",
"632 0 LINE",
"632 578 LINE",
"632 578 LINE"
);
}
);
userData = {
assembly = "PUSHB[ ]	/* 6 values pushed */\0123 1 0 3 1 74 \012MPPEM[ ]	/* MeasurePixelPerEm */\012PUSHB[ ]	/* 1 value pushed */\01219 \012LT[ ]	/* LessThan */\012IF[ ]	/* If */\012NPUSHB[ ]	/* 25 values pushed */\0125 4 2 2 2 0 95 1 1 0 0 33 75 0 3 3 0 96 1 1 0 0 33 0 76 \012ELSE[ ]	/* Else */\012NPUSHB[ ]	/* 23 values pushed */\0125 4 2 2 2 0 93 0 0 0 33 75 0 3 3 1 96 0 1 1 38 1 76 \012EIF[ ]	/* EndIf */\012NPUSHB[ ]	/* 13 values pushed */\0120 0 0 18 0 18 35 19 34 17 6 7 24 \012CALL[ ]	/* CallFunction */";
};
width = 697;
}
);
leftKerningGroup = u.sc;
note = u.sc.ss01;
rightKerningGroup = h.sc;
},
{
glyphname = w.sc.ss01;
layers = (
{
layerId = "F251586D-48D7-42AD-80B6-8A992ABEF986";
paths = (
{
closed = 1;
nodes = (
"796 578 LINE",
"796 238 LINE SMOOTH",
"796 191 OFFCURVE",
"749 141 OFFCURVE",
"706 141 QCURVE SMOOTH",
"621 141 OFFCURVE",
"621 238 QCURVE SMOOTH",
"621 578 LINE",
"428 578 LINE",
"428 238 LINE SMOOTH",
"428 141 OFFCURVE",
"342 141 QCURVE SMOOTH",
"299 141 OFFCURVE",
"253 189 OFFCURVE",
"253 238 QCURVE SMOOTH",
"253 578 LINE",
"60 578 LINE",
"60 235 LINE SMOOTH",
"60 119 OFFCURVE",
"211 -13 OFFCURVE",
"341 -13 QCURVE SMOOTH",
"458 -13 OFFCURVE",
"525 44 QCURVE",
"591 -13 OFFCURVE",
"708 -13 QCURVE SMOOTH",
"840 -13 OFFCURVE",
"989 118 OFFCURVE",
"989 235 QCURVE SMOOTH",
"989 578 LINE",
"989 578 LINE"
);
}
);
userData = {
assembly = "NPUSHB[ ]	/* 42 values pushed */\0126 1 0 3 1 74 7 6 4 3 2 3 2 131 5 1 3 3 0 96 1 1 0 0 38 0 76 0 0 0 28 0 28 34 18 35 19 34 35 8 7 26 \012CALL[ ]	/* CallFunction */";
};
width = 1049;
}
);
leftKerningGroup = u.sc;
note = w.sc.ss01;
rightKerningGroup = iacute_j.loclNLD.sc;
},
{
glyphname = y.sc.ss01;
layers = (
{
layerId = "F251586D-48D7-42AD-80B6-8A992ABEF986";
paths = (
{
closed = 1;
nodes = (
"434 578 LINE",
"434 390 LINE SMOOTH",
"434 339 OFFCURVE",
"380 288 OFFCURVE",
"337 288 QCURVE SMOOTH",
"294 288 OFFCURVE",
"248 337 OFFCURVE",
"248 384 QCURVE SMOOTH",
"248 578 LINE",
"55 578 LINE",
"55 376 LINE SMOOTH",
"55 259 OFFCURVE",
"177 134 OFFCURVE",
"288 134 QCURVE SMOOTH",
"378 134 OFFCURVE",
"434 187 QCURVE",
"434 174 LINE SMOOTH",
"434 112 OFFCURVE",
"379 54 OFFCURVE",
"314 54 QCURVE SMOOTH",
"270 54 OFFCURVE",
"178 84 OFFCURVE",
"142 110 QCURVE",
"70 -24 LINE",
"168 -96 OFFCURVE",
"325 -96 QCURVE SMOOTH",
"465 -96 OFFCURVE",
"628 51 OFFCURVE",
"628 185 QCURVE SMOOTH",
"628 578 LINE",
"628 578 LINE"
);
}
);
userData = {
assembly = "NPUSHB[ ]	/* 59 values pushed */\01214 1 2 4 7 1 1 2 6 1 0 1 3 74 6 5 2 3 4 3 131 0 4 0 2 1 4 2 104 0 1 0 0 1 87 0 1 1 0 95 0 0 1 0 79 0 0 0 29 0 29 35 19 36 36 35 7 7 25 \012CALL[ ]	/* CallFunction */";
};
width = 687;
}
);
leftKerningGroup = y.sc.ss01;
note = y.sc.ss01;
rightKerningGroup = h.sc;
},
{
glyphname = z.sc.ss01;
layers = (
{
layerId = "F251586D-48D7-42AD-80B6-8A992ABEF986";
paths = (
{
closed = 1;
nodes = (
"272 142 LINE",
"346 226 LINE",
"543 226 LINE",
"543 357 LINE",
"462 357 LINE",
"561 470 LINE",
"561 578 LINE",
"45 578 LINE",
"45 436 LINE",
"324 436 LINE",
"256 358 LINE",
"68 358 LINE",
"68 227 LINE",
"141 227 LINE",
"36 107 LINE",
"36 0 LINE",
"574 0 LINE",
"574 142 LINE",
"574 142 LINE"
);
}
);
userData = {
assembly = "NPUSHB[ ]	/* 56 values pushed */\01212 1 3 4 3 1 0 7 2 74 0 4 0 3 2 4 3 101 5 1 2 6 1 1 7 2 1 101 8 1 7 7 0 93 0 0 0 33 0 76 0 0 0 17 0 17 17 18 17 17 17 18 17 9 7 27 \012CALL[ ]	/* CallFunction */";
};
width = 596;
}
);
leftKerningGroup = z.sc;
note = z.sc.ss01;
rightKerningGroup = dzcaron.sc;
},
{
glyphname = ordfeminine;
layers = (
{
layerId = "F251586D-48D7-42AD-80B6-8A992ABEF986";
paths = (
{
closed = 1;
nodes = (
"150 751 OFFCURVE",
"66 730 OFFCURVE",
"37 712 QCURVE",
"79 632 LINE",
"97 645 OFFCURVE",
"148 660 OFFCURVE",
"171 660 QCURVE SMOOTH",
"238 660 OFFCURVE",
"243 613 QCURVE",
"176 613 LINE SMOOTH",
"23 613 OFFCURVE",
"23 517 QCURVE SMOOTH",
"23 473 OFFCURVE",
"90 417 OFFCURVE",
"151 417 QCURVE SMOOTH",
"227 417 OFFCURVE",
"253 464 QCURVE",
"253 422 LINE",
"373 422 LINE",
"373 600 LINE SMOOTH",
"373 751 OFFCURVE",
"191 751 QCURVE",
"191 751 LINE"
);
},
{
closed = 1;
nodes = (
"168 492 OFFCURVE",
"145 508 OFFCURVE",
"145 522 QCURVE SMOOTH",
"145 551 OFFCURVE",
"196 551 QCURVE SMOOTH",
"243 551 LINE",
"243 525 LINE",
"236 509 OFFCURVE",
"207 492 OFFCURVE",
"188 492 QCURVE",
"188 492 LINE"
);
}
);
userData = {
assembly = "NPUSHB[ ]	/* 18 values pushed */\01218 1 3 4 17 1 2 3 24 1 6 5 4 1 0 6 4 74 \012MPPEM[ ]	/* MeasurePixelPerEm */\012PUSHB[ ]	/* 1 value pushed */\01210 \012LT[ ]	/* LessThan */\012IF[ ]	/* If */\012NPUSHB[ ]	/* 35 values pushed */\0128 1 6 5 0 5 6 0 126 1 1 0 5 0 109 0 2 0 5 6 2 5 103 0 3 3 4 95 7 1 4 4 104 3 76 \012ELSE[ ]	/* Else */\012MPPEM[ ]	/* MeasurePixelPerEm */\012PUSHB[ ]	/* 1 value pushed */\01247 \012LT[ ]	/* LessThan */\012IF[ ]	/* If */\012NPUSHB[ ]	/* 34 values pushed */\0128 1 6 5 0 5 6 0 126 1 1 0 0 130 0 2 0 5 6 2 5 103 0 3 3 4 95 7 1 4 4 104 3 76 \012ELSE[ ]	/* Else */\012NPUSHB[ ]	/* 40 values pushed */\0128 1 6 5 0 5 6 0 126 0 0 1 5 0 1 124 0 1 1 130 0 2 0 5 6 2 5 103 0 3 3 4 95 7 1 4 4 104 3 76 \012EIF[ ]	/* EndIf */\012EIF[ ]	/* EndIf */\012NPUSHB[ ]	/* 21 values pushed */\01222 22 0 0 22 31 22 30 27 25 0 21 0 20 33 35 34 18 9 12 24 \012CALL[ ]	/* CallFunction */";
};
width = 417;
}
);
leftKerningGroup = ordfeminine;
note = ordfeminine;
rightKerningGroup = ordfeminine;
unicode = 00AA;
},
{
glyphname = ordmasculine;
layers = (
{
layerId = "F251586D-48D7-42AD-80B6-8A992ABEF986";
paths = (
{
closed = 1;
nodes = (
"273 417 OFFCURVE",
"362 460 OFFCURVE",
"412 536 OFFCURVE",
"412 584 QCURVE SMOOTH",
"412 632 OFFCURVE",
"362 708 OFFCURVE",
"273 751 OFFCURVE",
"216 751 QCURVE SMOOTH",
"160 751 OFFCURVE",
"71 708 OFFCURVE",
"20 632 OFFCURVE",
"20 584 QCURVE SMOOTH",
"20 536 OFFCURVE",
"71 460 OFFCURVE",
"160 417 OFFCURVE",
"216 417 QCURVE",
"216 417 LINE"
);
},
{
closed = 1;
nodes = (
"186 513 OFFCURVE",
"148 551 OFFCURVE",
"148 584 QCURVE SMOOTH",
"148 618 OFFCURVE",
"186 655 OFFCURVE",
"216 655 QCURVE SMOOTH",
"246 655 OFFCURVE",
"284 618 OFFCURVE",
"284 584 QCURVE SMOOTH",
"284 551 OFFCURVE",
"246 513 OFFCURVE",
"216 513 QCURVE",
"216 513 LINE"
);
}
);
userData = {
assembly = "NPUSHB[ ]	/* 38 values pushed */\0125 1 3 4 1 1 3 1 99 0 2 2 0 95 0 0 0 104 2 76 16 16 0 0 16 27 16 26 22 20 0 15 0 14 38 6 12 21 \012CALL[ ]	/* CallFunction */";
};
width = 432;
}
);
leftKerningGroup = ordfeminine;
note = ordmasculine;
rightKerningGroup = ordfeminine;
unicode = 00BA;
},
{
glyphname = "Be-cy";
layers = (
{
layerId = "F251586D-48D7-42AD-80B6-8A992ABEF986";
paths = (
{
closed = 1;
nodes = (
"75 0 LINE",
"425 0 LINE SMOOTH",
"562 0 OFFCURVE",
"714 119 OFFCURVE",
"714 225 QCURVE SMOOTH",
"714 326 OFFCURVE",
"578 434 OFFCURVE",
"451 434 QCURVE SMOOTH",
"270 434 LINE",
"270 547 LINE",
"660 547 LINE",
"660 700 LINE",
"75 700 LINE",
"75 700 LINE"
);
},
{
closed = 1;
nodes = (
"270 142 LINE",
"270 293 LINE",
"412 293 LINE SMOOTH",
"514 293 OFFCURVE",
"514 219 QCURVE SMOOTH",
"514 182 OFFCURVE",
"462 142 OFFCURVE",
"412 142 QCURVE",
"412 142 LINE"
);
}
);
userData = {
assembly = "NPUSHB[ ]	/* 45 values pushed */\0120 2 0 5 4 2 5 101 0 1 1 0 93 0 0 0 32 75 6 1 4 4 3 93 0 3 3 33 3 76 14 13 19 17 13 20 14 20 36 33 17 16 7 7 24 \012CALL[ ]	/* CallFunction */";
};
width = 741;
}
);
leftKerningGroup = B;
note = uni0411;
rightKerningGroup = "Be-cy";
unicode = 0411;
},
{
glyphname = "Ve-cy";
layers = (
{
layerId = "F251586D-48D7-42AD-80B6-8A992ABEF986";
paths = (
{
closed = 1;
nodes = (
"631 389 OFFCURVE",
"680 467 OFFCURVE",
"680 518 QCURVE SMOOTH",
"680 605 OFFCURVE",
"541 700 OFFCURVE",
"415 700 QCURVE SMOOTH",
"75 700 LINE",
"75 0 LINE",
"434 0 LINE SMOOTH",
"567 0 OFFCURVE",
"712 107 OFFCURVE",
"712 200 QCURVE SMOOTH",
"712 262 OFFCURVE",
"647 346 OFFCURVE",
"585 366 QCURVE",
"585 366 LINE"
);
},
{
closed = 1;
nodes = (
"270 558 LINE",
"396 558 LINE SMOOTH",
"480 558 OFFCURVE",
"480 489 QCURVE SMOOTH",
"480 420 OFFCURVE",
"396 420 QCURVE SMOOTH",
"270 420 LINE",
"270 420 LINE"
);
},
{
closed = 1;
nodes = (
"270 142 LINE",
"270 286 LINE",
"426 286 LINE SMOOTH",
"512 286 OFFCURVE",
"512 215 QCURVE SMOOTH",
"512 142 OFFCURVE",
"426 142 QCURVE",
"426 142 LINE"
);
}
);
userData = {
assembly = "NPUSHB[ ]	/* 50 values pushed */\01214 1 4 2 1 74 0 2 0 4 5 2 4 101 0 3 3 1 93 0 1 1 32 75 6 1 5 5 0 93 0 0 0 33 0 76 22 22 22 28 22 27 35 34 38 33 36 7 7 25 \012CALL[ ]	/* CallFunction */";
};
width = 744;
}
);
leftKerningGroup = B;
note = uni0412;
rightKerningGroup = B;
unicode = 0412;
},
{
glyphname = "Ge-cy";
layers = (
{
layerId = "F251586D-48D7-42AD-80B6-8A992ABEF986";
paths = (
{
closed = 1;
nodes = (
"588 700 LINE",
"75 700 LINE",
"75 0 LINE",
"270 0 LINE",
"270 543 LINE",
"587 543 LINE",
"587 543 LINE"
);
}
);
userData = {
assembly = "NPUSHB[ ]	/* 22 values pushed */\0120 0 0 2 93 0 2 2 32 75 0 1 1 33 1 76 17 17 16 3 7 23 \012CALL[ ]	/* CallFunction */";
};
width = 602;
}
);
leftKerningGroup = B;
note = uni0413;
rightKerningGroup = "Ge-cy";
unicode = 0413;
},
{
glyphname = "Gheupturn-cy";
layers = (
{
layerId = "F251586D-48D7-42AD-80B6-8A992ABEF986";
paths = (
{
closed = 1;
nodes = (
"75 0 LINE",
"270 0 LINE",
"270 543 LINE",
"588 543 LINE",
"588 843 LINE",
"406 843 LINE",
"406 700 LINE",
"75 700 LINE",
"75 700 LINE"
);
}
);
userData = {
assembly = "NPUSHB[ ]	/* 28 values pushed */\0120 1 0 1 131 0 2 2 0 93 0 0 0 32 75 0 3 3 33 3 76 17 17 17 16 4 7 24 \012CALL[ ]	/* CallFunction */";
};
width = 603;
}
);
leftKerningGroup = B;
note = uni0490;
rightKerningGroup = "Ge-cy";
unicode = 0490;
},
{
glyphname = "De-cy";
layers = (
{
layerId = "F251586D-48D7-42AD-80B6-8A992ABEF986";
paths = (
{
closed = 1;
nodes = (
"732 157 LINE",
"732 700 LINE",
"168 700 LINE",
"160 484 LINE SMOOTH",
"154 326 OFFCURVE",
"103 158 OFFCURVE",
"41 157 QCURVE SMOOTH",
"16 157 LINE",
"16 -141 LINE",
"198 -141 LINE",
"198 0 LINE",
"646 0 LINE",
"646 -141 LINE",
"827 -141 LINE",
"827 157 LINE",
"827 157 LINE"
);
},
{
closed = 1;
nodes = (
"336 543 LINE",
"537 543 LINE",
"537 157 LINE",
"272 157 LINE",
"301 199 OFFCURVE",
"329 355 OFFCURVE",
"333 467 QCURVE",
"333 467 LINE"
);
}
);
userData = {
assembly = "NPUSHB[ ]	/* 48 values pushed */\0122 1 0 3 0 81 0 7 7 4 93 0 4 4 32 75 6 8 5 3 3 3 1 93 0 1 1 33 1 76 0 0 20 19 18 17 0 14 0 14 19 33 17 17 17 9 7 25 \012CALL[ ]	/* CallFunction */";
};
width = 847;
}
);
leftKerningGroup = "De-cy";
note = uni0414;
rightKerningGroup = "De-cy";
unicode = 0414;
},
{
glyphname = "Zhe-cy";
layers = (
{
layerId = "F251586D-48D7-42AD-80B6-8A992ABEF986";
paths = (
{
closed = 1;
nodes = (
"871 0 LINE",
"1099 0 LINE",
"900 367 LINE",
"1087 700 LINE",
"880 700 LINE",
"737 428 LINE",
"652 428 LINE",
"652 700 LINE",
"458 700 LINE",
"458 428 LINE",
"369 428 LINE",
"229 700 LINE",
"21 700 LINE",
"208 367 LINE",
"9 0 LINE",
"238 0 LINE",
"375 268 LINE",
"458 268 LINE",
"458 0 LINE",
"652 0 LINE",
"652 268 LINE",
"735 268 LINE",
"735 268 LINE"
);
}
);
userData = {
assembly = "NPUSHB[ ]	/* 46 values pushed */\01219 8 2 0 5 1 74 7 1 5 2 1 0 1 5 0 101 8 6 2 4 4 32 75 9 3 2 1 1 33 1 76 21 20 17 17 17 17 18 17 17 17 16 10 7 29 \012CALL[ ]	/* CallFunction */";
};
width = 1109;
}
);
leftKerningGroup = X;
note = uni0416;
rightKerningGroup = X;
unicode = 0416;
},
{
glyphname = "Ze-cy";
layers = (
{
layerId = "F251586D-48D7-42AD-80B6-8A992ABEF986";
paths = (
{
closed = 1;
nodes = (
"553 386 OFFCURVE",
"604 463 OFFCURVE",
"604 512 QCURVE SMOOTH",
"604 575 OFFCURVE",
"517 667 OFFCURVE",
"370 716 OFFCURVE",
"284 716 QCURVE SMOOTH",
"150 716 OFFCURVE",
"38 662 QCURVE",
"96 512 LINE",
"140 535 OFFCURVE",
"238 560 OFFCURVE",
"282 560 QCURVE SMOOTH",
"336 560 OFFCURVE",
"404 523 OFFCURVE",
"404 489 QCURVE SMOOTH",
"404 462 OFFCURVE",
"360 430 OFFCURVE",
"320 430 QCURVE SMOOTH",
"157 430 LINE",
"157 285 LINE",
"336 285 LINE SMOOTH",
"380 285 OFFCURVE",
"432 255 OFFCURVE",
"432 224 QCURVE SMOOTH",
"432 185 OFFCURVE",
"348 142 OFFCURVE",
"282 142 QCURVE SMOOTH",
"232 142 OFFCURVE",
"125 167 OFFCURVE",
"78 191 QCURVE",
"19 53 LINE",
"86 19 OFFCURVE",
"233 -15 OFFCURVE",
"304 -15 QCURVE SMOOTH",
"394 -15 OFFCURVE",
"544 36 OFFCURVE",
"632 132 OFFCURVE",
"632 197 QCURVE SMOOTH",
"632 254 OFFCURVE",
"566 342 OFFCURVE",
"508 364 QCURVE",
"508 364 LINE"
);
}
);
userData = {
assembly = "NPUSHB[ ]	/* 60 values pushed */\01232 1 4 5 31 1 3 4 41 1 2 3 10 1 1 2 9 1 0 1 5 74 0 3 0 2 1 3 2 101 0 4 4 5 95 0 5 5 37 75 0 1 1 0 95 0 0 0 38 0 76 36 36 33 36 37 37 6 7 26 \012CALL[ ]	/* CallFunction */";
};
width = 664;
}
);
leftKerningGroup = Ezh;
note = uni0417;
rightKerningGroup = B;
unicode = 0417;
},
{
glyphname = "Ii-cy";
layers = (
{
layerId = "F251586D-48D7-42AD-80B6-8A992ABEF986";
paths = (
{
closed = 1;
nodes = (
"75 0 LINE",
"262 0 LINE",
"550 410 LINE",
"550 0 LINE",
"745 0 LINE",
"745 700 LINE",
"559 700 LINE",
"270 289 LINE",
"270 700 LINE",
"75 700 LINE",
"75 700 LINE"
);
}
);
userData = {
assembly = "NPUSHB[ ]	/* 27 values pushed */\0127 2 2 2 0 1 74 1 1 0 0 32 75 3 1 2 2 33 2 76 18 17 18 16 4 7 24 \012CALL[ ]	/* CallFunction */";
};
width = 820;
}
);
leftKerningGroup = B;
note = uni0418;
rightKerningGroup = H;
unicode = 0418;
},
{
glyphname = "Iishorttail-cy";
layers = (
{
layerId = "F251586D-48D7-42AD-80B6-8A992ABEF986";
paths = (
{
closed = 1;
nodes = (
"516 742 OFFCURVE",
"616 824 OFFCURVE",
"616 905 QCURVE",
"483 905 LINE",
"482 870 OFFCURVE",
"446 836 OFFCURVE",
"409 836 QCURVE SMOOTH",
"372 836 OFFCURVE",
"338 870 OFFCURVE",
"337 905 QCURVE",
"204 905 LINE",
"204 824 OFFCURVE",
"303 742 OFFCURVE",
"409 742 QCURVE",
"409 742 LINE"
);
},
{
closed = 1;
nodes = (
"745 157 LINE",
"745 700 LINE",
"559 700 LINE",
"270 289 LINE",
"270 700 LINE",
"75 700 LINE",
"75 0 LINE",
"262 0 LINE",
"550 410 LINE",
"550 0 LINE",
"633 0 LINE",
"608 -141 LINE",
"763 -141 LINE",
"848 157 LINE",
"848 157 LINE"
);
}
);
userData = {
assembly = "PUSHB[ ]	/* 7 values pushed */\01224 19 2 9 7 1 74 \012MPPEM[ ]	/* MeasurePixelPerEm */\012PUSHB[ ]	/* 1 value pushed */\01218 \012LT[ ]	/* LessThan */\012IF[ ]	/* If */\012NPUSHB[ ]	/* 37 values pushed */\0122 1 0 1 1 0 110 0 1 10 1 3 7 1 3 104 11 1 9 0 4 9 4 97 8 1 7 7 32 75 6 1 5 5 33 5 76 \012ELSE[ ]	/* Else */\012NPUSHB[ ]	/* 36 values pushed */\0122 1 0 1 0 131 0 1 10 1 3 7 1 3 104 11 1 9 0 4 9 4 97 8 1 7 7 32 75 6 1 5 5 33 5 76 \012EIF[ ]	/* EndIf */\012NPUSHB[ ]	/* 28 values pushed */\01214 14 0 0 14 27 14 27 26 25 23 22 21 20 18 17 16 15 0 13 0 12 18 34 18 12 7 23 \012CALL[ ]	/* CallFunction */";
};
width = 865;
}
);
leftKerningGroup = B;
note = uni048A;
rightKerningGroup = "De-cy";
unicode = 048A;
},
{
glyphname = "Ka-cy";
layers = (
{
layerId = "F251586D-48D7-42AD-80B6-8A992ABEF986";
paths = (
{
closed = 1;
nodes = (
"517 0 LINE",
"740 0 LINE",
"519 362 LINE",
"738 700 LINE",
"530 700 LINE",
"363 428 LINE",
"268 428 LINE",
"268 700 LINE",
"71 700 LINE",
"71 0 LINE",
"268 0 LINE",
"268 268 LINE",
"358 268 LINE",
"358 268 LINE"
);
}
);
userData = {
assembly = "NPUSHB[ ]	/* 36 values pushed */\01210 1 0 3 1 74 0 3 0 0 1 3 0 101 4 1 2 2 32 75 5 1 1 1 33 1 76 18 17 17 17 17 16 6 7 26 \012CALL[ ]	/* CallFunction */";
};
width = 750;
}
);
leftKerningGroup = B;
note = uni041A;
rightKerningGroup = X;
unicode = 041A;
},
{
glyphname = "El-cy";
layers = (
{
layerId = "F251586D-48D7-42AD-80B6-8A992ABEF986";
paths = (
{
closed = 1;
nodes = (
"164 700 LINE",
"154 421 LINE SMOOTH",
"151 332 OFFCURVE",
"133 221 OFFCURVE",
"91 159 OFFCURVE",
"52 159 QCURVE SMOOTH",
"38 159 OFFCURVE",
"25 162 QCURVE",
"14 0 LINE",
"64 -12 OFFCURVE",
"104 -12 QCURVE SMOOTH",
"190 -12 OFFCURVE",
"284 91 OFFCURVE",
"323 279 OFFCURVE",
"328 429 QCURVE SMOOTH",
"332 543 LINE",
"533 543 LINE",
"533 0 LINE",
"728 0 LINE",
"728 700 LINE",
"728 700 LINE"
);
}
);
userData = {
assembly = "MPPEM[ ]	/* MeasurePixelPerEm */\012PUSHB[ ]	/* 1 value pushed */\01221 \012LT[ ]	/* LessThan */\012IF[ ]	/* If */\012NPUSHB[ ]	/* 10 values pushed */\01212 1 3 1 1 74 11 1 0 71 \012ELSE[ ]	/* Else */\012NPUSHB[ ]	/* 11 values pushed */\01212 1 3 1 1 74 11 1 0 1 73 \012EIF[ ]	/* EndIf */\012MPPEM[ ]	/* MeasurePixelPerEm */\012PUSHB[ ]	/* 1 value pushed */\01221 \012LT[ ]	/* LessThan */\012IF[ ]	/* If */\012NPUSHB[ ]	/* 23 values pushed */\0120 1 1 4 93 5 1 4 4 32 75 0 3 3 0 95 2 1 0 0 33 0 76 \012ELSE[ ]	/* Else */\012NPUSHB[ ]	/* 27 values pushed */\0120 1 1 4 93 5 1 4 4 32 75 0 0 0 33 75 0 3 3 2 95 0 2 2 38 2 76 \012EIF[ ]	/* EndIf */\012NPUSHB[ ]	/* 13 values pushed */\0120 0 0 19 0 19 35 36 17 17 6 7 24 \012CALL[ ]	/* CallFunction */";
};
width = 803;
}
);
leftKerningGroup = "De-cy";
note = uni041B;
rightKerningGroup = H;
unicode = 041B;
},
{
glyphname = "Em-cy";
layers = (
{
layerId = "F251586D-48D7-42AD-80B6-8A992ABEF986";
paths = (
{
closed = 1;
nodes = (
"889 0 LINE",
"887 700 LINE",
"724 700 LINE",
"484 296 LINE",
"238 700 LINE",
"75 700 LINE",
"75 0 LINE",
"257 0 LINE",
"257 363 LINE",
"437 69 LINE",
"525 69 LINE",
"705 371 LINE",
"706 0 LINE",
"706 0 LINE"
);
}
);
userData = {
assembly = "NPUSHB[ ]	/* 43 values pushed */\0129 4 1 3 0 2 1 74 0 0 2 1 2 0 1 126 3 1 2 2 32 75 5 4 2 1 1 33 1 76 0 0 0 12 0 12 18 17 18 18 6 7 24 \012CALL[ ]	/* CallFunction */";
};
width = 963;
}
);
leftKerningGroup = B;
note = uni041C;
rightKerningGroup = H;
unicode = 041C;
},
{
glyphname = "Pe-cy";
layers = (
{
layerId = "F251586D-48D7-42AD-80B6-8A992ABEF986";
paths = (
{
closed = 1;
nodes = (
"75 700 LINE",
"75 0 LINE",
"270 0 LINE",
"270 543 LINE",
"536 543 LINE",
"536 0 LINE",
"732 0 LINE",
"732 700 LINE",
"732 700 LINE"
);
}
);
userData = {
assembly = "NPUSHB[ ]	/* 30 values pushed */\0120 1 1 3 93 4 1 3 3 32 75 2 1 0 0 33 0 76 0 0 0 7 0 7 17 17 17 5 7 23 \012CALL[ ]	/* CallFunction */";
};
width = 807;
}
);
leftKerningGroup = B;
note = uni041F;
rightKerningGroup = H;
unicode = 041F;
},
{
glyphname = "Te-cy";
layers = (
{
layerId = "F251586D-48D7-42AD-80B6-8A992ABEF986";
paths = (
{
closed = 1;
nodes = (
"639 700 LINE",
"15 700 LINE",
"15 543 LINE",
"230 543 LINE",
"230 0 LINE",
"425 0 LINE",
"425 543 LINE",
"639 543 LINE",
"639 543 LINE"
);
}
);
userData = {
assembly = "NPUSHB[ ]	/* 24 values pushed */\0122 1 0 0 3 93 0 3 3 32 75 0 1 1 33 1 76 17 17 17 16 4 7 24 \012CALL[ ]	/* CallFunction */";
};
width = 655;
}
);
leftKerningGroup = T;
note = uni0422;
rightKerningGroup = T;
unicode = 0422;
},
{
glyphname = "U-cy";
layers = (
{
layerId = "F251586D-48D7-42AD-80B6-8A992ABEF986";
paths = (
{
closed = 1;
nodes = (
"547 700 LINE",
"378 362 LINE",
"215 700 LINE",
"6 700 LINE",
"278 196 LINE",
"259 168 OFFCURVE",
"214 142 OFFCURVE",
"185 142 QCURVE SMOOTH",
"156 142 OFFCURVE",
"115 154 QCURVE",
"68 8 LINE",
"134 -18 OFFCURVE",
"192 -18 QCURVE SMOOTH",
"271 -18 OFFCURVE",
"404 72 OFFCURVE",
"450 159 QCURVE SMOOTH",
"740 700 LINE",
"740 700 LINE"
);
}
);
userData = {
assembly = "NPUSHB[ ]	/* 42 values pushed */\01215 12 7 3 1 2 6 1 0 1 2 74 4 3 2 2 2 32 75 0 1 1 0 96 0 0 0 38 0 76 0 0 0 16 0 16 19 35 35 5 7 23 \012CALL[ ]	/* CallFunction */";
};
width = 743;
}
);
leftKerningGroup = X;
note = uni0423;
rightKerningGroup = V;
unicode = 0423;
},
{
glyphname = "Ef-cy";
layers = (
{
layerId = "F251586D-48D7-42AD-80B6-8A992ABEF986";
paths = (
{
closed = 1;
nodes = (
"937 490 OFFCURVE",
"750 649 OFFCURVE",
"573 661 QCURVE",
"573 733 LINE",
"392 733 LINE",
"392 661 LINE",
"214 648 OFFCURVE",
"28 489 OFFCURVE",
"28 352 QCURVE SMOOTH",
"28 215 OFFCURVE",
"215 57 OFFCURVE",
"392 44 QCURVE",
"392 -33 LINE",
"573 -33 LINE",
"573 44 LINE",
"750 54 OFFCURVE",
"937 215 OFFCURVE",
"937 352 QCURVE",
"937 352 LINE"
);
},
{
closed = 1;
nodes = (
"573 506 LINE",
"660 496 OFFCURVE",
"745 422 OFFCURVE",
"745 353 QCURVE SMOOTH",
"745 284 OFFCURVE",
"662 208 OFFCURVE",
"573 198 QCURVE",
"573 198 LINE"
);
},
{
closed = 1;
nodes = (
"220 422 OFFCURVE",
"302 496 OFFCURVE",
"392 506 QCURVE",
"392 199 LINE",
"306 210 OFFCURVE",
"220 284 OFFCURVE",
"220 352 QCURVE",
"220 352 LINE"
);
}
);
userData = {
assembly = "NPUSHB[ ]	/* 48 values pushed */\01211 1 3 2 28 27 24 23 4 0 3 5 1 1 0 3 74 0 2 3 1 2 85 0 3 0 0 1 3 0 103 0 2 2 1 93 0 1 2 1 77 17 24 17 17 4 7 24 \012CALL[ ]	/* CallFunction */";
};
width = 965;
}
);
leftKerningGroup = C;
note = uni0424;
rightKerningGroup = D;
unicode = 0424;
},
{
glyphname = "Ha-cy";
layers = (
{
layerId = "F251586D-48D7-42AD-80B6-8A992ABEF986";
paths = (
{
closed = 1;
nodes = (
"22 701 LINE",
"255 357 LINE",
"6 0 LINE",
"234 0 LINE",
"374 207 LINE",
"515 0 LINE",
"748 0 LINE",
"498 366 LINE",
"728 701 LINE",
"498 701 LINE",
"374 511 LINE",
"249 701 LINE",
"249 701 LINE"
);
}
);
userData = {
assembly = "NPUSHB[ ]	/* 35 values pushed */\01210 7 4 1 4 1 0 1 74 4 3 2 0 0 32 75 2 1 1 1 33 1 76 0 0 0 11 0 11 18 18 18 5 7 23 \012CALL[ ]	/* CallFunction */";
};
width = 755;
}
);
leftKerningGroup = X;
note = uni0425;
rightKerningGroup = X;
unicode = 0425;
},
